<svg version="1.1" viewBox="0 0 1277 648" xml:space="preserve" xmlns="http://www.w3.org/2000/svg" xmlns:xlink="http://www.w3.org/1999/xlink"><defs><rect id="SVGID_1_" width="2400" height="1800"/><rect id="XMLID_3_" width="577.9" height="419.1"/><path id="SVGID_4_-5" d="m266.3 532.7v-145h-73.22v145c-.43.96-1.36 2.31-1.36 3.74 0 2.98 2.5 5.45 5.48 5.45h14.79c2.98 0 5.31-2.47 5.31-5.45 0-1.42-.25-2.77-1.53-3.74v-109.2c0-7.73 4.72-11.62 13.92-11.62 7.95 0 13.92 4.28 13.92 11.61v109.2c-.43.96-1.24 2.31-1.24 3.74 0 2.98 2.63 5.45 5.6 5.45h14.79c2.98 0 5.19-2.47 5.19-5.45.01-1.42-.79-2.78-1.65-3.74z"/><path id="XMLID_1181_" d="m267 287.8c0-20.58-20.07-18.65-27.08-18.65l-20.89.68c-6.96 0-25.28-.7-25.28 19.08 0 .01-1.35 115.8-1.35 115.8.09 6.14 14.13 9.38 29.49 10.04l8.07-11.72 6.85 11.55c15.86-1.04 29.93-4.81 29.83-11.12l.35-115.7.01-.03z"/><path id="SVGID_3_-5" d="m242.1 268.5c0 6.22-5.04 11.26-11.26 11.26s-11.26-5.04-11.26-11.26v-24.09c0-6.22 5.04-11.26 11.26-11.26s11.26 5.04 11.26 11.26v24.09z"/><path id="XMLID_1356_" d="m262 229.8c0 14.74-11.95 26.69-26.7 26.69h-9.08c-14.74 0-26.69-11.95-26.69-26.69l-3.2-29.9c0-14.74 11.95-26.7 26.69-26.7h15.48c14.74 0 26.7 11.95 26.7 26.7l-3.2 29.9z"/><path id="XMLID_1346_" d="m249.6 215.1c0 2.92-1.93 5.28-4.3 5.28-2.38 0-4.3-2.36-4.3-5.28s1.93-5.28 4.3-5.28 4.3 2.37 4.3 5.28z"/><path id="XMLID_1338_" d="m220.4 215.1c0 2.92-1.93 5.28-4.3 5.28-2.38 0-4.3-2.36-4.3-5.28s1.93-5.28 4.3-5.28 4.3 2.37 4.3 5.28z"/><path id="XMLID_1161_" d="m215.1 336.8c-2.28 0-4.42-.09-6.45-.27-11.48-1.03-19.39-5.15-23.51-12.25-5.19-8.94-3.34-20.78 5.51-35.17 2.03-3.3 5.7-9.21 7.64-11.77 3.27-4.31 10.37 19.24 8.64 22.08-5.87 9.62-5.69 14.23-5.13 15.19.42.72 2.75 2.21 8.59 2.73 8.49.76 20.91-.7 36.91-4.35l3.28 14.38c.56 2.44-1 4.87-3.45 5.39-12.76 2.7-23.33 4.04-32.03 4.04z"/><path id="XMLID_1146_" d="m263.3 342c-2.83 0-5.93-.43-9.31-1.28-9.27-2.35-21.26-7.9-36.63-16.98l8.2-16.07c23.43 13.83 34.12 13.23 37.5 13.3-.23-2.5 3.19-6.11 2.07-17.82-.5-5.27-7.94-28.61-7.94-28.61 4.78-3.68 8.69 3.56 11.62 8.83 1.92 3.46 4.07 7.57 6.07 11.9 5.58 12.09 11.99 29.42 3.13 40.32-3.45 4.27-8.38 6.41-14.71 6.41z"/><path id="SVGID_11_-5" d="m383.3 513.7v-136.6h-69.01v136.6c-.4.91-1.29 2.18-1.29 3.52 0 2.81 2.36 5.14 5.17 5.14h13.94c2.81 0 5.01-2.33 5.01-5.14 0-1.34-.23-2.61-1.44-3.52v-102.9c0-7.28 4.45-10.96 13.12-10.96 7.5 0 13.12 4.04 13.12 10.95v102.9c-.4.91-1.17 2.18-1.17 3.52 0 2.81 2.48 5.14 5.28 5.14h13.94c2.81 0 4.89-2.33 4.89-5.14 0-1.34-.75-2.61-1.56-3.52z"/><path id="XMLID_1527_" d="m384 286.4c0-19.26-18.79-17.45-25.34-17.45l-19.55.64c-6.51 0-23.66-.66-23.66 17.85 0 .01-1.26 96.4-1.26 96.4.09 5.74 13.23 8.78 27.6 9.4l13.96-.16c14.85-.97 28.01-4.5 27.92-10.41l.33-96.24v-.03z"/><path id="SVGID_20_" d="m360.8 268.3c0 5.82-4.72 1.9-10.54 1.9s-10.54 3.92-10.54-1.9v-22.55c0-5.82 4.72-10.54 10.54-10.54s10.54 4.72 10.54 10.54v22.55z"/><path id="XMLID_1492_" d="m334.7 331.7c-2.13 0-4.14-.09-6.04-.26-10.75-.97-18.15-4.82-22.01-11.46-4.86-8.37-3.12-19.45 5.16-32.92 1.9-3.09 5.34-8.62 7.15-11.02 3.06-4.03 9.7 18.01 8.09 20.66-5.49 9-5.33 13.32-4.8 14.22.39.67 2.57 2.07 8.04 2.56 7.95.71 19.57-.66 34.55-4.07l3.07 13.46c.52 2.29-.93 4.56-3.23 5.04-11.94 2.54-21.84 3.79-29.98 3.79z"/><path id="XMLID_1436_" d="m379.8 336.5c-2.64 0-5.55-.4-8.71-1.2-8.68-2.2-19.89-7.39-34.28-15.89l7.68-15.04c21.93 12.95 31.93 12.38 35.09 12.45-.21-2.34 2.99-5.72 1.94-16.68-.47-4.93-7.43-26.77-7.43-26.77 4.47-3.44 8.14 3.33 10.87 8.27 1.79 3.23 3.81 7.08 5.69 11.14 5.23 11.31 11.22 27.53 2.93 37.74-3.24 3.98-7.85 5.98-13.78 5.98z"/><path id="XMLID_1337_" d="m344.5 304.4s-23.48-5.03-22.62 9.99c0 0 .96 4.7 15.06 4.97l7.56-14.96z"/><path id="XMLID_1292_" d="m387.4 316.4s-3.92-5.07-5.18-6.24c-4.36-4.05-17.43-.62-17.43-.62l1.24 5.04s1.55.51 2.9.86c.8.21 1.45.37 1.45.37.39 1.54 6.35 6.76 6.35 6.76.72.86 2.01.99 2.88.27.86-.71.98-1.99.29-2.85l1 1.21c.72.86 2.01.99 2.88.27.71-.59.91-1.57.56-2.39.73.8 1.97.9 2.81.21.84-.73.97-2.02.25-2.89z"/><path id="XMLID_1266_" d="m383.1 229.7c0 14.37-11.65 26.02-26.02 26.02h-8.85c-14.37 0-26.02-11.65-26.02-26.02l-3.12-29.14c0-14.37 11.65-26.02 26.02-26.02h15.09c14.37 0 26.02 11.65 26.02 26.02l-3.12 29.14z"/><path id="XMLID_1256_" d="m372.1 214.5c0 2.84-2.86 5.15-5.17 5.15-2.32 0-4.19-2.3-4.19-5.15 0-2.84 1.88-4.17 4.19-4.17s5.17 1.32 5.17 4.17z"/><path id="XMLID_1248_" d="m342.7 214.5c0 2.84-1.88 5.15-4.19 5.15-2.32 0-5.17-2.3-5.17-5.15 0-2.84 2.86-4.17 5.17-4.17s4.19 1.32 4.19 4.17z"/><path id="XMLID_1242_" d="m363.4 238.6c1.38 0 2.23 1.46 1.5 2.59-2.19 3.37-6.5 8.83-11.46 8.83s-9.27-5.46-11.46-8.83c-.73-1.13.12-2.59 1.5-2.59h19.92z"/><path id="XMLID_1235_" d="m394.5 173.3s-6.28-2.32-12.15-.72c0 0-.65-5.61 11.92-9.74 0 0-19.73-4.98-30.94 5.69 0 0 1.72-10.44 6.34-13.82 0 0-53.36 6.96-53.36 29.78v31.78c0 2.03 1.31 3.9 3.27 4.41 2.82.74 5.53-1.41 5.53-4.15v-21.18c0-.08.33-11.51 8.15-11.51 7.83 0 9.32 5.87 22.67 7.12 10.62.99 13.32-6.75 18.99-5.33 2.99.75 4.97 3.59 4.97 6.67v22.29c0 2.31 1.88 4.32 4.18 4.17 2.22-.14 3.64-2.01 3.64-4.29v-28.67c.99-3.37 1.84-9.13 6.79-12.5z"/><path id="SVGID_8_" d="m208.5 593.3v-138.4h-69.9v138.4c-.41.92-1.3 2.21-1.3 3.57 0 2.84 2.39 5.2 5.23 5.2h14.12c2.84 0 5.07-2.36 5.07-5.2 0-1.36-.24-2.65-1.46-3.57v-104.2c0-7.38 4.51-11.1 13.28-11.1 7.59 0 13.28 4.09 13.28 11.09v104.2c-.41.92-1.18 2.21-1.18 3.57 0 2.84 2.51 5.2 5.35 5.2h14.12c2.84 0 4.96-2.36 4.96-5.2.01-1.36-.75-2.65-1.57-3.57z"/><path id="XMLID_1024_" d="m209.2 359.6c0-19.64-19.16-17.8-25.85-17.8l-19.94.65c-6.64 0-24.13-.67-24.13 18.21 0 .01-1.29 110.6-1.29 110.6.09 5.86 13.49 8.96 28.15 9.59l7.71-11.19 6.54 11.03c15.14-.99 28.57-4.59 28.48-10.62l.34-110.4-.01-.03z"/><path id="SVGID_7_-0" d="m185.5 341.1c0 5.94-4.81 10.75-10.75 10.75s-10.75-4.81-10.75-10.75v-23c0-5.94 4.81-10.75 10.75-10.75s10.75 4.81 10.75 10.75v23z"/><path id="XMLID_1003_" d="m212.4 464.2-13.25-9.37c14.39-20.35 17.49-42.77 9.2-66.64-2.57-7.4-5.89-13.84-8.96-18.91-4.54-7.51-3.14-17.19 3.38-23.07.53.59 13.14 14.69 20.7 36.07 10.22 28.89 6.39 57.22-11.07 81.92z"/><path id="XMLID_1399_" d="m189.7 399.7c-.44-1.14-1.64-1.66-2.7-1.17l-.5.24c0-.03.01-.06.01-.08l.87-.41c1.05-.49 1.56-1.81 1.12-2.95-.32-.84-1.07-1.35-1.87-1.35.94-.55 1.37-1.78.96-2.85-.42-1.09-1.55-1.61-2.57-1.22.63-.67.77-1.89.25-3.03-.62-1.36-1.94-2.06-2.94-1.57l-2.73 1.36c.58-1.31-.53-2.65-2.4-2.26-3.01.63-5.05 4.25-6.03 6.65-.15.27-.27.55-.34.86l-1.34 2.14c-.01.01 0 .05-.01.05-.65 1.03-1.01 2.11-.87 3.48l-6.3 2.77 3.33 9.26 6.63-2.92c2.25 2.23 5.63 1.19 9.09-.49.02-.01.04-.05.06-.06.49-.24.96-.51 1.39-.83l5.76-2.67c1.06-.49 1.56-1.81 1.13-2.95z"/><path id="XMLID_26_" d="m138.9 419c13.58 0 28.27-7.21 30.37-8.27l-5.33-12.81c-8.42 4.26-24.54 9.57-31.91 5.65-1.93-1.03-3.05-2.64-3.64-5.25-2.67-11.8 7.24-23.87 15.33-31.46 5.27-4.94 6.52-13.36 2.95-19.9-.37.25-9.14 6.14-17.25 15.34-11.62 13.17-16.26 26.82-13.4 39.45 1.51 6.67 5.14 11.7 10.5 14.54 3.71 1.95 7.99 2.71 12.38 2.71z"/><path id="XMLID_155_" d="m206.2 300.7c0 14.38-11.66 26.04-26.04 26.04h-8.85c-14.38 0-26.04-11.66-26.04-26.04l-1.89-29.02c0-14.38 10.42-26.18 24.8-26.18h15.1c14.38 0 26.04 11.66 26.04 26.04l-3.12 29.16z"/><path id="XMLID_145_" d="m195.1 285.4c0 2.85-2.86 5.15-5.18 5.15s-4.2-2.31-4.2-5.15c0-2.85 1.88-4.17 4.2-4.17 2.33 0 5.18 1.32 5.18 4.17z"/><path id="XMLID_137_" d="m165.7 285.4c0 2.85-1.88 5.15-4.2 5.15s-5.18-2.31-5.18-5.15c0-2.85 2.86-4.17 5.18-4.17s4.2 1.32 4.2 4.17z"/><path id="XMLID_131_" d="m186.5 309.5c1.38 0 2.23 1.46 1.5 2.59-2.19 3.37-6.5 8.83-11.46 8.83s-9.27-5.46-11.46-8.83c-.73-1.13.12-2.59 1.5-2.59h19.92z"/><path id="XMLID_178_" d="m210.9 268.6c-.02-.53-.14-.98-.16-1.34l-.07-.32c-.01-.08-.04-.16-.04-.24 0-.05-.02-.1-.02-.15-1.42-20.39-23.11-21.87-23.11-21.87-7.85-.44-14.64-6.76-14.74-6.91-1.29-2-2.38-4.5-3.09-6.35-.39-1.01-1.79-.87-2.01.2-.24 1.14-.2 2.15-.07 2.98.08.49-.53.75-.8.34-.35-.54-.7-1.12-1-1.64-.27-.45-.95-.21-.89.31 0 .02 0 .03.01.05.04.37-.42.55-.63.24-.19-.28-.38-.59-.56-.91-.37-.63-1.31-.34-1.28.39.06 1.74.48 3.56.9 4.97.18.61-.59 1.02-.96.51-1.42-1.93-3.16-4.8-4.28-6.71-.45-.76-1.59-.44-1.59.45.01 1.09.17 2.26.34 3.14.08.45-.49.69-.74.31-.29-.44-.57-.96-.81-1.46-.29-.58-1.12-.38-1.14.27-.04 1.65.26 3.29.26 3.29-.29.22-.45.54-.51.87-.12.64-.96.75-1.26.18-.59-1.12-1.11-2.42-1.49-3.49-.27-.77-1.36-.69-1.5.11-.33 1.82-.02 3.72.38 5.19.1.35-.4.54-.54.21-.7-1.57-1.36-3.57-1.84-5.16-.33-1.08-1.86-1.05-2.11.05-.64 2.84.59 5.82 1.51 7.53.13.24-.19.47-.36.26-.68-.84-1.34-1.93-1.81-2.78-.27-.5-1.02-.36-1.09.21-.12.8-.13 1.59-.12 2.16.01.34-.41.51-.62.25-.32-.4-.63-.91-.89-1.38-.27-.51-1.01-.36-1.11.21-.09.52-.11 1.01-.1 1.43.02.6-.61.99-1.13.71l-.03-.02c-.46-.25-1.02.09-1.03.62-.19 5.43 1.6 7.84 3.02 8.88.28.21.06.66-.26.55-.27-.09-.53-.2-.78-.32-.88-.41-1.75.58-1.25 1.43.57.97 1.32 1.75 2.13 2.39 1.39 1.08 1.95 2.96 1.53 4.7-.25 1.05-.18 2.12-.18 3.23 0 0-6.06 64.49 33.94 64.49v-.02c34-.02 34.43-50.3 33.98-62.04zm-27.98 57.73c-.71.13-1.87-.28-3.01-.82-2.14-1.01-4.59-1.03-6.76-.08-1.03.45-2.06.78-2.7.67-28.87-5.13-24.1-49.21-24.1-49.21.15-11.99 3.37-18.92 9.97-19.52.29-.03.76-.02 1.38-.05 1.97-.07 3.91.58 5.48 1.83 3.11 2.46 7.05 5.17 10.29 6l.51.15c1.56.44 3.19.49 4.76.13l1.07-.24c3.25-.8 7.26-3.52 10.39-6.01 1.57-1.24 3.51-1.88 5.48-1.81.62.02 1.09.05 1.38.07 6.6.61 9.82 7.59 9.97 19.58-.01-.02 4.76 44.18-24.11 49.31z"/><path id="SVGID_2_-3" d="m367 593.3v-138.4h69.9v138.4c.41.92 1.3 2.21 1.3 3.57 0 2.84-2.39 5.2-5.23 5.2h-14.12c-2.84 0-5.07-2.36-5.07-5.2 0-1.36.23-2.65 1.46-3.57v-104.2c0-7.38-4.51-11.1-13.28-11.1-7.59 0-13.28 4.09-13.28 11.09v104.2c.41.92 1.18 2.21 1.18 3.57 0 2.84-2.51 5.2-5.35 5.2h-14.12c-2.84 0-4.96-2.36-4.96-5.2-.01-1.36.75-2.65 1.57-3.57z"/><path id="XMLID_1105_" d="m366.3 359.6c0-19.64 19.16-17.8 25.85-17.8l19.94.65c6.64 0 24.13-.67 24.13 18.21 0 .01 1.29 110.6 1.29 110.6-.09 5.86-13.49 8.96-28.15 9.59l-7.71-11.19-6.54 11.03c-15.14-.99-28.57-4.59-28.48-10.62l-.34-110.4.01-.03z"/><path id="SVGID_1_-7" d="m390 341.1c0 5.94 4.81 10.75 10.75 10.75s10.75-4.81 10.75-10.75v-23c0-5.94-4.81-10.75-10.75-10.75s-10.75 4.81-10.75 10.75v23z"/><path id="XMLID_1084_" d="m363.1 464.2 13.25-9.37c-14.39-20.35-17.49-42.77-9.2-66.64 2.57-7.4 5.89-13.84 8.96-18.91 4.54-7.51 3.14-17.19-3.38-23.07-.53.59-13.14 14.69-20.7 36.07-10.23 28.89-6.4 57.22 11.07 81.92z"/><path id="XMLID_338_" d="m407.5 380.4-.38 8.85-.23 5.45-.4 9.04c-.03.68-.58 1.15-1.27 1.17l-13.43.47c-.69.02-1.27-.39-1.34-1.07l-1.03-9.02-.61-5.42-1-8.78 19.69-.69z"/><path id="XMLID_21_" d="m439.6 414.9c-14.54.59-30.55-5.76-32.85-6.7l5.2-12.64c9.19 3.76 26.66 8.21 34.39 4.09 2.02-1.08 3.16-2.69 3.69-5.24 2.4-11.54-8.68-22.8-17.65-29.81-5.83-4.55-7.5-12.66-3.94-19.15.4.22 10.02 5.55 19.08 14.11 12.96 12.26 18.46 25.27 15.89 37.62-1.35 6.52-5.04 11.55-10.67 14.54-3.87 2.07-8.43 2.99-13.14 3.18z"/><path id="XMLID_1066_" d="m368.8 300.6c0 14.5 11.75 26.25 26.25 26.25h8.93c14.5 0 26.25-11.75 26.25-26.25l3.15-29.4c0-14.5-11.75-26.25-26.25-26.25h-15.23c-14.5 0-26.25 11.75-26.25 26.25l3.15 29.4z"/><path id="XMLID_1046_" d="m381 286.2c0 2.87 1.89 5.19 4.23 5.19s4.23-2.33 4.23-5.19c0-2.87-1.89-5.19-4.23-5.19s-4.23 2.32-4.23 5.19z"/><path id="XMLID_1032_" d="m409.7 286.2c0 2.87 1.89 5.19 4.23 5.19s4.23-2.33 4.23-5.19c0-2.87-1.89-5.19-4.23-5.19s-4.23 2.32-4.23 5.19z"/><path id="XMLID_16_" d="m369.8 254.2c.44-13.33 13.98-22.55 27.98-23.02 15-.5 30.53 8.73 31 23.02 0 0 6.16 12.25 5.35 32.67 0 0-.11 6.7-2.13 12.54-.48 1.38-2.31 1.81-3.26.7-.42-.49-.56-1.14-.39-1.74 1.14-4 5.82-23.25-4.82-38.14-2.39-3.35-5.86-5.4-9.53-5.34-1.58.03-3.28.43-4.88 1.54-2.75 1.91-5.96 3.06-9.32 3.06h-1.04c-3.35 0-6.56-1.15-9.32-3.06-1.6-1.11-3.3-1.51-4.88-1.54-3.68-.06-7.14 2-9.53 5.35-10.57 14.8-6.02 33.89-4.84 38.06.14.5.11 1.04-.14 1.49-.79 1.43-2.91 1.26-3.44-.27-2.06-5.87-2.17-12.65-2.17-12.65-.81-20.42 5.36-32.67 5.36-32.67z"/><path id="XMLID_940_" d="m329.5 445.8c0 1.8-.16 3.65-.47 5.36-.32 1.79-.82 3.57-1.45 5.27h-79.4c-.63-1.7-1.13-3.49-1.45-5.27-.31-1.71-.47-3.51-.47-5.31 0 0-1.2-109.5 23.53-109.5 6.33 0 34.27-.04 34.41-.04 27.28 0 25.3 109.5 25.3 109.5z"/><polygon id="XMLID_934_" points="299.6 327.2 288.6 335.5 296 354.2 301.4 335.9"/><polygon id="XMLID_928_" points="277.3 327.2 288.6 335.5 280.8 354.2 275.5 335.9"/><path id="XMLID_977_" d="m319.8 308.9c0 14.23-11.54 16.72-25.77 16.72h-8.76c-14.23 0-25.77-2.49-25.77-16.72l-3.09-37.91c0-14.23 11.54-25.77 25.77-25.77h14.95c14.23 0 25.77 11.54 25.77 25.77l-3.1 37.91z"/><path id="XMLID_973_" d="m296.6 297.2v.74c0 1.75-1.74 3.16-3.89 3.16h-6.01c-2.15 0-3.89-1.41-3.89-3.16v-.74c0-1.64 2.93-15.2 4.06-20.29.25-1.11 1.44-1.92 2.83-1.92s2.59.81 2.83 1.92c1.12 5.09 4.07 18.65 4.07 20.29z"/><path id="XMLID_963_" d="m325.6 231.1s-5.65 9.61-33.03 5.57-38.7 6.06-38.7 21.87c0 4.09.23 6.94 1.14 8.92v19.09c0 1.36.4 2.56 1.04 3.3.94 1.1 1.54 2.45 1.56 3.9.37 35.12 10.35 31.67 20.97 31.67 6.01 0 7.49-.05 24 0 26.16.07 20.29-32.31 19.15-37.65.44-.76.71-1.77.71-2.88v-23.37c2.26-.88 4.85-2.26 7.26-4.28 18.91-15.79-4.1-26.14-4.1-26.14zm-8.73 53.79.04-.01s1.14 18.3-27.09 18.3c-30.07 0-29.52-17.47-29.52-17.47h.12l-.1-14.01s4.11-21.61 17.53-21.61c10.42 0 24.12 13.85 39.02 12.64v22.16z"/><path id="XMLID_953_" d="m307.6 285c0 2.81-1.85 5.08-4.14 5.08s-4.14-2.27-4.14-5.08 1.85-5.08 4.14-5.08c2.28 0 4.14 2.27 4.14 5.08z"/><path id="XMLID_943_" d="m279.5 285c0 2.81-1.85 5.08-4.14 5.08s-4.14-2.27-4.14-5.08 1.85-5.08 4.14-5.08 4.14 2.27 4.14 5.08z"/><path id="XMLID_925_" d="m309.4 279.9-9.64-2.93c-1.93-.59-3.02-2.62-2.43-4.55l.08-.28c.59-1.93 2.62-3.02 4.55-2.43l9.64 2.93c1.93.59 3.02 2.62 2.43 4.55l-.08.28c-.58 1.93-2.62 3.01-4.55 2.43z"/><path id="XMLID_919_" d="m270.5 279.9 9.64-2.93c1.93-.59 3.02-2.62 2.43-4.55l-.08-.28c-.59-1.93-2.62-3.02-4.55-2.43l-9.64 2.93c-1.93.59-3.02 2.62-2.43 4.55l.08.28c.59 1.93 2.63 3.01 4.55 2.43z"/><path id="XMLID_6_" d="m337.6 411.2h-101c-3.08 0-5.57-2.49-5.57-5.57v-61.82c0-3.08 2.49-5.57 5.57-5.57h100.9c3.08 0 5.57 2.49 5.57 5.57v61.82c0 3.08-2.49 5.57-5.56 5.57z"/><polygon id="XMLID_992_" points="124.9 413.3 40.64 413.5 42.36 404.6 70.54 402.5 47.17 402.9 46.14 392.2 49.4 392.1 50.41 375.9 56.32 376 58.87 365 120.9 368.9 119.6 377.7 128.6 377.9 128.6 389 133.9 388.8 133.9 399.8 109.1 402.2 124.9 402.4"/></defs>
<style type="text/css">.custom-controls {
height: 64px;
fill: #fff;
}
.control-icon {
opacity: 0;
animation: icon-fade-in-out 3s ease-in-out infinite;
animation-fill-mode: forwards;
}
.stop {
animation-delay: .1s;
}
.play {
animation-delay: .4s;
}
.gamepad {
animation-delay: .7s;
padding: 0 0 0 20px;
}
@keyframes icon-fade-in-out {
0% {
opacity: 0;
}
10% {
opacity: 1;
}
80% {
opacity: 1;
}
90% {
opacity: 0;
}
100% {
opacity: 0;
}
}</style>
<g transform="matrix(.4208 0 0 .4326 131.3 -91.36)">
<clipPath id="SVGID_2_">
<use width="100%" height="100%" xlink:href="#SVGID_1_"/>
</clipPath>
</g><g transform="matrix(.4768 0 0 .4841 91.99 -99.98)" clip-path="url(#SVGID_2_)">
<linearGradient id="SVGID_10_" x1="950" x2="1048" y1="1478" y2="1478" gradientUnits="userSpaceOnUse">
<stop stop-color="#D3A7C6" offset="0"/>
<stop stop-color="#C481BE" offset="1"/>
</linearGradient>

<path d="m476.1 696.7v-413.5h1339v826.9h-1339z" fill="#f7ffff" stroke-width="2.082" style="paint-order:stroke fill markers"/><path d="m586.1 562.8 83.82-249.1v650l-78.71-330.2z" fill="#e7f5ff"/><path d="m456.9 245.3c-10.62 0-19.24 8.483-19.24 18.95v864.8c.002 10.46 8.615 18.94 19.24 18.94h622.7l-1.435 156.5c-.08 8.676-5.814 16.4-10.85 16.4h-338.9v43.72h843.5v-43.72s-226.2-.5391-339.3 0c-6.602-2.373-10.22-8.858-10.34-16.01.042-52.29-.3586-156.9-.3586-156.9h613c10.62 0 19.24-8.48 19.24-18.94v-864.8c0-10.46-8.613-18.95-19.24-18.95zm19.23 37.89h1340v826.9h-1340z" color="#000000" fill="#1f2024" font-weight="400" overflow="visible" solid-color="#000000" stroke-width="2.082" style="font-feature-settings:normal;font-variant-alternates:normal;font-variant-caps:normal;font-variant-ligatures:normal;font-variant-numeric:normal;font-variant-position:normal;isolation:auto;mix-blend-mode:normal;paint-order:stroke fill markers;shape-padding:0;text-decoration-color:#000000;text-decoration-line:none;text-decoration-style:solid;text-indent:0;text-orientation:mixed;text-transform:none;white-space:normal"/><rect x="1272" y="1450" width="68.69" height="70.75" fill="#eff2f4" style="paint-order:fill markers stroke"/><rect x="1383" y="1453" width="68.69" height="70.75" fill="#eff2f4" style="paint-order:fill markers stroke"/><rect x="979.8" y="1461" width="101.2" height="70.75" fill="#485560" style="paint-order:fill markers stroke"/><rect x="1073" y="1440" width="201.9" height="86.25" fill="#689cbe" style="paint-order:fill markers stroke"/><rect x="475.9" y="1037" width="1340" height="75.19" fill="#778486" style="paint-order:fill markers stroke"/><rect x="669.9" y="313.8" width="1078" height="650" fill="#d5dada" style="paint-order:fill markers stroke"/><rect x="849.3" y="470.1" width="701.5" height="493.7" fill="#fff" style="paint-order:fill markers stroke"/><rect x="669.9" y="313.8" width="1078" height="42.36" fill="#fff" style="paint-order:fill markers stroke"/><rect x="669.9" y="356.1" width="1078" height="85.68" fill="#c2dbed" style="paint-order:fill markers stroke"/><g fill="#b4d3e9"><rect x="686.7" y="361.9" width="127.6" height="75.68" style="paint-order:fill markers stroke"/><rect x="820.9" y="361.9" width="116.1" height="75.38" style="paint-order:fill markers stroke"/><rect x="943.4" y="361.9" width="139.4" height="75.38" style="paint-order:fill markers stroke"/><rect x="1089" y="361.9" width="134.2" height="75.38" style="paint-order:fill markers stroke"/><rect x="1224" y="361.9" width="127.6" height="75.38" style="paint-order:fill markers stroke"/><rect x="1358" y="361.9" width="127.6" height="75.38" style="paint-order:fill markers stroke"/><rect x="1486" y="361.9" width="134.2" height="75.38" style="paint-order:fill markers stroke"/><rect x="1628" y="361.9" width="107.2" height="75.38" style="paint-order:fill markers stroke"/></g><g fill="none" stroke="#b6bdbd" stroke-linecap="round" stroke-linejoin="round"><path d="m1724 324.3-22.23 21.27" stroke-width="1.474px"/><path d="m1702 324.4 22.21 21.26" stroke-width="1.455"/><path d="m1676 345.7h-23.35l-.1384-20.48 23.36-.1225z" stroke-width="1.559px"/><path d="m1602 345.6 31.63.0777" stroke-width="1.676px"/></g><g fill="#3d4f91"><g transform="matrix(3.017 0 0 2.867 507.9 331.5)" opacity=".517"><g fill="#3d4f91">
<path d="m22.4 31v-4.514c0-.938.758-1.699 1.697-1.699l3.498-.1z"/>
<path d="m25.9 0h-20.79c-.941 0-1.699.76-1.699 1.695v27.61c0 .938.759 1.697 1.699 1.697h15.6v-6.02c0-.936.762-1.697 1.699-1.697h5.185v-21.59c-.001-.935-.758-1.695-1.697-1.695zm-1.141 14.51c0 .266-.293.484-.656.484h-17.54c-.363 0-.658-.219-.658-.484v-.807c0-.268.295-.484.658-.484h17.54c.363 0 .656.217.656.484zm0 3.478c0 .27-.293.484-.656.484h-17.54c-.363 0-.658-.215-.658-.484v-.805c0-.268.295-.486.658-.486h17.54c.363 0 .656.219.656.486zm0 3.551c0 .268-.293.484-.656.484h-17.54c-.363 0-.658-.217-.658-.484v-.807c0-.268.295-.486.658-.486h17.54c.363 0 .656.219.656.486zm-8.917 3.516c0 .266-.155.48-.347.48h-9.238c-.192 0-.348-.215-.348-.48v-.809c0-.266.155-.484.348-.484h9.238c.191 0 .347.219.347.484zm-3.476-13.66-1.684-5.975-1.906 5.975h-.687s-2.551-7.621-2.759-7.902c-.134-.194-.338-.331-.609-.413v-.334h3.783v.334c-.257 0-.434.041-.529.125s-.144.18-.144.287c0 .102 1.354 4.193 1.354 4.193l1.058-3.279s-.379-.947-.499-1.072c-.121-.121-.308-.207-.56-.254v-.334h3.84v.334c-.301.018-.489.065-.569.137-.08.076-.12.182-.12.32 0 .131 1.291 4.148 1.291 4.148s1.171-3.74 1.171-3.896c0-.234-.051-.404-.153-.514-.101-.107-.299-.172-.592-.195v-.334h2.22v.334c-.245.035-.442.133-.585.291-.146.158-2.662 8.023-2.662 8.023h-.66v.001zm12.57-6.721c0 .266-.131.482-.293.482h-7.79c-.162 0-.293-.217-.293-.482v-.809c0-.266.131-.482.293-.482h7.79c.162 0 .293.217.293.482zm.064 5.992c0 .268-.131.48-.292.48h-7.791c-.164 0-.293-.213-.293-.48v-.808c0-.266.129-.484.293-.484h7.791c.161 0 .292.219.292.484zm-.032-2.986c0 .268-.129.482-.293.482h-7.79c-.162 0-.293-.215-.293-.482v-.807c0-.268.131-.484.293-.484h7.79c.164 0 .293.217.293.484z"/>
</g></g><g transform="matrix(3.017 0 0 2.867 507.9 447.1)" opacity=".517"><g fill="#3d4f91"><path d="m22.4 31v-4.514c0-.938.758-1.699 1.697-1.699l3.498-.1z"/><path d="m25.9 0h-20.79c-.941 0-1.699.76-1.699 1.695v27.61c0 .938.759 1.697 1.699 1.697h15.6v-6.02c0-.936.762-1.697 1.699-1.697h5.185v-21.59c-.001-.935-.758-1.695-1.697-1.695zm-1.141 14.51c0 .266-.293.484-.656.484h-17.54c-.363 0-.658-.219-.658-.484v-.807c0-.268.295-.484.658-.484h17.54c.363 0 .656.217.656.484zm0 3.478c0 .27-.293.484-.656.484h-17.54c-.363 0-.658-.215-.658-.484v-.805c0-.268.295-.486.658-.486h17.54c.363 0 .656.219.656.486zm0 3.551c0 .268-.293.484-.656.484h-17.54c-.363 0-.658-.217-.658-.484v-.807c0-.268.295-.486.658-.486h17.54c.363 0 .656.219.656.486zm-8.917 3.516c0 .266-.155.48-.347.48h-9.238c-.192 0-.348-.215-.348-.48v-.809c0-.266.155-.484.348-.484h9.238c.191 0 .347.219.347.484zm-3.476-13.66-1.684-5.975-1.906 5.975h-.687s-2.551-7.621-2.759-7.902c-.134-.194-.338-.331-.609-.413v-.334h3.783v.334c-.257 0-.434.041-.529.125s-.144.18-.144.287c0 .102 1.354 4.193 1.354 4.193l1.058-3.279s-.379-.947-.499-1.072c-.121-.121-.308-.207-.56-.254v-.334h3.84v.334c-.301.018-.489.065-.569.137-.08.076-.12.182-.12.32 0 .131 1.291 4.148 1.291 4.148s1.171-3.74 1.171-3.896c0-.234-.051-.404-.153-.514-.101-.107-.299-.172-.592-.195v-.334h2.22v.334c-.245.035-.442.133-.585.291-.146.158-2.662 8.023-2.662 8.023h-.66v.001zm12.57-6.721c0 .266-.131.482-.293.482h-7.79c-.162 0-.293-.217-.293-.482v-.809c0-.266.131-.482.293-.482h7.79c.162 0 .293.217.293.482zm.064 5.992c0 .268-.131.48-.292.48h-7.791c-.164 0-.293-.213-.293-.48v-.808c0-.266.129-.484.293-.484h7.791c.161 0 .292.219.292.484zm-.032-2.986c0 .268-.129.482-.293.482h-7.79c-.162 0-.293-.215-.293-.482v-.807c0-.268.131-.484.293-.484h7.79c.164 0 .293.217.293.484z"/></g></g><g transform="matrix(3.017 0 0 2.867 507.9 562.8)" opacity=".52"><g fill="#3d4f91"><path d="m22.4 31v-4.514c0-.938.758-1.699 1.697-1.699l3.498-.1z"/><path d="m25.9 0h-20.79c-.941 0-1.699.76-1.699 1.695v27.61c0 .938.759 1.697 1.699 1.697h15.6v-6.02c0-.936.762-1.697 1.699-1.697h5.185v-21.59c-.001-.935-.758-1.695-1.697-1.695zm-1.141 14.51c0 .266-.293.484-.656.484h-17.54c-.363 0-.658-.219-.658-.484v-.807c0-.268.295-.484.658-.484h17.54c.363 0 .656.217.656.484zm0 3.478c0 .27-.293.484-.656.484h-17.54c-.363 0-.658-.215-.658-.484v-.805c0-.268.295-.486.658-.486h17.54c.363 0 .656.219.656.486zm0 3.551c0 .268-.293.484-.656.484h-17.54c-.363 0-.658-.217-.658-.484v-.807c0-.268.295-.486.658-.486h17.54c.363 0 .656.219.656.486zm-8.917 3.516c0 .266-.155.48-.347.48h-9.238c-.192 0-.348-.215-.348-.48v-.809c0-.266.155-.484.348-.484h9.238c.191 0 .347.219.347.484zm-3.476-13.66-1.684-5.975-1.906 5.975h-.687s-2.551-7.621-2.759-7.902c-.134-.194-.338-.331-.609-.413v-.334h3.783v.334c-.257 0-.434.041-.529.125s-.144.18-.144.287c0 .102 1.354 4.193 1.354 4.193l1.058-3.279s-.379-.947-.499-1.072c-.121-.121-.308-.207-.56-.254v-.334h3.84v.334c-.301.018-.489.065-.569.137-.08.076-.12.182-.12.32 0 .131 1.291 4.148 1.291 4.148s1.171-3.74 1.171-3.896c0-.234-.051-.404-.153-.514-.101-.107-.299-.172-.592-.195v-.334h2.22v.334c-.245.035-.442.133-.585.291-.146.158-2.662 8.023-2.662 8.023h-.66v.001zm12.57-6.721c0 .266-.131.482-.293.482h-7.79c-.162 0-.293-.217-.293-.482v-.809c0-.266.131-.482.293-.482h7.79c.162 0 .293.217.293.482zm.064 5.992c0 .268-.131.48-.292.48h-7.791c-.164 0-.293-.213-.293-.48v-.808c0-.266.129-.484.293-.484h7.791c.161 0 .292.219.292.484zm-.032-2.986c0 .268-.129.482-.293.482h-7.79c-.162 0-.293-.215-.293-.482v-.807c0-.268.131-.484.293-.484h7.79c.164 0 .293.217.293.484z"/></g></g><g transform="matrix(3.017 0 0 2.867 507.9 678.5)" opacity=".514"><g fill="#3d4f91"><path d="m22.4 31v-4.514c0-.938.758-1.699 1.697-1.699l3.498-.1z"/><path d="m25.9 0h-20.79c-.941 0-1.699.76-1.699 1.695v27.61c0 .938.759 1.697 1.699 1.697h15.6v-6.02c0-.936.762-1.697 1.699-1.697h5.185v-21.59c-.001-.935-.758-1.695-1.697-1.695zm-1.141 14.51c0 .266-.293.484-.656.484h-17.54c-.363 0-.658-.219-.658-.484v-.807c0-.268.295-.484.658-.484h17.54c.363 0 .656.217.656.484zm0 3.478c0 .27-.293.484-.656.484h-17.54c-.363 0-.658-.215-.658-.484v-.805c0-.268.295-.486.658-.486h17.54c.363 0 .656.219.656.486zm0 3.551c0 .268-.293.484-.656.484h-17.54c-.363 0-.658-.217-.658-.484v-.807c0-.268.295-.486.658-.486h17.54c.363 0 .656.219.656.486zm-8.917 3.516c0 .266-.155.48-.347.48h-9.238c-.192 0-.348-.215-.348-.48v-.809c0-.266.155-.484.348-.484h9.238c.191 0 .347.219.347.484zm-3.476-13.66-1.684-5.975-1.906 5.975h-.687s-2.551-7.621-2.759-7.902c-.134-.194-.338-.331-.609-.413v-.334h3.783v.334c-.257 0-.434.041-.529.125s-.144.18-.144.287c0 .102 1.354 4.193 1.354 4.193l1.058-3.279s-.379-.947-.499-1.072c-.121-.121-.308-.207-.56-.254v-.334h3.84v.334c-.301.018-.489.065-.569.137-.08.076-.12.182-.12.32 0 .131 1.291 4.148 1.291 4.148s1.171-3.74 1.171-3.896c0-.234-.051-.404-.153-.514-.101-.107-.299-.172-.592-.195v-.334h2.22v.334c-.245.035-.442.133-.585.291-.146.158-2.662 8.023-2.662 8.023h-.66v.001zm12.57-6.721c0 .266-.131.482-.293.482h-7.79c-.162 0-.293-.217-.293-.482v-.809c0-.266.131-.482.293-.482h7.79c.162 0 .293.217.293.482zm.064 5.992c0 .268-.131.48-.292.48h-7.791c-.164 0-.293-.213-.293-.48v-.808c0-.266.129-.484.293-.484h7.791c.161 0 .292.219.292.484zm-.032-2.986c0 .268-.129.482-.293.482h-7.79c-.162 0-.293-.215-.293-.482v-.807c0-.268.131-.484.293-.484h7.79c.164 0 .293.217.293.484z"/></g></g></g><g transform="matrix(.1669 0 0 .1715 559.9 613.6)" fill="#fff" stroke="#000" stroke-width="12.3"><g fill="#fff" stroke="#000">
<path d="m294.1 251.2-59.1-59.11 42.17-24.36c3.295-1.904 5.213-5.521 4.938-9.316-.273-3.796-2.69-7.101-6.225-8.51l-188-75c-3.687-1.472-7.895-.605-10.7 2.201-2.807 2.808-3.674 7.016-2.203 10.7l74.99 188.1c1.41 3.534 4.715 5.952 8.511 6.226 3.796.276 7.413-1.643 9.316-4.939l24.35-42.17 59.1 59.11c1.862 1.864 4.389 2.91 7.023 2.91s5.16-1.046 7.022-2.91l28.84-28.84c3.879-3.879 3.879-10.17 0-14.05zm-35.86 21.82-61.23-61.24c-1.876-1.876-4.407-2.91-7.023-2.91-.43 0-.864.028-1.295.085-3.063.402-5.763 2.206-7.306 4.881l-20.58 35.64-58.85-147.6 147.5 58.86-35.64 20.59c-2.674 1.543-4.478 4.243-4.88 7.306-.403 3.06.64 6.134 2.824 8.318l61.23 61.24z" stroke-width="12.3"/><g stroke-width="6.151">
<path d="m19.32 1.218c-5.201-4.815-13.63-4.815-18.83 0-5.2 4.82-5.2 12.63 0 17.45l29.58 27.41c2.599 2.407 6.008 3.614 9.416 3.614 3.406 0 6.812-1.206 9.414-3.614 5.198-4.818 5.198-12.63 0-17.45z"/>
<path d="m29.35 86.51c0-6.813-5.963-12.34-13.32-12.34h-41.84c-7.351 0-13.32 5.522-13.32 12.34 0 6.812 5.963 12.34 13.32 12.34h41.84c7.353-1e-3 13.32-5.525 13.32-12.34z"/>
<path d="m23.95 124.6-29.59 27.42c-5.201 4.816-5.201 12.63 0 17.45 2.599 2.409 6.004 3.614 9.414 3.614 3.406 0 6.812-1.205 9.412-3.614l29.59-27.42c5.2-4.817 5.2-12.63 0-17.45-5.197-4.817-13.63-4.817-18.83 0z"/>
<path d="m92.53 27.96c7.351 0 13.31-5.525 13.31-12.34v-38.77c0-6.812-5.961-12.34-13.31-12.34-7.353 0-13.31 5.524-13.31 12.34v38.77c0 6.812 5.959 12.34 13.31 12.34z"/>
<path d="m143 44.02c3.41 0 6.816-1.202 9.416-3.612l29.58-27.41c5.201-4.818 5.201-12.63 0-17.45-5.198-4.818-13.63-4.818-18.83 0l-29.58 27.41c-5.2 4.817-5.2 12.63 0 17.45 2.599 2.41 6.007 3.612 9.413 3.612z"/>
</g></g></g><path d="m574.6 628.6 11.18 31.31 5.4-6.702 1.446-.9574 10.8 11.11 5.11-4.979-11.67-12.06 5.207-4.117 3.085-1.819z" fill="#fff"/></g><g transform="matrix(1.429 0 0 1.424 276.9 42.19)">

<clipPath id="XMLID_31_">
<use width="100%" height="100%" xlink:href="#XMLID_3_"/>
</clipPath>

<g class="st2" clip-path="url(#XMLID_31_)">
<g transform="translate(-31.11 2.828)">






<clipPath id="SVGID_5_">
<use width="100%" height="100%" xlink:href="#SVGID_4_-5"/>
</clipPath>











<clipPath id="XMLID_341_">
<use width="100%" height="100%" xlink:href="#XMLID_1181_"/>
</clipPath>
<path class="st8" d="m267 287.8c0-20.58-20.07-18.65-27.08-18.65l-20.89.68c-6.96 0-25.28-.7-25.28 19.08 0 .01-1.35 115.8-1.35 115.8.09 6.14 14.13 9.38 29.49 10.04l8.07-11.72 6.85 11.55c15.86-1.04 29.93-4.81 29.83-11.12l.35-115.7z" clip-path="url(#XMLID_341_)" fill="#485560" stroke="#3a444d"/><g fill="#39454c">

<path class="st10" d="m228.9 316.4h1.82v88.88h-1.82z" clip-path="url(#XMLID_341_)"/>
<path class="st10" d="m248.4 267.4s4.22 4.22 3.28 14.21-3.44 12.49-3.44 12.49l-5.31-.31 7.34 4.53s-17.9 38.98-20.14 38.98l.84-70.54z" clip-path="url(#XMLID_341_)"/>
<path class="st10" d="m213 267.4s-4.22 4.22-3.28 14.21 3.44 12.49 3.44 12.49l5.31-.31-7.34 4.53s17.71 39.01 19.05 39.01l.51-70.87z" clip-path="url(#XMLID_341_)"/>
</g><path class="st11" d="m243.7 268.4c0 7.09-12.84 42.81-12.84 42.81.04-.04-12.84-35.72-12.84-42.81v-27.47c0-7.09 5.75-12.84 12.84-12.84s12.84 5.75 12.84 12.84z" clip-path="url(#XMLID_341_)" fill="#d3d6db"/>



<clipPath id="SVGID_6_">
<use width="100%" height="100%" xlink:href="#SVGID_3_-5"/>
</clipPath>
<path class="st12" d="m242.1 268.5c0 6.22-5.04 11.26-11.26 11.26s-11.26-5.04-11.26-11.26v-24.09c0-6.22 5.04-11.26 11.26-11.26s11.26 5.04 11.26 11.26z" clip-path="url(#SVGID_6_)" fill="#fdb199"/>


<path class="st14" d="m242.2 265.5-10.97 10.6s9.26 14.51 9.3 14.34c3.32-13.93 3.32-21.25 3.32-21.25z" fill="#eff0f4"/>
<path class="st14" d="m219.7 266.3 11.44 9.74s-9.61 15.27-9.65 15.11c-2.4-8.82-3.44-21.17-3.44-21.17z" fill="#eff0f4"/>
<polygon class="st15" points="230.5 327.8 234.7 300.3 233.9 290.1 238.1 286.8 231.1 276.1 224.5 286.5 228.3 289.8 227 300.1" fill="#a29fb7"/>



<path class="st16" d="m269 228c0 1.95-1.58 3.53-3.53 3.53h-7.05c-1.95 0-3.53-1.58-3.53-3.53v-7.05c0-1.95 1.58-3.53 3.53-3.53h7.05c1.95 0 3.53 1.58 3.53 3.53z" fill="#e5a495"/>

<path class="st16" d="m206.6 228c0 1.95-1.58 3.53-3.53 3.53h-7.05c-1.95 0-3.53-1.58-3.53-3.53v-7.05c0-1.95 1.58-3.53 3.53-3.53h7.05c1.95 0 3.53 1.58 3.53 3.53z" fill="#e5a495"/>



<clipPath id="XMLID_342_">
<use width="100%" height="100%" xlink:href="#XMLID_1356_"/>
</clipPath>
<path class="st18" d="m262 229.8c0 14.74-11.95 26.69-26.7 26.69h-9.08c-14.74 0-26.69-11.95-26.69-26.69l-3.2-29.9c0-14.74 11.95-26.7 26.69-26.7h15.48c14.74 0 26.7 11.95 26.7 26.7z" clip-path="url(#XMLID_342_)" fill="#ffb9a4"/>




<path class="st16" d="m236.6 225.7v.6049c0 1.415-1.47 2.56-3.27 2.56h-5.06c-1.81 0-3.27-1.145-3.27-2.56v-.6049c0-1.318 2.46-12.28 3.42-16.4.21-.8965 1.21-1.555 2.38-1.555s2.18.6481 2.38 1.555c.95 4.115 3.42 15.07 3.42 16.4z" fill="#e5a495" stroke-width="1.039"/>


<clipPath id="XMLID_345_">
<use width="100%" height="100%" xlink:href="#XMLID_1346_"/>
</clipPath>
<path class="st21" d="m249.6 215.1c0 2.92-1.93 5.28-4.3 5.28-2.38 0-4.3-2.36-4.3-5.28s1.93-5.28 4.3-5.28 4.3 2.37 4.3 5.28z" clip-path="url(#XMLID_345_)" fill="#fff"/>
<g class="st22" clip-path="url(#XMLID_345_)">
<path class="st23" d="m248.6 217.6c0 1.74-1.15 3.15-2.57 3.15s-2.57-1.41-2.57-3.15 1.15-3.15 2.57-3.15 2.57 1.41 2.57 3.15z" fill="#180406"/>
<path class="st24" d="m246.7 216.1c0 .8-.53 1.45-1.18 1.45s-1.18-.65-1.18-1.45.53-1.45 1.18-1.45 1.18.65 1.18 1.45z" fill="#fff"/>
</g>

<rect class="st25" x="238.3" y="207.5" width="12.17" height="6.63" clip-path="url(#XMLID_345_)" fill="#e5a495"/>



<clipPath id="XMLID_346_">
<use width="100%" height="100%" xlink:href="#XMLID_1338_"/>
</clipPath>
<path class="st26" d="m220.4 215.1c0 2.92-1.93 5.28-4.3 5.28-2.38 0-4.3-2.36-4.3-5.28s1.93-5.28 4.3-5.28 4.3 2.37 4.3 5.28z" clip-path="url(#XMLID_346_)" fill="#fff"/>
<g class="st27" clip-path="url(#XMLID_346_)">
<path class="st23" d="m219.4 217.6c0 1.74-1.15 3.15-2.57 3.15s-2.57-1.41-2.57-3.15 1.15-3.15 2.57-3.15 2.57 1.41 2.57 3.15z"/>
<path class="st24" d="m217.6 216.1c0 .8-.53 1.45-1.18 1.45s-1.18-.65-1.18-1.45.53-1.45 1.18-1.45 1.18.65 1.18 1.45z" fill="#fff"/>
</g>
<rect class="st28" x="209.5" y="207.5" width="12.17" height="6.63" clip-path="url(#XMLID_346_)" fill="#e5a495"/>



<path class="st29" d="m202.5 192-2.55-6.62c-.61.3-1.13 1.19-1.58 2.47h-.01c-1.55 0-2.81 1.26-2.81 2.81 0 .67.24 1.27.63 1.75-.65.44-1.08 1.18-1.08 2.03 0 .7.29 1.32.76 1.77-1.35.27-2.36 1.46-2.36 2.89 0 1.07.58 2 1.43 2.52-.87.36-1.49 1.22-1.49 2.23 0 .91.51 1.69 1.25 2.1-.86.48-1.46 1.39-1.46 2.45 0 1.18.73 2.19 1.77 2.61-.9.65-1.48 1.7-1.48 2.88 0 1.85 1.41 3.36 3.21 3.54.61 3.59 1.51 6.79 2.2 8.96.41 1.28 2.09 1.57 2.92.51.3-.39.41-.89.32-1.37-1.74-8.47.33-33.53.33-33.53z" fill="#916b51"/>
<path class="st29" d="m260.7 192 2.55-6.62c.61.3 1.13 1.19 1.58 2.47h.01c1.55 0 2.81 1.26 2.81 2.81 0 .67-.24 1.27-.63 1.75.65.44 1.08 1.18 1.08 2.03 0 .7-.29 1.32-.76 1.77 1.35.27 2.36 1.46 2.36 2.89 0 1.07-.58 2-1.43 2.52.87.36 1.49 1.22 1.49 2.23 0 .91-.51 1.69-1.25 2.1.86.48 1.46 1.39 1.46 2.45 0 1.18-.73 2.19-1.77 2.61.9.65 1.48 1.7 1.48 2.88 0 1.85-1.41 3.36-3.21 3.54-.61 3.59-1.51 6.79-2.2 8.96-.41 1.28-2.09 1.57-2.92.51-.3-.39-.41-.89-.32-1.37 1.75-8.47-.33-33.53-.33-33.53z" fill="#916b51"/>
<path class="st30" d="m260.9 177.8c.93-1.29 1.48-2.87 1.48-4.58 0-4.35-3.53-7.87-7.87-7.87-1.99 0-3.81.75-5.2 1.97-.23-3.88-3.44-6.96-7.38-6.96-2.08 0-3.95.86-5.3 2.24-1.45-2.3-4.01-3.84-6.93-3.84-2.51 0-4.75 1.13-6.26 2.91-1.39-1.08-3.12-1.72-5.01-1.72-3.79 0-6.98 2.58-7.9 6.09-.51-.1-1.04-.16-1.58-.16-4.52 0-8.19 3.67-8.19 8.19 0 .72.1 1.41.28 2.08-2.92.99-5.02 3.75-5.02 7.01 0 3.31 2.17 6.11 5.17 7.06 1.12 2.17 3.39 3.66 6 3.66 2.47 0 4.63-1.33 5.8-3.31 1.2 2.62 3.85 4.45 6.92 4.45 3.11 0 5.78-1.87 6.97-4.54 1.3 2.35 3.8 3.94 6.67 3.94 2.4 0 4.55-1.12 5.94-2.86 1.23 1.88 3.35 3.13 5.76 3.13 2.99 0 5.52-1.91 6.47-4.57 1.46 2.08 3.87 3.43 6.61 3.43 4.47 0 8.08-3.62 8.08-8.08.01-3.57-2.3-6.59-5.51-7.67z" fill="#a0765a"/>
<path class="st29" d="m248.5 203.7h-6.74c-1.4 0-2.53-1.13-2.53-2.53s1.13-2.53 2.53-2.53h6.74c1.4 0 2.53 1.13 2.53 2.53s-1.13 2.53-2.53 2.53z" fill="#916b51"/>
<path class="st29" d="m219.5 208.3h-6.74c-1.4 0-2.53-1.13-2.53-2.53s1.13-2.53 2.53-2.53h6.74c1.4 0 2.53 1.13 2.53 2.53s-1.14 2.53-2.53 2.53z" fill="#916b51"/>

<path class="st32" d="m227.7 241.5c-.26 0-.51-.1-.7-.31-.36-.39-.33-.99.05-1.35 1.45-1.34 5.08-3.16 8.43-.47.41.33.48.93.15 1.34s-.93.48-1.34.15c-2.92-2.35-5.82.27-5.94.38-.19.17-.42.26-.65.26z" fill="#c68d85"/>





<clipPath id="XMLID_347_">
<use width="100%" height="100%" xlink:href="#XMLID_1161_"/>
</clipPath>
<path class="st33" d="m215.1 336.8c-2.28 0-4.42-.09-6.45-.27-11.48-1.03-19.39-5.15-23.51-12.25-5.19-8.94-3.34-20.78 5.51-35.17 2.03-3.3 5.7-9.21 7.64-11.77 3.27-4.31 10.37 19.24 8.64 22.08-5.87 9.62-5.69 14.23-5.13 15.19.42.72 2.75 2.21 8.59 2.73 8.49.76 20.91-.7 36.91-4.35l4.28 18.79c-14.77 3.36-26.79 5.02-36.48 5.02z" clip-path="url(#XMLID_347_)" fill="#515f6c"/>





<clipPath id="XMLID_348_">
<use width="100%" height="100%" xlink:href="#XMLID_1146_"/>
</clipPath>
<path class="st35" d="m263.3 342c-2.83 0-5.93-.43-9.31-1.28-9.27-2.35-21.26-7.9-36.63-16.98l8.2-16.07c23.43 13.83 34.12 13.23 37.5 13.3-.23-2.5 1.42-8.25 1.42-20.01 0-4.93-7.28-26.41-7.28-26.41 4.78-3.68 8.69 3.56 11.62 8.83 1.92 3.46 4.07 7.57 6.07 11.9 5.58 12.09 11.99 29.42 3.13 40.32-3.46 4.26-8.39 6.4-14.72 6.4z" clip-path="url(#XMLID_348_)" fill="#485560"/>


<path class="st37" d="m225.6 307.6s-25.09-5.38-24.17 10.67c0 0 1.02 5.03 16.09 5.31z" fill="#ffb9a4"/>

<path class="st37" d="m271.4 320.4s-4.18-5.41-5.54-6.67c-4.65-4.32-18.62-.66-18.62-.66l1.32 5.38s1.65.55 3.1.92c.85.22 1.55.39 1.55.39.42 1.64 6.78 7.23 6.78 7.23.77.92 2.15 1.05 3.07.29s1.05-2.12.3-3.05l1.07 1.29c.77.92 2.15 1.05 3.07.29.76-.63.97-1.68.6-2.55.78.86 2.1.96 3 .22.94-.78 1.07-2.16.3-3.08z" fill="#ffb9a4"/>









<clipPath id="SVGID_9_">
<use width="100%" height="100%" xlink:href="#SVGID_11_-5"/>
</clipPath>













<clipPath id="XMLID_351_">
<use width="100%" height="100%" xlink:href="#XMLID_1527_"/>
</clipPath>
<path class="st43" d="m384 286.4c0-19.26-18.79-17.45-25.34-17.45l-19.55.64c-6.51 0-23.66-.66-23.66 17.85 0 .01-1.26 96.4-1.26 96.4.0508 3.242 4.263 5.622 10.51 7.192 4.814 1.21 10.84 1.938 17.09 2.208l13.96-.16c14.85-.97 28.01-4.5 27.92-10.41l.33-96.24z" clip-path="url(#XMLID_351_)" fill="#e8ecef"/>





<clipPath>
<use width="100%" height="100%" xlink:href="#SVGID_20_"/>
</clipPath>
<path class="st46" d="m360.8 268.3c0 5.82-4.72 1.94-10.54 1.94s-10.54 3.88-10.54-1.94v-22.55c0-5.82 4.72-10.54 10.54-10.54s10.54 4.72 10.54 10.54z" clip-path="url(#SVGID_10_)" fill="#fdb199"/><g fill="#f4f6f8">


<path class="st48" d="m350.6 270.2c0 .33-8.92 14.68-8.92 14.68l-7.83-15.23 5.9-9.33z"/>
<path class="st48" d="m350.2 270.2c0 .33 8.92 14.68 8.92 14.68l7.45-15.76-5.75-8.8z"/>






<path class="st48" d="m327.8 296.3h14.64v2.84h-14.64z"/>

</g><path class="st50" d="m356.7 280.5-6.3-9.9-6.1 10.2 6.1 4.1z" fill="#9b3a3a"/>
<path class="st50" d="m351.8 281.8-2.4 0.1-5 71.3 5.9 7.3 6.5-7.7z" fill="#9b3a3a"/>





<clipPath id="XMLID_355_">
<use width="100%" height="100%" xlink:href="#XMLID_1492_"/>
</clipPath>
<path class="st51" d="m334.7 331.7c-2.13 0-4.14-.09-6.04-.26-10.75-.97-18.15-4.82-22.01-11.46-4.86-8.37-3.12-19.45 5.16-32.92 1.9-3.09 5.34-8.62 7.15-11.02 3.06-4.03 9.7 18.01 8.09 20.66-5.49 9-5.33 13.32-4.8 14.22.39.67 2.57 2.07 8.04 2.56 7.95.71 19.57-.66 34.55-4.07l4.01 17.58c-13.83 3.16-25.08 4.71-34.15 4.71z" clip-path="url(#XMLID_355_)" fill="#e1e6ea"/>




<g fill="#eff2f4">

<clipPath id="XMLID_361_">
<use width="100%" height="100%" xlink:href="#XMLID_1436_"/>
</clipPath>
<path class="st53" d="m379.8 336.5c-2.64 0-5.55-.4-8.71-1.2-8.68-2.2-19.89-7.39-34.28-15.89l7.68-15.04c21.93 12.95 31.93 12.38 35.09 12.45-.21-2.34.16-7.63-3.33-18.58-1.4-4.39-2.15-24.87-2.15-24.87 4.47-3.44 8.14 3.33 10.87 8.27 1.79 3.23 3.81 7.08 5.69 11.14 5.23 11.31 11.22 27.53 2.93 37.74-3.25 3.98-7.86 5.98-13.79 5.98z" clip-path="url(#XMLID_361_)" fill="#f3f6f7"/>


</g>


<clipPath id="XMLID_362_">
<use width="100%" height="100%" xlink:href="#XMLID_1337_"/>
</clipPath>
<path class="st55" d="m344.5 304.4s-23.48-5.03-22.62 9.99c0 0 .96 4.7 15.06 4.97z" clip-path="url(#XMLID_362_)" fill="#ffb9a4"/>





<clipPath id="XMLID_363_">
<use width="100%" height="100%" xlink:href="#XMLID_1292_"/>
</clipPath>
<path class="st57" d="m364.8 309.5 1.24 5.04s1.55.51 2.9.86c.8.21 1.45.37 1.45.37.39 1.54 6.35 6.76 6.35 6.76.72.86 2.01.99 2.88.27 6.988-5.611-3.772-15.01-14.82-13.3z" clip-path="url(#XMLID_363_)" fill="#ffb9a4"/>






<path class="st16" d="m390 228c0 1.9-1.54 3.44-3.44 3.44h-6.87c-1.9 0-3.44-1.54-3.44-3.44v-6.87c0-1.9 1.54-3.44 3.44-3.44h6.87c1.9 0 3.44 1.54 3.44 3.44z" fill="#e5a495"/>

<path class="st16" d="m329.1 228c0 1.9-1.54 3.44-3.44 3.44h-6.87c-1.9 0-3.44-1.54-3.44-3.44v-6.87c0-1.9 1.54-3.44 3.44-3.44h6.87c1.9 0 3.44 1.54 3.44 3.44z" fill="#e5a495"/>



<clipPath id="XMLID_364_">
<use width="100%" height="100%" xlink:href="#XMLID_1266_"/>
</clipPath>
<path class="st59" d="m383.1 229.7c0 14.37-11.65 26.02-26.02 26.02h-8.85c-14.37 0-26.02-11.65-26.02-26.02l-3.12-29.14c0-14.37 11.65-26.02 26.02-26.02h15.09c14.37 0 26.02 11.65 26.02 26.02z" clip-path="url(#XMLID_364_)" fill="#ffb9a4"/>




<path class="st16" d="m358 225.5v.6994c0 1.646-1.35 2.983-3.01 2.983h-4.66c-1.66 0-3.01-1.337-3.01-2.983v-.6994c0-1.543 2.27-14.32 3.14-19.12.19-1.049 1.12-1.81 2.19-1.81 1.08 0 2 .7611 2.2 1.81.87 4.803 3.15 17.59 3.15 19.12z" fill="#e5a495" stroke-width="1.014"/>


<clipPath id="XMLID_1074_">
<use width="100%" height="100%" xlink:href="#XMLID_1256_"/>
</clipPath>
<path class="st62" d="m372.1 214.5c0 2.84-2.86 5.15-5.17 5.15-2.32 0-4.19-2.3-4.19-5.15 0-2.84 1.88-4.17 4.19-4.17s5.17 1.32 5.17 4.17z" clip-path="url(#XMLID_1074_)" fill="#fff"/>
<g class="st63" clip-path="url(#XMLID_1074_)">
<path class="st23" d="m368.8 217.4c0 1.7-1.12 3.07-2.5 3.07s-2.5-1.37-2.5-3.07 1.12-3.07 2.5-3.07 2.5 1.37 2.5 3.07z" fill="#2d3030"/>
<path class="st24" d="m366.9 216c0 .78-.52 1.41-1.15 1.41-.64 0-1.15-.63-1.15-1.41s.52-1.41 1.15-1.41c.64 0 1.15.63 1.15 1.41z" fill="#fff"/>
</g>

<rect class="st64" x="360.1" y="201.8" width="11.86" height="6.46" clip-path="url(#XMLID_1074_)" fill="#e5a495"/>



<clipPath id="XMLID_1075_">
<use width="100%" height="100%" xlink:href="#XMLID_1248_"/>
</clipPath>
<path class="st65" d="m342.7 214.5c0 2.84-1.88 5.15-4.19 5.15-2.32 0-5.17-2.3-5.17-5.15 0-2.84 2.86-4.17 5.17-4.17s4.19 1.32 4.19 4.17z" clip-path="url(#XMLID_1075_)" fill="#fff"/>
<g class="st66" clip-path="url(#XMLID_1075_)">
<path class="st23" d="m340.3 217.4c0 1.7-1.12 3.07-2.5 3.07s-2.5-1.37-2.5-3.07 1.12-3.07 2.5-3.07 2.5 1.37 2.5 3.07z" fill="#2d3030"/>
<path class="st24" d="m338.5 216c0 .78-.52 1.41-1.15 1.41-.64 0-1.15-.63-1.15-1.41s.52-1.41 1.15-1.41c.64 0 1.15.63 1.15 1.41z" fill="#fff"/>
</g>
<rect class="st67" x="332.1" y="201.8" width="11.86" height="6.46" clip-path="url(#XMLID_1075_)" fill="#e5a495"/>




<clipPath id="XMLID_1076_">
<use width="100%" height="100%" xlink:href="#XMLID_1242_"/>
</clipPath>
<path class="st68" d="m363.4 238.6c1.38 0 2.23 1.46 1.5 2.59-2.19 3.37-6.5 8.83-11.46 8.83s-9.27-5.46-11.46-8.83c-.73-1.13.12-2.59 1.5-2.59z" clip-path="url(#XMLID_1076_)" fill="#5b2621"/>

<rect class="st70" x="338.8" y="236.3" width="31.09" height="4.19" clip-path="url(#XMLID_1076_)" fill="#f3e8d6"/>
<rect class="st70" x="338.8" y="248.3" width="31.09" height="4.19" clip-path="url(#XMLID_1076_)" fill="#f3e8d6"/>

<path class="st71" d="m373.4 212.9-10.76-1c-.62-.06-1.08-.61-1.02-1.24l.26-2.8c.06-.62.61-1.08 1.24-1.02l10.76 1c.62.06 1.08.61 1.02 1.24l-.26 2.8c-.06.62-.61 1.08-1.24 1.02z" fill="#443d3c"/>
<path class="st71" d="m332.7 211.4 10.76-1c.62-.06 1.08-.61 1.02-1.24l-.26-2.8c-.06-.62-.61-1.08-1.24-1.02l-10.76 1c-.62.06-1.08.61-1.02 1.24l.26 2.8c.07.62.62 1.08 1.24 1.02z" fill="#443d3c"/>


<clipPath id="XMLID_1077_">
<use width="100%" height="100%" xlink:href="#XMLID_1235_"/>
</clipPath>
<path class="st72" d="m394.5 173.3s-6.28-2.32-12.15-.72c0 0-.65-5.61 11.92-9.74 0 0-19.73-4.98-30.94 5.69 0 0 1.72-10.44 6.34-13.82 0 0-53.36 6.96-53.36 29.78v31.78c0 2.03 1.31 3.9 3.27 4.41 2.82.74 5.53-1.41 5.53-4.15v-21.18c0-.08.33-11.51 8.15-11.51 7.83 0 9.32 5.87 22.67 7.12 10.62.99 13.32-6.75 18.99-5.33 2.99.75 4.97 3.59 4.97 6.67v22.29c0 2.31 1.88 4.32 4.18 4.17 2.22-.14 3.64-2.01 3.64-4.29v-28.67c.99-3.37 1.84-9.13 6.79-12.5z" clip-path="url(#XMLID_1077_)" fill="#443d3c"/>












<clipPath>
<use width="100%" height="100%" xlink:href="#SVGID_8_"/>
</clipPath>











<clipPath id="XMLID_1078_">
<use width="100%" height="100%" xlink:href="#XMLID_1024_"/>
</clipPath>
<path class="st79" d="m209.2 359.6c0-19.64-19.16-17.8-25.85-17.8l-19.94.65c-6.64 0-24.13-.67-24.13 18.21 0 .005-.3303 28.32-.6566 56.29l70.41.001.1765-57.32z" clip-path="url(#XMLID_1078_)" fill="#a79e8b"/>


<path class="st82" d="m191.5 340s4.03 4.02 3.13 13.57c-.89 9.54-3.28 11.93-3.28 11.93l-5.07-.3 7.01 4.32s-17.09 37.22-19.23 37.22l.8-67.34z" clip-path="url(#XMLID_1078_)" fill="#968e80"/>
<path class="st82" d="m157.7 340s-4.03 4.02-3.13 13.57c.89 9.54 3.28 11.93 3.28 11.93l5.07-.3-7.01 4.32s16.9 37.24 18.19 37.24l.49-67.65z" clip-path="url(#XMLID_1078_)" fill="#968e80"/>
<path class="st83" d="m187 341c0 6.77-12.26 40.87-12.26 40.87.04-.04-12.26-34.1-12.26-40.87v-26.22c0-6.77 5.49-12.26 12.26-12.26s12.26 5.49 12.26 12.26z" clip-path="url(#XMLID_1078_)" fill="#d3d6db"/>



<clipPath id="SVGID_13_">
<use width="100%" height="100%" xlink:href="#SVGID_7_-0"/>
</clipPath>
<path class="st84" d="m185.5 341.1c0 5.94-4.81 10.75-10.75 10.75s-10.75-4.81-10.75-10.75v-23c0-5.94 4.81-10.75 10.75-10.75s10.75 4.81 10.75 10.75z" clip-path="url(#SVGID_13_)" fill="#ffb9a4"/>


<path class="st14" d="m185.5 338.2-10.48 10.12s8.84 13.85 8.88 13.69c3.17-13.3 3.17-20.29 3.17-20.29z" fill="#eff0f4"/>
<path class="st14" d="m164 339 10.93 9.3s-9.17 14.58-9.22 14.43c-2.3-8.42-3.28-20.21-3.28-20.21z" fill="#eff0f4"/>
<polygon class="st86" points="174.3 397.7 178.4 371.4 177.6 361.7 181.6 358.5 175 348.3 168.6 358.3 172.2 361.4 171 371.3" fill="#b1bd5d"/>






<clipPath id="XMLID_1081_">
<use width="100%" height="100%" xlink:href="#XMLID_1003_"/>
</clipPath>
<path class="st87" d="m212.8 415.9c.3035-9.004-1.192-18.28-4.492-27.78-5.299-13.96-18.36-31.11-6.12-42.76.53.59 13.68 15.47 21.24 36.85 3.994 11.29 5.842 22.49 5.57 33.43z" clip-path="url(#XMLID_1081_)" fill="#a79e8b"/>






<rect class="st89" transform="matrix(.9472 -.3205 .3205 .9472 -117.7 70.84)" x="129.6" y="354.3" width="53.4" height="77.29" fill="#e5b848"/>

<polygon class="st91" points="178.8 416.5 145.2 427.9 124.2 366 165.8 351.9 184.4 406.7 176.4 409.4" fill="#f6f6f6"/>
<polygon class="st92" points="183.9 406.9 178.9 416.7 176.4 409.4" fill="#ccc6ae"/>
<path class="st93" d="m150.7 351.6c-.21-.61-.86-.93-1.47-.73l-13.38 4.53c-.61.21-.93.86-.73 1.47.21.61-.12 1.26-.73 1.47l-.4.14c-.61.21-.93.86-.73 1.47l1.01 2.99c.21.61.86.93 1.47.73l18.77-6.35c.61-.21.93-.86.73-1.47l-1.01-2.99c-.21-.61-.86-.93-1.47-.73l-.6.2c-.6.2-1.25-.12-1.46-.73z" fill="#ececec"/><g fill="#ccc6ae">
<path class="st92" d="m163.4 360.2-33.26 11.25c-.31.11-.65-.06-.76-.37l-.21-.62c-.11-.31.06-.65.37-.76l33.26-11.25c.31-.11.65.06.76.37l.21.62c.11.32-.06.66-.37.76z"/>
<path class="st92" d="m164.9 364.4-33.26 11.25c-.31.11-.65-.06-.76-.37l-.21-.62c-.11-.31.06-.65.37-.76l33.26-11.25c.31-.11.65.06.76.37l.21.62c.11.32-.06.65-.37.76z"/>
<path class="st92" d="m166.2 368.4-33.26 11.25c-.31.11-.65-.06-.76-.37l-.21-.62c-.11-.31.06-.65.37-.76l33.26-11.25c.31-.11.65.06.76.37l.21.62c.11.32-.06.66-.37.76z"/>
<path class="st92" d="m156.6 376-22.31 7.55c-.31.11-.65-.06-.76-.37l-.21-.62c-.11-.31.06-.65.37-.76l22.31-7.55c.31-.11.65.06.76.37l.21.62c.11.32-.06.66-.37.76z"/>
<path class="st92" d="m151.9 381.6-16.39 5.55c-.31.11-.65-.06-.76-.37l-.21-.62c-.11-.31.06-.65.37-.76l16.39-5.55c.31-.11.65.06.76.37l.21.62c.11.32-.06.65-.37.76z"/>
<path class="st92" d="m166.3 380.5-29.64 10.03c-.31.11-.65-.06-.76-.37l-.21-.62c-.11-.31.06-.65.37-.76l29.64-10.03c.31-.11.65.06.76.37l.21.62c.1.31-.06.65-.37.76z"/>
<path class="st92" d="m167.6 384.2-29.64 10.03c-.31.11-.65-.06-.76-.37l-.21-.62c-.11-.31.06-.65.37-.76l29.64-10.03c.31-.11.65.06.76.37l.21.62c.11.32-.06.66-.37.76z"/>
</g>



<clipPath id="XMLID_1087_">
<use width="100%" height="100%" xlink:href="#XMLID_1399_"/>
</clipPath>
<path class="st94" d="m189.7 399.7c-.44-1.14-1.64-1.66-2.7-1.17l-.5.24c0-.03.01-.06.01-.08l.87-.41c1.05-.49 1.56-1.81 1.12-2.95-.32-.84-1.07-1.35-1.87-1.35.94-.55 1.37-1.78.96-2.85-.42-1.09-1.55-1.61-2.57-1.22.63-.67.77-1.89.25-3.03-.62-1.36-1.94-2.06-2.94-1.57l-2.73 1.36c.58-1.31-.53-2.65-2.4-2.26-3.01.63-5.05 4.25-6.03 6.65-.15.27-.27.55-.34.86l-1.34 2.14c-.01.01 0 .05-.01.05-.65 1.03-1.01 2.11-.87 3.48l-6.3 2.77 3.33 9.26 6.63-2.92c2.25 2.23 5.63 1.19 9.09-.49.02-.01.04-.05.06-.06.49-.24.96-.51 1.39-.83l5.76-2.67c1.06-.49 1.56-1.81 1.13-2.95z" clip-path="url(#XMLID_1087_)" fill="#ffb9a4"/>




<clipPath id="XMLID_1116_">
<use width="100%" height="100%" xlink:href="#XMLID_26_"/>
</clipPath>

<path class="st96" d="m138.9 419c13.58 0 28.27-7.21 30.37-8.27l-5.33-12.81c-8.42 4.26-24.54 9.57-31.91 5.65-1.93-1.03-3.05-2.64-3.64-5.25-2.67-11.8 7.05-24.13 15.33-31.46 2.09-1.85 4.953-15.39 2.313-20.84-4.41 3.789-11.57 9.762-16.61 16.28-11.62 13.17-16.26 26.82-13.4 39.45 1.51 6.67 5.14 11.7 10.5 14.54 3.71 1.95 7.99 2.71 12.38 2.71z" clip-path="url(#XMLID_1116_)" fill="#a79e8b"/><g class="st97" clip-path="url(#XMLID_1116_)">

<rect class="st89" transform="matrix(.9472 -.3205 .3205 .9472 -112.3 67.97)" x="123.6" y="355.3" width="53.4" height="39.8" fill="#e5b848"/>
<polygon class="st90" points="168.5 353.9 126 368.3 137.6 402.4 172 390.8 178.6 383.7" opacity=".1"/>
<polygon class="st91" points="170.7 392.4 137 403.8 124.2 366 165.8 351.9 177.2 385.4 169.2 388" fill="#f6f6f6"/>
<polygon class="st92" points="183.9 406.9 178.9 416.7 176.4 409.4" fill="#ccc6ae"/>
<path class="st93" d="m150.7 351.6c-.21-.61-.86-.93-1.47-.73l-13.38 4.53c-.61.21-.93.86-.73 1.47.21.61-.12 1.26-.73 1.47l-.4.14c-.61.21-.93.86-.73 1.47l1.01 2.99c.21.61.86.93 1.47.73l18.77-6.35c.61-.21.93-.86.73-1.47l-1.01-2.99c-.21-.61-.86-.93-1.47-.73l-.6.2c-.6.2-1.25-.12-1.46-.73z" fill="#ececec"/><g fill="#ccc6ae">
<path class="st92" d="m163.4 360.2-33.26 11.25c-.31.11-.65-.06-.76-.37l-.21-.62c-.11-.31.06-.65.37-.76l33.26-11.25c.31-.11.65.06.76.37l.21.62c.11.32-.06.66-.37.76z"/>
<path class="st92" d="m164.9 364.4-33.26 11.25c-.31.11-.65-.06-.76-.37l-.21-.62c-.11-.31.06-.65.37-.76l33.26-11.25c.31-.11.65.06.76.37l.21.62c.11.32-.06.65-.37.76z"/>
<path class="st92" d="m166.2 368.4-33.26 11.25c-.31.11-.65-.06-.76-.37l-.21-.62c-.11-.31.06-.65.37-.76l33.26-11.25c.31-.11.65.06.76.37l.21.62c.11.32-.06.66-.37.76z"/>
<path class="st92" d="m156.6 376-22.31 7.55c-.31.11-.65-.06-.76-.37l-.21-.62c-.11-.31.06-.65.37-.76l22.31-7.55c.31-.11.65.06.76.37l.21.62c.11.32-.06.66-.37.76z"/>
<path class="st92" d="m151.9 381.6-16.39 5.55c-.31.11-.65-.06-.76-.37l-.21-.62c-.11-.31.06-.65.37-.76l16.39-5.55c.31-.11.65.06.76.37l.21.62c.11.32-.06.65-.37.76z"/>
<path class="st92" d="m166.3 380.5-29.64 10.03c-.31.11-.65-.06-.76-.37l-.21-.62c-.11-.31.06-.65.37-.76l29.64-10.03c.31-.11.65.06.76.37l.21.62c.1.31-.06.65-.37.76z"/>
<path class="st92" d="m167.6 384.2-29.64 10.03c-.31.11-.65-.06-.76-.37l-.21-.62c-.11-.31.06-.65.37-.76l29.64-10.03c.31-.11.65.06.76.37l.21.62c.11.32-.06.66-.37.76z"/>
</g></g>






<path class="st16" d="m213.1 298.9c0 1.9-1.54 3.44-3.44 3.44h-6.88c-1.9 0-3.44-1.54-3.44-3.44v-6.88c0-1.9 1.54-3.44 3.44-3.44h6.88c1.9 0 3.44 1.54 3.44 3.44z" fill="#e5a495"/>

<path class="st16" d="m152.1 298.9c0 1.9-1.54 3.44-3.44 3.44h-6.88c-1.9 0-3.44-1.54-3.44-3.44v-6.88c0-1.9 1.54-3.44 3.44-3.44h6.88c1.9 0 3.44 1.54 3.44 3.44z" fill="#e5a495"/>



<clipPath id="XMLID_1117_">
<use width="100%" height="100%" xlink:href="#XMLID_155_"/>
</clipPath>
<path class="st99" d="m206.2 300.7c0 14.38-12.36 26.75-26.74 26.75l-8.15-.71c-14.38 0-25.86-18.92-25.86-29.16l-3.3-26.04c0-14.38 11.66-26.04 26.04-26.04h15.1c14.38 0 26.04 11.66 26.04 26.04z" clip-path="url(#XMLID_1117_)" fill="#ffb9a4"/>



<path d="m181.1 295.9c.3088 1.779-1.112 3.65-2.979 3.562-1.61.0496-3.225.00091-4.835.005-1.701.0118-3.056-1.592-2.903-3.256.4507-4.66 1.476-9.243 2.229-13.86.3623-1.895.6501-3.817 1.15-5.677.8484-1.671 3.786-1.421 4.132.5009.5775 2.722 1.007 5.479 1.535 8.214.6301 3.491 1.263 6.987 1.672 10.51z" fill="#e5a495"/>


<clipPath id="XMLID_1121_">
<use width="100%" height="100%" xlink:href="#XMLID_145_"/>
</clipPath>
<path class="st101" d="m195.1 285.4c0 2.85-2.86 5.15-5.18 5.15s-4.2-2.31-4.2-5.15c0-2.85 1.88-4.17 4.2-4.17 2.33 0 5.18 1.32 5.18 4.17z" clip-path="url(#XMLID_1121_)" fill="#fff"/>
<g class="st102" clip-path="url(#XMLID_1121_)">
<path class="st23" d="m193.7 288.3c0 1.7-1.12 3.07-2.5 3.07s-2.5-1.38-2.5-3.07c0-1.7 1.12-3.07 2.5-3.07s2.5 1.38 2.5 3.07z"/>
<path class="st24" d="m191.9 286.8c0 .78-.52 1.41-1.15 1.41-.64 0-1.15-.63-1.15-1.41s.52-1.41 1.15-1.41c.64-.01 1.15.63 1.15 1.41z" fill="#fff"/>
</g>

<rect class="st103" x="183.2" y="272.7" width="11.87" height="6.46" clip-path="url(#XMLID_1121_)" fill="#e5a495"/>



<clipPath id="XMLID_1153_">
<use width="100%" height="100%" xlink:href="#XMLID_137_"/>
</clipPath>
<path class="st104" d="m165.7 285.4c0 2.85-1.88 5.15-4.2 5.15s-5.18-2.31-5.18-5.15c0-2.85 2.86-4.17 5.18-4.17s4.2 1.32 4.2 4.17z" clip-path="url(#XMLID_1153_)" fill="#fff"/>
<g class="st105" clip-path="url(#XMLID_1153_)">
<path class="st23" d="m165.2 288.3c0 1.7-1.12 3.07-2.5 3.07s-2.5-1.38-2.5-3.07c0-1.7 1.12-3.07 2.5-3.07s2.5 1.38 2.5 3.07z"/>
<path class="st24" d="m163.4 286.8c0 .78-.52 1.41-1.15 1.41-.64 0-1.15-.63-1.15-1.41s.52-1.41 1.15-1.41c.64-.01 1.15.63 1.15 1.41z" fill="#fff"/>
</g>
<rect class="st106" x="155.1" y="272.7" width="11.87" height="6.46" clip-path="url(#XMLID_1153_)" fill="#e5a495"/>




<clipPath id="XMLID_1155_">
<use width="100%" height="100%" xlink:href="#XMLID_131_"/>
</clipPath>
<path class="st107" d="m186.5 309.5c1.38 0 2.23 1.46 1.5 2.59-2.19 3.37-6.5 8.83-11.46 8.83s-9.27-5.46-11.46-8.83c-.73-1.13.12-2.59 1.5-2.59z" clip-path="url(#XMLID_1155_)" fill="#5b2621"/>

<rect class="st109" x="161.8" y="307.2" width="31.11" height="4.19" clip-path="url(#XMLID_1155_)" fill="#f3e8d6"/>
<path class="st109" d="m161.8 319.2h31.11v4.19h-31.11z" clip-path="url(#XMLID_1155_)" fill="#f3e8d6"/>

</g>
<path d="m152.8 276.6c1.901-.5445 3.789-1.143 5.702-1.642 2.458-.5356 5.108.0146 7.169 1.45 1.348.8544 2.718 1.679 4.042 2.566.557.4792.2064 1.499-.5236 1.541-.6072.005-1.114-.4235-1.672-.6158-1.406-.6113-2.779-1.308-4.217-1.841-1.596-.5104-3.366-.2953-4.841.4808-1.484.655-2.958 1.335-4.447 1.978-1.173.428-2.582-.4527-2.687-1.702-.1288-.9659.5148-1.981 1.474-2.213z" fill="#6b504d"/>
<path d="m137.3 282.1c-1.901-.5445-3.789-1.143-5.702-1.642-2.458-.5356-5.108.0146-7.169 1.45-1.348.8544-2.718 1.679-4.042 2.566-.557.4792-.2064 1.499.5236 1.541.6072.005 1.114-.4235 1.672-.6158 1.406-.6113 2.779-1.308 4.217-1.841 1.596-.5104 3.366-.2953 4.841.4808 1.484.655 2.958 1.335 4.447 1.978 1.173.428 2.582-.4527 2.687-1.702.1288-.9659-.5146-1.981-1.474-2.213z" fill="#6b504d"/>


<g transform="translate(-31.11 2.828)">

<clipPath id="XMLID_1366_">
<use width="100%" height="100%" xlink:href="#XMLID_178_"/>
</clipPath>
<path class="st112" d="m210.9 268.6c-.02-.53-.14-.98-.16-1.34l-.07-.32c-.01-.08-.04-.16-.04-.24 0-.05-.02-.1-.02-.15-1.42-20.39-23.11-21.87-23.11-21.87-7.85-.44-14.64-6.76-14.74-6.91-1.29-2-2.38-4.5-3.09-6.35-.39-1.01-1.79-.87-2.01.2-.24 1.14-.2 2.15-.07 2.98.08.49-.53.75-.8.34-.35-.54-.7-1.12-1-1.64-.27-.45-.95-.21-.89.31 0 .02 0 .03.01.05.04.37-.42.55-.63.24-.19-.28-.38-.59-.56-.91-.37-.63-1.31-.34-1.28.39.06 1.74.48 3.56.9 4.97.18.61-.59 1.02-.96.51-1.42-1.93-3.16-4.8-4.28-6.71-.45-.76-1.59-.44-1.59.45.01 1.09.17 2.26.34 3.14.08.45-.49.69-.74.31-.29-.44-.57-.96-.81-1.46-.29-.58-1.12-.38-1.14.27-.04 1.65.26 3.29.26 3.29-.29.22-.45.54-.51.87-.12.64-.96.75-1.26.18-.59-1.12-1.11-2.42-1.49-3.49-.27-.77-1.36-.69-1.5.11-.33 1.82-.02 3.72.38 5.19.1.35-.4.54-.54.21-.7-1.57-1.36-3.57-1.84-5.16-.33-1.08-1.86-1.05-2.11.05-.64 2.84.59 5.82 1.51 7.53.13.24-.19.47-.36.26-.68-.84-1.34-1.93-1.81-2.78-.27-.5-1.02-.36-1.09.21-.12.8-.13 1.59-.12 2.16.01.34-.41.51-.62.25-.32-.4-.63-.91-.89-1.38-.27-.51-1.01-.36-1.11.21-.09.52-.11 1.01-.1 1.43.02.6-.61.99-1.13.71l-.03-.02c-.46-.25-1.02.09-1.03.62-.19 5.43 1.6 7.84 3.02 8.88.28.21.06.66-.26.55-.27-.09-.53-.2-.78-.32-.88-.41-1.75.58-1.25 1.43.57.97 1.32 1.75 2.13 2.39 1.39 1.08 1.95 2.96 1.53 4.7-.25 1.05-.18 2.12-.18 3.23 0 0-6.06 64.49 33.94 64.49v-.02c34-.02 34.43-50.3 33.98-62.04zm-27.98 57.73c-.71.13-1.87-.28-3.01-.82-2.14-1.01-4.59-1.03-6.76-.08-1.03.45-2.06.78-2.7.67-28.87-5.13-24.1-49.21-24.1-49.21.15-11.99 3.37-18.92 9.97-19.52.29-.03.76-.02 1.38-.05 1.97-.07 3.91.58 5.48 1.83 3.11 2.46 7.05 5.17 10.29 6l.51.15c1.56.44 3.19.49 4.76.13l1.07-.24c3.25-.8 7.26-3.52 10.39-6.01 1.57-1.24 3.51-1.88 5.48-1.81.62.02 1.09.05 1.38.07 6.6.61 9.82 7.59 9.97 19.58-.01-.02 4.76 44.18-24.11 49.31z" clip-path="url(#XMLID_1366_)" fill="#443d3c"/>












<clipPath id="SVGID_14_">
<use width="100%" height="100%" xlink:href="#SVGID_2_-3"/>
</clipPath>











<clipPath id="XMLID_1367_">
<use width="100%" height="100%" xlink:href="#XMLID_1105_"/>
</clipPath>
<path class="st118" d="m366.3 359.6c0-19.64 19.16-17.8 25.85-17.8l19.94.65c6.64 0 24.13-.67 24.13 18.21 0 .005.3361 28.81.6651 57.02l-70.42-.486-.1772-57.57z" clip-path="url(#XMLID_1367_)" fill="#424549"/>



<path class="st120" d="m384 340s-4.03 4.02-3.13 13.57c.89 9.54 3.28 11.93 3.28 11.93l5.07-.3-7.01 4.32s17.09 37.22 19.23 37.22l-.8-67.34z" clip-path="url(#XMLID_1367_)" fill="#3d4044"/>
<path class="st120" d="m417.8 340s4.03 4.02 3.13 13.57c-.89 9.54-3.28 11.93-3.28 11.93l-5.07-.3 7.01 4.32s-16.9 37.24-18.19 37.24l-.49-67.65z" clip-path="url(#XMLID_1367_)" fill="#3d4044"/>
<path class="st121" d="m388.5 341c0 6.77 12.26 40.87 12.26 40.87-.04-.04 12.26-34.1 12.26-40.87z" clip-path="url(#XMLID_1367_)" fill="#d3d6db"/>



<clipPath id="SVGID_15_">
<use width="100%" height="100%" xlink:href="#SVGID_1_-7"/>
</clipPath>
<path class="st122" d="m390 341.1c0 5.94 4.81 10.75 10.75 10.75s10.75-4.81 10.75-10.75v-23c0-5.94-4.81-10.75-10.75-10.75s-10.75 4.81-10.75 10.75z" clip-path="url(#SVGID_15_)" fill="#fdb199"/>


<path class="st14" d="m390 338.2 10.48 10.12s-8.84 13.85-8.88 13.69c-3.17-13.3-3.17-20.29-3.17-20.29z" fill="#eff0f4"/>
<path class="st14" d="m411.5 339-10.93 9.3s9.17 14.58 9.22 14.43c2.3-8.42 3.28-20.21 3.28-20.21z" fill="#eff0f4"/>
<polygon class="st124" points="401.2 397.7 397.1 371.4 397.9 361.7 393.8 358.5 400.5 348.3 406.9 358.3 403.2 361.4 404.4 371.3" fill="#6b768e"/>






<clipPath id="XMLID_1368_">
<use width="100%" height="100%" xlink:href="#XMLID_1084_"/>
</clipPath>
<path class="st125" d="m362.7 417.1c-.474-9.359 1.005-19.01 4.444-28.91 2.57-7.4 5.89-13.84 8.96-18.91 4.54-7.51 3.14-17.19-3.38-23.07-.53.59-13.14 14.69-20.7 36.07-4.148 11.71-5.985 23.34-5.537 34.66z" clip-path="url(#XMLID_1368_)" fill="#424549"/>





<path class="st127" d="m404.1 389.3s-2.57 1.78-.74 3.88 6.32 6.8 6.58 8.42l2.15-4.27c-1.09-2.13-5.53-9.2-7.99-8.03z" fill="#e2a496"/>

<path class="st24" d="m392.3 375.7 10.49-.37h.29c2.7.08 2.64 4.15-.05 4.24l-10.66.37c-2.7.09-3.04-3.96-.35-4.23.09 0 .18-.01.28-.01z" fill="#fff"/>


<clipPath id="XMLID_1369_">
<use width="100%" height="100%" xlink:href="#XMLID_338_"/>
</clipPath>
<path class="st128" d="m407.5 380.5c-.2063 4.743-.4087 9.487-.61 14.23l-.39 9.11c-.03.68-.58 1.22-1.26 1.25l-13.43.47c-.69.02-1.27-.48-1.35-1.15l-1.03-9.06c-.5304-4.721-1.071-9.44-1.61-14.16z" clip-path="url(#XMLID_1369_)" fill="#aef4e9"/>



<path class="st24" d="m387.8 378.7 19.58-.69c.99-.03 1.83.7 1.86 1.71.03.99-.74 1.8-1.74 1.83l-19.59.69c-.99.03-1.83-.71-1.85-1.71-.03-.99.74-1.8 1.74-1.83z" fill="#fff"/>
<g fill="#ffb9a4">
<path class="st37" d="m388.8 404.1 5.5-.19c1.05-.04 1.88-.92 1.84-1.97s-.92-1.88-1.97-1.84l-5.5.19c-1.05.04-1.88.92-1.84 1.97s.92 1.88 1.97 1.84z"/>
<path class="st37" d="m388 400.6 6.81-.24c1.05-.04 1.88-.92 1.84-1.97s-.92-1.88-1.97-1.84l-6.81.24c-1.05.04-1.88.92-1.84 1.97.03 1.05.92 1.87 1.97 1.84z"/>
<path class="st37" d="m387.2 396.8 8.19-.29c1.05-.04 1.88-.92 1.84-1.97s-.92-1.88-1.97-1.84l-8.19.29c-1.05.04-1.88.92-1.84 1.97.03 1.05.92 1.87 1.97 1.84z"/>
<path class="st37" d="m388.2 393.2 6.19-.22c1.05-.04 1.88-.92 1.84-1.97s-.92-1.88-1.97-1.84l-6.19.22c-1.05.04-1.88.92-1.84 1.97s.92 1.88 1.97 1.84z"/>
<path class="st37" d="m390.5 403.8s9.03 3.42 14.67 3.2c13.36-.54 7.59-11.99 3.38-14.7-3.24-2.09-5.32-3.62-15.07-3.23-9.75.4-2.98 14.73-2.98 14.73z"/>
</g>


<clipPath id="XMLID_1455_">
<use width="100%" height="100%" xlink:href="#XMLID_21_"/>
</clipPath>
<path class="st130" d="m439.6 414.9c-14.54.59-30.55-5.76-32.85-6.7l5.2-12.64c9.19 3.76 26.66 8.21 34.39 4.09 2.02-1.08 3.16-2.69 3.69-5.24 2.4-11.54-8.49-23.06-17.65-29.81-2.31-1.7-6.55-13.75-3.94-19.15.4.22 10.02 5.55 19.08 14.11 12.96 12.26 18.46 25.27 15.89 37.62-1.35 6.52-5.04 11.55-10.67 14.54-3.87 2.07-8.43 2.99-13.14 3.18z" clip-path="url(#XMLID_1455_)" fill="#424549"/>




<path class="st16" d="m361.9 298.8c0 1.91 1.55 3.47 3.47 3.47h6.93c1.91 0 3.47-1.55 3.47-3.47v-6.93c0-1.91-1.55-3.47-3.47-3.47h-6.93c-1.91 0-3.47 1.55-3.47 3.47z" fill="#e5a495"/>

<path class="st16" d="m423.3 298.8c0 1.91 1.55 3.47 3.47 3.47h6.93c1.91 0 3.47-1.55 3.47-3.47v-6.93c0-1.91-1.55-3.47-3.47-3.47h-6.93c-1.91 0-3.47 1.55-3.47 3.47z" fill="#e5a495"/>



<clipPath id="XMLID_1459_">
<use width="100%" height="100%" xlink:href="#XMLID_1066_"/>
</clipPath>
<path class="st132" d="m368.8 300.6c0 14.5 11.75 26.25 26.25 26.25h8.93c14.5 0 26.25-11.75 26.25-26.25l2.45-28.26c0-14.5-11.05-27.39-25.55-27.39h-15.23c-14.5 0-26.17 13.65-26.17 28.14z" clip-path="url(#XMLID_1459_)" fill="#ffb9a4"/>


<path class="st16" d="m393.8 295.3v.55c0 1.28 1.44 2.33 3.22 2.33h4.98c1.78 0 3.22-1.04 3.22-2.33v-.55c0-1.2-2.42-11.18-3.36-14.93-.2-.82-1.19-1.41-2.34-1.41s-2.14.59-2.34 1.42c-.95 3.74-3.38 13.72-3.38 14.92z" fill="#e5a495"/>


<clipPath id="XMLID_1460_">
<use width="100%" height="100%" xlink:href="#XMLID_1046_"/>
</clipPath>
<path class="st134" d="m381 286.2c0 2.87 1.89 5.19 4.23 5.19s4.23-2.33 4.23-5.19c0-2.87-1.89-5.19-4.23-5.19s-4.23 2.32-4.23 5.19z" clip-path="url(#XMLID_1460_)" fill="#fff"/>
<g class="st135" clip-path="url(#XMLID_1460_)">
<path class="st23" d="m381.2 288.8c0 1.71 1.13 3.1 2.52 3.1s2.52-1.39 2.52-3.1-1.13-3.1-2.52-3.1-2.52 1.39-2.52 3.1z" fill="#2d3030"/>
<path class="st24" d="m383.1 287.4c0 .79.52 1.43 1.16 1.43s1.16-.64 1.16-1.43-.52-1.43-1.16-1.43c-.64.01-1.16.65-1.16 1.43z" fill="#fff"/>
</g>







<clipPath id="XMLID_1461_">
<use width="100%" height="100%" xlink:href="#XMLID_1032_"/>
</clipPath>
<path class="st137" d="m409.7 286.2c0 2.87 1.89 5.19 4.23 5.19s4.23-2.33 4.23-5.19c0-2.87-1.89-5.19-4.23-5.19s-4.23 2.32-4.23 5.19z" clip-path="url(#XMLID_1461_)" fill="#fff"/>
<g class="st138" clip-path="url(#XMLID_1461_)">
<path class="st23" d="m409.9 288.8c0 1.71 1.13 3.1 2.52 3.1s2.52-1.39 2.52-3.1-1.13-3.1-2.52-3.1-2.52 1.39-2.52 3.1z" fill="#2d3030"/>
<path class="st24" d="m411.8 287.4c0 .79.52 1.43 1.16 1.43s1.16-.64 1.16-1.43-.52-1.43-1.16-1.43c-.64.01-1.16.65-1.16 1.43z" fill="#fff"/>
</g>

<rect class="st139" transform="rotate(180 414.4 279.9)" x="408.4" y="276.7" width="11.97" height="6.52" clip-path="url(#XMLID_1461_)" fill="#e5a495"/>





<clipPath id="XMLID_1466_">
<use width="100%" height="100%" xlink:href="#XMLID_16_"/>
</clipPath><g fill="#d68243">
<path class="st140" d="m369.8 254.2c.44-13.33 13.98-22.55 27.98-23.02 15-.5 30.53 8.73 31 23.02 0 0 6.16 12.25 5.35 32.67 0 0-.11 6.7-2.13 12.54-.48 1.38-2.31 1.81-3.26.7-.42-.49-.56-1.14-.39-1.74 1.14-4 5.82-23.25-4.82-38.14-2.39-3.35-5.86-5.4-9.53-5.34-1.58.03-3.28.43-4.88 1.54-2.75 1.91-5.96 3.06-9.32 3.06h-1.04c-3.35 0-6.56-1.15-9.32-3.06-1.6-1.11-3.3-1.51-4.88-1.54-3.68-.06-7.14 2-9.53 5.35-10.57 14.8-6.02 33.89-4.84 38.06.14.5.11 1.04-.14 1.49-.79 1.43-2.91 1.26-3.44-.27-2.06-5.87-2.17-12.65-2.17-12.65-.81-20.42 5.36-32.67 5.36-32.67z" clip-path="url(#XMLID_1466_)"/>



<path class="st144" d="m380.6 280 7.86-2.35c1.79-.54 2.81-2.42 2.28-4.22l-.09-.29c-.54-1.79-2.42-2.81-4.22-2.28l-7.86 2.35c-1.79.54-2.81 2.42-2.28 4.22l.09.29c.54 1.79 2.43 2.81 4.22 2.28z"/>
<path class="st144" d="m416.8 280.6-7.86-2.35c-1.79-.54-2.81-2.42-2.28-4.22l.09-.29c.54-1.79 2.42-2.81 4.22-2.28l7.86 2.35c1.79.54 2.81 2.42 2.28 4.22l-.09.29c-.54 1.8-2.43 2.82-4.22 2.28z"/>
</g><path class="st145" d="m399 313c-3.34 0-6.33-2.07-6.48-2.17-.49-.35-.61-1.02-.26-1.51s1.02-.61 1.51-.27c.06.04 3.55 2.43 6.57 1.61 1.46-.4 2.62-1.52 3.45-3.34.25-.55.9-.79 1.44-.54.55.25.79.9.54 1.44-1.12 2.44-2.76 3.96-4.87 4.53-.63.18-1.27.25-1.9.25z" fill="#af7f74"/>

<path d="m412.2 396c8.174 3.514 16.29 5.069 24.55 5.679" fill="none" stroke="#3c3e42" stroke-linecap="round" stroke-linejoin="round" stroke-width=".701px"/><path d="m412.2 395.8c.0992.0427-5.449 12.53-5.349 12.57 8.073 3.425 16.28 4.949 24.45 5.552" fill="none" stroke="#3c3e42" stroke-linecap="round" stroke-linejoin="round" stroke-width=".701px"/>





<clipPath id="XMLID_1467_">
<use width="100%" height="100%" xlink:href="#XMLID_940_"/>
</clipPath>
<path class="st146" d="m258.7 345.9c2.953-5.982 6.608-9.642 11.13-9.642 6.33 0 34.27-.04 34.41-.04 4.707 0 17.9 8.544 11.67 8.655z" clip-path="url(#XMLID_1467_)" fill="#9189a5"/>





<path class="st37" d="m299.6 335.2c0 6.17-5 11.17-11.17 11.17s-11.17-5-11.17-11.17v-23.9c0-6.17 5-11.17 11.17-11.17s11.17 5 11.17 11.17z" fill="#ffb9a4"/>




<clipPath id="XMLID_1468_">
<use width="100%" height="100%" xlink:href="#XMLID_934_"/>
</clipPath>
<polygon class="st151" points="301.4 335.9 299.6 327.2 288.6 335.5 296 354.2" clip-path="url(#XMLID_1468_)" fill="#a69dbf"/>




<clipPath id="XMLID_1469_">
<use width="100%" height="100%" xlink:href="#XMLID_928_"/>
</clipPath>
<polygon class="st153" points="275.5 335.9 277.3 327.2 288.6 335.5 280.8 354.2" clip-path="url(#XMLID_1469_)" fill="#a69dbf"/>





<path class="st16" d="m326.6 298.1c0 1.88-1.52 3.4-3.4 3.4h-6.81c-1.88 0-3.4-1.52-3.4-3.4v-6.81c0-1.88 1.52-3.4 3.4-3.4h6.81c1.88 0 3.4 1.52 3.4 3.4z" fill="#e5a495"/>

<path class="st16" d="m266.4 298.1c0 1.88-1.52 3.4-3.4 3.4h-6.81c-1.88 0-3.4-1.52-3.4-3.4v-6.81c0-1.88 1.52-3.4 3.4-3.4h6.81c1.88 0 3.4 1.52 3.4 3.4z" fill="#e5a495"/>



<clipPath id="XMLID_1481_">
<use width="100%" height="100%" xlink:href="#XMLID_977_"/>
</clipPath>
<path class="st158" d="m319.8 308.9c0 14.23-11.54 16.72-25.77 16.72h-8.76c-14.23 0-25.77-2.49-25.77-16.72l-3.09-37.91c0-14.23 11.54-25.77 25.77-25.77h14.95c14.23 0 25.77 11.54 25.77 25.77z" clip-path="url(#XMLID_1481_)" fill="#ffb9a4"/>





<clipPath id="XMLID_1482_">
<use width="100%" height="100%" xlink:href="#XMLID_973_"/>
</clipPath>

<path class="st161" transform="matrix(1 0 0 1.036 0 -9.818)" d="m296 295.2v.68c0 1.6-1.59 2.89-3.56 2.89h-5.5c-1.96 0-3.56-1.29-3.56-2.89v-.68c0-1.5 2.67-13.89 3.71-18.54.23-1.02 1.32-1.75 2.59-1.75s2.36.74 2.59 1.76c1.04 4.64 3.73 17.03 3.73 18.53z" clip-path="url(#XMLID_1482_)" fill="#e5a495"/>



<clipPath id="XMLID_1483_">
<use width="100%" height="100%" xlink:href="#XMLID_963_"/>
</clipPath>
<path class="st162" d="m325.7 231.1s-5.77 9.61-33.16 5.57c-27.38-4.04-38.7 6.06-38.7 21.87 0 4.09.23 6.94 1.14 8.92v19.09c0 1.36.4 2.56 1.04 3.3 1.04 1.21 1.54 2.79 1.56 4.38.46 34.61 10.39 31.19 20.96 31.19 6.01 0 7.49-.05 24 0 26.16.07 20.29-32.31 19.15-37.65.44-.76.71-1.77.71-2.88v-23.37c2.26-.88 4.85-2.26 7.26-4.28 18.93-15.79-3.96-26.14-3.96-26.14zm-8.85 53.79.04-.01s1.14 18.3-27.09 18.3c-30.07 0-29.52-17.47-29.52-17.47l.01-14.01s4.12-21.61 17.53-21.61c10.42 0 24.12 13.85 39.02 12.64v22.16z" clip-path="url(#XMLID_1483_)" fill="#6b504d"/>






<clipPath id="XMLID_1489_">
<use width="100%" height="100%" xlink:href="#XMLID_953_"/>
</clipPath>
<path class="st165" d="m307.6 285c0 2.81-1.85 5.08-4.14 5.08s-4.14-2.27-4.14-5.08 1.85-5.08 4.14-5.08c2.28 0 4.14 2.27 4.14 5.08z" clip-path="url(#XMLID_1489_)" fill="#fff"/>
<g class="st166" clip-path="url(#XMLID_1489_)">
<path class="st23" d="m305.9 288.5c0 1.67-1.11 3.03-2.47 3.03s-2.47-1.36-2.47-3.03 1.11-3.03 2.47-3.03 2.47 1.35 2.47 3.03z" fill="#2d3030"/>
<path class="st24" d="m304.1 287.1c0 .77-.51 1.4-1.14 1.4s-1.14-.62-1.14-1.4c0-.77.51-1.4 1.14-1.4.63.01 1.14.63 1.14 1.4z" fill="#fff"/>
</g>
<rect class="st167" x="296.8" y="297.8" width="11.7" height="6.37" clip-path="url(#XMLID_1489_)" fill="#e5a495"/>
<rect class="st167" x="296.8" y="272.5" width="11.7" height="6.37" clip-path="url(#XMLID_1489_)" fill="#e5a495"/>



<clipPath id="XMLID_1490_">
<use width="100%" height="100%" xlink:href="#XMLID_943_"/>
</clipPath>
<path class="st168" d="m279.5 285c0 2.81-1.85 5.08-4.14 5.08s-4.14-2.27-4.14-5.08 1.85-5.08 4.14-5.08 4.14 2.27 4.14 5.08z" clip-path="url(#XMLID_1490_)" fill="#fff"/>
<g class="st169" clip-path="url(#XMLID_1490_)">
<path class="st23" d="m277.8 288.5c0 1.67-1.1 3.03-2.47 3.03-1.36 0-2.47-1.36-2.47-3.03s1.11-3.03 2.47-3.03c1.37 0 2.47 1.35 2.47 3.03z" fill="#2d3030"/>
<path class="st24" d="m276 287.1c0 .77-.51 1.4-1.14 1.4s-1.14-.62-1.14-1.4c0-.77.51-1.4 1.14-1.4.63.01 1.14.63 1.14 1.4z" fill="#fff"/>
</g>
<rect class="st170" x="269.1" y="272.5" width="11.7" height="6.37" clip-path="url(#XMLID_1490_)" fill="#e5a495"/>
<rect class="st170" x="269.1" y="297.8" width="11.7" height="6.37" clip-path="url(#XMLID_1490_)" fill="#e5a495"/>



<clipPath id="XMLID_1495_">
<use width="100%" height="100%" xlink:href="#XMLID_925_"/>
</clipPath>
<path class="st171" d="m309.4 279.9-9.64-2.93c-1.93-.59-3.02-2.62-2.43-4.55l.08-.28c.59-1.93 2.62-3.02 4.55-2.43l9.64 2.93c1.93.59 3.02 2.62 2.43 4.55l-.08.28c-.58 1.93-2.62 3.01-4.55 2.43z" clip-path="url(#XMLID_1495_)" fill="#56413f"/>




<clipPath id="XMLID_1496_">
<use width="100%" height="100%" xlink:href="#XMLID_919_"/>
</clipPath>
<path class="st173" d="m270.5 279.9 9.64-2.93c1.93-.59 3.02-2.62 2.43-4.55l-.08-.28c-.59-1.93-2.62-3.02-4.55-2.43l-9.64 2.93c-1.93.59-3.02 2.62-2.43 4.55l.08.28c.59 1.93 2.63 3.01 4.55 2.43z" clip-path="url(#XMLID_1496_)" fill="#56413f"/>


<path class="st24" d="m297.5 308.4c1.05 0 1.71 1.16 1.15 2.05-1.67 2.67-4.97 7.01-8.77 7.01-3.79 0-7.09-4.33-8.77-7.01-.56-.89.09-2.05 1.15-2.05z" fill="#fff"/>






<clipPath id="XMLID_1498_">
<use width="100%" height="100%" xlink:href="#XMLID_6_"/>
</clipPath>







<rect class="st179" x="448.9" y="390.3" width="70.82" height="9.2" fill="#a9e6e6"/>
<rect class="st180" x="448.9" y="390.3" width="40.47" height="9.2" fill="#95c6c4"/>
<rect class="st0" x="451.8" y="391.6" width="67.98" height="6.47" fill="#fff8ee"/>
<rect class="st90" x="451.8" y="391.6" width="37.67" height="6.47" opacity=".1"/><rect class="st181" transform="rotate(180 492.5 384)" x="457.1" y="377.6" width="70.82" height="12.86" fill="#b76565"/>

<rect class="st182" transform="rotate(180 507.7 384.1)" x="487.5" y="377.7" width="40.47" height="12.73" fill="#e67676"/>

<rect class="st0" transform="rotate(180 491.1 384.1)" x="457.1" y="379.2" width="68.01" height="9.86" fill="#fff8ee"/>

<rect class="st90" transform="rotate(180 472.3 384.1)" x="457.1" y="379.2" width="30.45" height="9.86" opacity=".1"/>


<rect class="st183" x="456" y="399.1" width="60.04" height="14.28" fill="#f2f062"/>
<rect class="st184" x="456" y="399.1" width="34.31" height="14.28" fill="#ccc656"/>
<rect class="st0" x="458.5" y="401.2" width="57.63" height="10.04" fill="#fff8ee"/>
<rect class="st90" x="458.5" y="401.2" width="31.93" height="10.04" opacity=".1"/>




<clipPath id="XMLID_1499_">
<use width="100%" height="100%" xlink:href="#XMLID_992_"/>
</clipPath>
<polygon class="st185" points="70.54 402.5 47.17 402.9 46.14 392.2 49.4 392.1 50.41 375.9 56.32 376 58.87 365 120.9 368.9 119.6 377.7 128.6 377.9 128.6 389 133.9 388.8 133.9 399.8 109.1 402.2 124.9 402.4 124.9 413.3 40.64 413.5 42.36 404.6" clip-path="url(#XMLID_1499_)" fill="#fffdf0"/>
<path class="st186" d="m80.61 366.2-2.749 10.12 7.52 1.13-1.69 12.41-9.4.75.75 11.47 9.59.19-3.76 15.8-43.63-4.531c.157.0163 13.83-45.55 13.79-50.2z" clip-path="url(#XMLID_1499_)" fill="#e6e4d8"/>
<g class="st186" clip-path="url(#XMLID_1499_)" opacity=".1">
<path d="m93.04 382.9-23.55-1.32 15.02 2.74s-10.15.3-9.84.41c.3.1 9.54.71 9.54.71z" fill="#4c4730"/>
<path d="m79.74 369.8c.81.1 30.85 2.54 30.85 2.54l-31.46-1.42 12.99 2.23-13.5-.3z" fill="#363636"/><g fill="#232317">
<path d="m80.25 368.1c-.3.2-10.45 1.42-10.45 1.42l9.95.3z"/>
<polygon points="74.57 394.2 60.36 396 74.67 395.4"/>
<polygon points="74.62 397.2 57.97 399.8 74.62 398.4"/></g><g fill="#363636">
<polygon points="88.98 395.6 74.77 396.2 74.57 394.6"/>
<polygon points="125.2 409.2 126.5 406.3 105.5 406.9 125.1 407.6 98.79 409.1"/>
<path d="m133.8 391.8-21.41 1.6 19.92-.11-7.24 1.6 8.42-.21s-18.22 4.58-17.9 4.26 21.09-1.6 21.09-1.6z" image-rendering="optimizeQuality"/>
<polygon points="129 383.7 128.9 380.9 99.33 380.5 126.6 382.3 94.75 384.1"/>
<path d="m94.76 406c-.43 0-10.3-1.89-10.3-1.89l-1.02 3.48z"/></g><g fill="#232317">
<path d="m82.87 409.9c-.44.14-23.64-1.16-23.64-1.16l23.35 2.61z"/>
<polygon points="50.38 378.6 60.53 380.6 49.08 381.3"/>
<polygon points="57.92 368.3 59.08 368.9 69.96 370.8 57.2 369.9"/>
</g></g>
</g>
</g>
</g><g transform="matrix(.9998 0 0 1 218.6 -58.8)" style=""><path class="st187" d="m782.4 705h-730.7c-2.829 0-5.115-2.278-5.115-5.097s2.286-5.097 5.115-5.097h730.7c2.829 0 5.115 2.278 5.115 5.097s-2.286 5.097-5.115 5.097z" fill="#d1c2ae" stroke-width="1.426"/></g><g transform="matrix(.4208 0 0 .4326 131.3 -91.36)"><rect x="1026" y="1404" width="389" height="251.3" fill="#1f2024" style="paint-order:fill markers stroke"/><path d="m1023 1397c-3.041 0-5.505 2.162-5.507 4.829l-.1737 255.8c0 2.666 2.466 4.828 5.507 4.828h178.2l-.2375 4.44c-.024 2.211-1.664 4.179-3.106 4.179h-97.01v11.14h241.5v-11.14s-64.75-.1361-97.12 0c-1.89-.6047-2.925-2.258-2.961-4.08.016-13.33-.2746-4.538-.2746-4.538h175.5c3.041 0 5.506-2.161 5.507-4.828l.1737-255.8c0-2.667-2.465-4.829-5.507-4.829zm5.506 9.657h383.4l-.1737 246.2h-383.4z" color="#000000" fill="#1f2024" font-weight="400" overflow="visible" solid-color="#000000" stroke-width=".5622" style="font-feature-settings:normal;font-variant-alternates:normal;font-variant-caps:normal;font-variant-ligatures:normal;font-variant-numeric:normal;font-variant-position:normal;isolation:auto;mix-blend-mode:normal;paint-order:stroke fill markers;shape-padding:0;text-decoration-color:#000000;text-decoration-line:none;text-decoration-style:solid;text-indent:0;text-orientation:mixed;text-transform:none;white-space:normal"/><g fill="#2d2f34"><rect x="1109" y="1466" width="228.1" height="127.7" style="paint-order:fill markers stroke"/><rect x="1062" y="1630" width="329.1" height="1.734" style="paint-order:fill markers stroke"/><rect x="1092" y="1618" width="272.1" height="1.734" style="paint-order:fill markers stroke"/></g><rect x="1201" y="1529" width="44.51" height="142.4" fill="#3c3e46" style="paint-order:fill markers stroke"/><rect x="1101" y="1671" width="241.5" height="11.14" fill="#3c3e46" style="paint-order:fill markers stroke"/><rect x="1067" y="1428" width="324.4" height="2.312" fill="#2d2f34" style="paint-order:fill markers stroke"/><rect x="1089" y="1442" width="287.5" height="2.312" fill="#2d2f34" style="paint-order:fill markers stroke"/><g transform="matrix(3.187 0 0 3.516 693.9 594.8)" fill="#535353" opacity=".801" stroke="#535353" stroke-linecap="round" stroke-linejoin="round" aria-label="Microsoft Excel"><path d="m127.7 16.8h-4.885v-11.89l-3.53 7.718h-3.389l-3.53-7.718v11.89h-4.63v-17.76h5.704l4.284 8.911 4.272-8.911h5.704zm9.323-15.31h-4.86v-3.257h4.86zm-.1278 15.31h-4.604v-13.4h4.604zm11.83.3579c-2.357-.0041-4.906-.4735-6.676-2.17-1.414-1.341-1.967-3.377-1.844-5.293.0366-1.857.8559-3.703 2.314-4.856 1.879-1.489 4.372-1.874 6.698-1.792 1.515.05778 3.005.4531 4.394 1.059v3.662c-.2981-.03319-.6546.1069-.8698-.1711-1.509-1.299-3.689-1.901-5.595-1.225-1.351.4842-2.128 1.929-2.178 3.326-.1073 1.357.2087 2.936 1.408 3.731 1.207.7952 2.767.786 4.124.4585.9361-.2308 1.754-.7813 2.458-1.431.1963.04767.5842-.09862.6522.07892v3.583c-1.538.6715-3.206 1.057-4.885 1.038zm18.33-9.663c-.5374.03058-1.053-.1685-1.593-.1594-1.419-.1015-2.864.0203-4.214.4934v8.971h-4.604v-13.4h4.604v1.968c1.278-1.056 2.797-1.923 4.48-2.01.3767.09677 1.225-.2006 1.326.2156v3.918zm11.65 5.869c1.007-1.176.9474-2.862.8377-4.318-.1141-1.201-.6833-2.571-1.942-2.911-1.219-.3475-2.796-.1876-3.517 1.004-.7844 1.295-.7491 2.909-.5705 4.366.1429 1.148.8292 2.343 2.023 2.597 1.075.2502 2.403.1647 3.168-.7381zm5.665-3.257c.0399 2.009-.6906 4.101-2.269 5.387-1.911 1.606-4.551 1.876-6.939 1.656-2.118-.1837-4.289-1.145-5.46-3.014-1.157-1.828-1.292-4.167-.7961-6.236.5057-2.094 2.192-3.771 4.205-4.41 2.014-.6443 4.213-.658 6.26-.1646 2.117.5063 3.99 2.109 4.631 4.242.2619.8182.3666 1.682.3665 2.54zm15.81 2.446c.0514 1.509-.9765 2.83-2.25 3.505-2.104 1.154-4.594 1.208-6.925 1.038-1.456-.1382-2.904-.4561-4.265-1v-3.531c.4812-.1002.8202.289 1.215.501 2.009 1.043 4.367 1.545 6.598 1.06.6805-.08187 1.256-.9334.7057-1.508-.7008-.4867-1.597-.5251-2.41-.6928-1.733-.26-3.626-.5176-4.976-1.754-1.387-1.293-1.442-3.76-.0577-5.079 1.622-1.633 4.013-2.043 6.211-2.058 1.869-.01046 3.746.3076 5.503.954v3.388c-.4948.09907-.8418-.3278-1.276-.4918-1.814-.8533-3.929-1.307-5.891-.7359-.6874.1002-1.176.9793-.5874 1.507.7737.5052 1.742.543 2.624.7312 1.663.2854 3.513.4594 4.8 1.687.6652.6386.9957 1.561.9821 2.479zm12.09.8112c1.007-1.176.9474-2.862.8377-4.318-.1141-1.201-.6833-2.571-1.942-2.911-1.219-.3475-2.796-.1876-3.517 1.004-.7844 1.295-.7491 2.909-.5705 4.366.1429 1.148.8292 2.343 2.023 2.597 1.075.2502 2.403.1647 3.168-.7381zm5.666-3.257c.0399 2.009-.6906 4.101-2.269 5.387-1.911 1.606-4.551 1.876-6.939 1.656-2.118-.1837-4.289-1.145-5.46-3.014-1.157-1.828-1.292-4.167-.7961-6.236.5058-2.094 2.192-3.771 4.205-4.41 2.014-.6443 4.213-.658 6.26-.1646 2.117.5063 3.99 2.109 4.631 4.242.2619.8182.3666 1.682.3665 2.54zm12.64-8.72c-.7421.0086-1.445-.3631-2.2-.2982-.7629.01261-1.822.04712-2.13.9124-.0319.3644-.5424 1.472.0817 1.402h3.289v2.911h-3.402v10.49h-4.604v-10.49h-1.969v-2.911h1.969c-.0719-1.567.3184-3.336 1.67-4.276 1.73-1.19 3.934-1.061 5.927-.9299.4158.1652 1.457-.1765 1.368.4742v2.715zm12.78 15.29c-1.903.4214-3.905.54-5.824.1589-1.181-.2406-2.368-.9523-2.764-2.166-.4859-1.356-.2817-2.816-.3261-4.227v-4.133h-1.893v-2.911h1.893v-3.829h4.604v3.829h4.31v2.911h-4.31c.0117 2.077-.0279 4.156.0301 6.232.0374.7955.6554 1.507 1.461 1.548.8569.1602 1.717-.1064 2.519-.3599.3757-.1231.3071.2037.2995.4687 5e-5.826.00011 1.652.00016 2.478z" stroke-width=".5939" style="paint-order:stroke fill markers"/><g transform="matrix(1.425,0,0,1.366,65.64,126.4)" stroke-width=".657" style="paint-order:normal" aria-label="Word"><path d="m70.18-77.01-2.936 10.9h-3.111l-1.955-7.101-1.903 7.101h-3.111l-2.936-10.9h2.936l1.676 7.504 2.006-7.504h2.804l1.911 7.504 1.757-7.504z"/><path d="m80.31-70.22c.02529 1.33-.4634 2.737-1.578 3.534-1.174.8511-2.721.9519-4.11.7261-1.272-.2073-2.454-1.036-2.944-2.25-.4648-1.143-.4845-2.45-.1459-3.629.3768-1.319 1.539-2.324 2.869-2.601 1.227-.2548 2.56-.2183 3.713.3072 1.26.571 2.047 1.889 2.16 3.241.02402.2231.03481.4475.03482.6718zm-3.243 1.999c.5853-.7449.5381-1.757.4795-2.65-.06668-.7398-.3915-1.622-1.196-1.811-.6734-.179-1.522-.05138-1.902.5985-.4831.8125-.4542 1.814-.3534 2.722.08151.7079.4845 1.481 1.247 1.617.5972.1252 1.329.04207 1.724-.4756z"/><path d="m88.18-71.82c-.294.02174-.5722-.09933-.8674-.09471-.8277-.06798-1.675.0053-2.456.2997v5.505h-2.635v-8.221h2.635v1.208c.7496-.6635 1.669-1.23 2.701-1.237.2496.03468.7325-.1148.6223.2773v2.263z"/><path d="m98.74-66.11h-2.635v-.8565c-.7588.6489-1.71 1.151-2.736 1.082-1.127.01483-2.168-.7026-2.659-1.7-.614-1.227-.679-2.685-.3808-4.008.3237-1.3 1.294-2.47 2.618-2.82 1.033-.314 2.152-.1069 3.096.3812.1347.004.02819-.3755.06214-.5317v-2.938h2.635v11.39zm-2.635-2.269v-4.034c-.8769-.3405-2.065-.359-2.709.4319-.6265.8329-.6015 1.971-.3877 2.944.1288.6588.738 1.134 1.402 1.14.5986.0534 1.205-.1409 1.694-.482z"/></g></g><path d="m551.3 1183a31.91 30.93 0 01-31.9 30.93 31.91 30.93 0 01-31.92-30.91 31.91 30.93 0 0131.89-30.94 31.91 30.93 0 0131.93 30.9" fill="#535353" opacity=".801" stroke="#535353" stroke-linecap="round" stroke-width="2.744" style="paint-order:fill markers stroke"/><rect x="1952" y="1140" width="12.12" height="84.21" fill="#5a5d5d" style="paint-order:fill markers stroke"/><g transform="matrix(4.517 0 0 4.84 157.6 548.7)" fill="#fff" stroke-width="4.059"><g fill="#fff"><path d="m-41.36 70.9h-44.05c-1.212 0-2.196-.7735-2.196-1.727 0-.9528.9839-1.727 2.196-1.727h44.05c1.212 0 2.196.7735 2.196 1.727 0 .9528-.9839 1.727-2.196 1.727z" stroke-width="3.894"/><g stroke-width="3.266"><path d="m-31.8 70.9h-4.468c-.8527 0-1.545-.7735-1.545-1.727 0-.9528.6921-1.727 1.545-1.727h4.468c.8527 0 1.545.7735 1.545 1.727 0 .9528-.6921 1.727-1.545 1.727z"/><path d="m-19.27 70.9h-7.866c-.8527 0-1.545-.7735-1.545-1.727 0-.9528.6921-1.727 1.545-1.727h7.866c.8527 0 1.545.7735 1.545 1.727 0 .9528-.6921 1.727-1.545 1.727z"/><path d="m-19.27 77.33h-29.71c-.8527 0-1.545-.7735-1.545-1.727 0-.9528.6921-1.727 1.545-1.727h29.71c.8527 0 1.545.7735 1.545 1.727 0 .9528-.6921 1.727-1.545 1.727z"/><path d="m-54.34 77.33h-1.792c-.8527 0-1.545-.7735-1.545-1.727 0-.9528.6921-1.727 1.545-1.727h1.792c.8527 0 1.545.7735 1.545 1.727 0 .9528-.6921 1.727-1.545 1.727z"/><path d="m-61.68 77.33h-4.499c-.8527 0-1.545-.7735-1.545-1.727 0-.9528.6921-1.727 1.545-1.727h4.499c.8527 0 1.545.7735 1.545 1.727 0 .9528-.6921 1.727-1.545 1.727z"/><path d="m-33.45 64.46h-15.53c-.8527 0-1.545-.7735-1.545-1.727 0-.9528.6921-1.727 1.545-1.727h15.53c.8527 0 1.545.7735 1.545 1.727 0 .9528-.6921 1.727-1.545 1.727z"/><path d="m-33.45 58.01h-3.884c-.8527 0-1.545-.7735-1.545-1.727 0-.9528.6921-1.727 1.545-1.727h3.884c.8527 0 1.545.7735 1.545 1.727 0 .9528-.6921 1.727-1.545 1.727z"/><path d="m-43.55 83.77h-5.435c-.8527 0-1.545-.7735-1.545-1.727 0-.9528.6921-1.727 1.545-1.727h5.435c.8527 0 1.545.7735 1.545 1.727 0 .9528-.689 1.727-1.545 1.727z"/></g><path d="m-4.663-10.6h-49.69c-1.367 0-2.477-.8114-2.477-1.812 0-.9995 1.11-1.812 2.477-1.812h49.69c1.367 0 2.477.8114 2.477 1.812 0 .9995-1.11 1.812-2.477 1.812z" stroke-width="4.236"/><g stroke-width="3.553"><path d="m6.117-10.6h-5.04c-.9618 0-1.743-.8114-1.743-1.812 0-.9995.7807-1.812 1.743-1.812h5.04c.9618 0 1.743.8114 1.743 1.812 0 .9995-.7807 1.812-1.743 1.812z"/><path d="m20.25-10.6h-8.873c-.9618 0-1.743-.8114-1.743-1.812 0-.9995.7807-1.812 1.743-1.812h8.873c.9618 0 1.743.8114 1.743 1.812 0 .9995-.7807 1.812-1.743 1.812z"/><path d="m20.25-3.849h-33.51c-.9618 0-1.743-.8114-1.743-1.812 0-.9995.7807-1.812 1.743-1.812h33.51c.9618 0 1.743.8114 1.743 1.812 0 .9995-.7807 1.812-1.743 1.812z"/><path d="m-19.3-3.849h-2.022c-.9618 0-1.743-.8114-1.743-1.812 0-.9995.7807-1.812 1.743-1.812h2.022c.9618 0 1.743.8114 1.743 1.812 0 .9995-.7807 1.812-1.743 1.812z"/><path d="m-27.59-3.849h-5.075c-.9618 0-1.743-.8114-1.743-1.812 0-.9995.7807-1.812 1.743-1.812h5.075c.9618 0 1.743.8114 1.743 1.812 0 .9995-.7807 1.812-1.743 1.812z"/><path d="m4.257-17.36h-17.52c-.9618 0-1.743-.8114-1.743-1.812 0-.9995.7807-1.812 1.743-1.812h17.52c.9618 0 1.743.8114 1.743 1.812 0 .9995-.7807 1.812-1.743 1.812z"/><path d="m4.257-24.11h-4.381c-.9618 0-1.743-.8114-1.743-1.812 0-.9995.7807-1.812 1.743-1.812h4.381c.9618 0 1.743.8114 1.743 1.812 0 .9995-.7807 1.812-1.743 1.812z"/><path d="m-7.137 2.909h-6.13c-.9618 0-1.743-.8114-1.743-1.812 0-.9995.7807-1.812 1.743-1.812h6.13c.9618 0 1.743.8114 1.743 1.812 0 .9995-.7772 1.812-1.743 1.812z"/></g><path d="m-46.06 161h59.31c1.632 0 2.957-.8873 2.957-1.981 0-1.093-1.325-1.981-2.957-1.981h-59.31c-1.632 0-2.957.8873-2.957 1.981 0 1.093 1.325 1.981 2.957 1.981z" stroke-width="4.84"/><g stroke-width="4.059"><path d="m-58.93 161h6.015c1.148 0 2.08-.8873 2.08-1.981 0-1.093-.9318-1.981-2.08-1.981h-6.015c-1.148 0-2.08.8873-2.08 1.981 0 1.093.9318 1.981 2.08 1.981z"/><path d="m-75.8 161h10.59c1.148 0 2.08-.8873 2.08-1.981 0-1.093-.9318-1.981-2.08-1.981h-10.59c-1.148 0-2.08.8873-2.08 1.981 0 1.093.9318 1.981 2.08 1.981z"/><path d="m-75.8 168.4h40c1.148 0 2.08-.8873 2.08-1.981 0-1.093-.9318-1.981-2.08-1.981h-40c-1.148 0-2.08.8873-2.08 1.981 0 1.093.9318 1.981 2.08 1.981z"/><path d="m-28.59 168.4h2.413c1.148 0 2.08-.8873 2.08-1.981 0-1.093-.9318-1.981-2.08-1.981h-2.413c-1.148 0-2.08.8873-2.08 1.981 0 1.093.9318 1.981 2.08 1.981z"/><path d="m-18.7 168.4h6.057c1.148 0 2.08-.8873 2.08-1.981 0-1.093-.9318-1.981-2.08-1.981h-6.057c-1.148 0-2.08.8873-2.08 1.981 0 1.093.9318 1.981 2.08 1.981z"/><path d="m-56.71 153.6h20.91c1.148 0 2.08-.8873 2.08-1.981 0-1.093-.9318-1.981-2.08-1.981h-20.91c-1.148 0-2.08.8873-2.08 1.981 0 1.093.9318 1.981 2.08 1.981z"/><path d="m-56.71 146.2h5.229c1.148 0 2.08-.8873 2.08-1.981 0-1.093-.9318-1.981-2.08-1.981h-5.229c-1.148 0-2.08.8873-2.08 1.981 0 1.093.9318 1.981 2.08 1.981z"/><path d="m-43.11 175.8h7.317c1.148 0 2.08-.8873 2.08-1.981 0-1.093-.9318-1.981-2.08-1.981h-7.317c-1.148 0-2.08.8873-2.08 1.981 0 1.093.9276 1.981 2.08 1.981z"/></g></g><g class="control-icon play" transform="matrix(.08141 0 0 .07062 -54.73 -51.72)">
<path d="m327.1 0h-236.8c-15.9 0-28.85 12.96-28.85 28.86v412.9c0 15.92 12.95 28.86 28.85 28.86h290.1c15.92 0 28.86-12.94 28.86-28.86v-352.5zm6.81 43.18 36 39.12h-36zm51.08 398.5c0 2.542-2.081 4.629-4.634 4.629h-290.1c-2.551 0-4.62-2.087-4.62-4.629v-412.9c0-2.548 2.069-4.613 4.62-4.613h219.4v70.18c0 6.682 5.444 12.1 12.13 12.1h63.2v335.2zm-253.1-280.7-25.29-99.67h18.37l11.69 49.8c1.646 6.954 3.23 14 4.592 20.52 1.555-6.682 3.425-13.77 5.272-20.72l13.12-49.58h16.86l11.97 49.93c1.552 6.517 3.094 13.24 4.395 19.74 1.339-5.784 2.823-11.72 4.348-17.83l.562-2.217 12.99-49.62h18l-28.25 99.67h-16.83l-12.4-51.17c-1.531-6.289-2.87-12.05-3.975-17.69-1.292 5.618-2.799 11.37-4.643 17.79l-13.96 51.07h-16.82v-.01zm110.7-21.18h108.4c5.013 0 9.079 4.069 9.079 9.079 0 5.012-4.066 9.079-9.079 9.079h-108.4c-5.012 0-9.079-4.067-9.079-9.079.001-5.009 4.068-9.079 9.079-9.079zm117.5 69.7c0 5.012-4.066 9.079-9.079 9.079h-225.7c-5.012 0-9.079-4.067-9.079-9.079 0-5.013 4.066-9.079 9.079-9.079h225.7c5.012 0 9.079 4.067 9.079 9.079zm0 53.72c0 5.012-4.066 9.079-9.079 9.079h-225.7c-5.012 0-9.079-4.067-9.079-9.079 0-5.013 4.066-9.079 9.079-9.079h225.7c5.012 0 9.079 4.067 9.079 9.079zm0 53.72c0 5.013-4.066 9.079-9.079 9.079h-225.7c-5.012 0-9.079-4.066-9.079-9.079 0-5.012 4.066-9.079 9.079-9.079h225.7c5.012 0 9.079 4.067 9.079 9.079zm0 54.47c0 5.013-4.066 9.079-9.079 9.079h-225.7c-5.012 0-9.079-4.066-9.079-9.079s4.066-9.079 9.079-9.079h225.7c5.012 0 9.079 4.066 9.079 9.079z"/>
</g><g class="control-icon stop" transform="matrix(.06477 0 0 .05438 -84.44 37.78)" fill="#fff" stroke-width="4.059"><path d="m327.1 0h-236.8c-15.9 0-28.85 12.96-28.85 28.86v412.9c0 15.92 12.95 28.86 28.85 28.86h290.1c15.92 0 28.86-12.94 28.86-28.86v-352.5zm6.81 43.18 36 39.12h-36zm51.08 398.5c0 2.542-2.081 4.629-4.634 4.629h-290.1c-2.551 0-4.62-2.087-4.62-4.629v-412.9c0-2.548 2.069-4.613 4.62-4.613h219.4v70.18c0 6.682 5.444 12.1 12.13 12.1h63.2v335.2zm-253.1-280.7-25.29-99.67h18.37l11.69 49.8c1.646 6.954 3.23 14 4.592 20.52 1.555-6.682 3.425-13.77 5.272-20.72l13.12-49.58h16.86l11.97 49.93c1.552 6.517 3.094 13.24 4.395 19.74 1.339-5.784 2.823-11.72 4.348-17.83l.562-2.217 12.99-49.62h18l-28.25 99.67h-16.83l-12.4-51.17c-1.531-6.289-2.87-12.05-3.975-17.69-1.292 5.618-2.799 11.37-4.643 17.79l-13.96 51.07h-16.82v-.01zm110.7-21.18h108.4c5.013 0 9.079 4.069 9.079 9.079 0 5.012-4.066 9.079-9.079 9.079h-108.4c-5.012 0-9.079-4.067-9.079-9.079.001-5.009 4.068-9.079 9.079-9.079zm117.5 69.7c0 5.012-4.066 9.079-9.079 9.079h-225.7c-5.012 0-9.079-4.067-9.079-9.079 0-5.013 4.066-9.079 9.079-9.079h225.7c5.012 0 9.079 4.067 9.079 9.079zm0 53.72c0 5.012-4.066 9.079-9.079 9.079h-225.7c-5.012 0-9.079-4.067-9.079-9.079 0-5.013 4.066-9.079 9.079-9.079h225.7c5.012 0 9.079 4.067 9.079 9.079zm0 53.72c0 5.013-4.066 9.079-9.079 9.079h-225.7c-5.012 0-9.079-4.066-9.079-9.079 0-5.012 4.066-9.079 9.079-9.079h225.7c5.012 0 9.079 4.067 9.079 9.079zm0 54.47c0 5.013-4.066 9.079-9.079 9.079h-225.7c-5.012 0-9.079-4.066-9.079-9.079s4.066-9.079 9.079-9.079h225.7c5.012 0 9.079 4.066 9.079 9.079z"/></g><g class="control-icon stop" transform="matrix(.08515 0 0 .07134 -28.93 116.9)" fill="#fff" stroke-width="4.059"><path d="m327.1 0h-236.8c-15.9 0-28.85 12.96-28.85 28.86v412.9c0 15.92 12.95 28.86 28.85 28.86h290.1c15.92 0 28.86-12.94 28.86-28.86v-352.5zm6.81 43.18 36 39.12h-36zm51.08 398.5c0 2.542-2.081 4.629-4.634 4.629h-290.1c-2.551 0-4.62-2.087-4.62-4.629v-412.9c0-2.548 2.069-4.613 4.62-4.613h219.4v70.18c0 6.682 5.444 12.1 12.13 12.1h63.2v335.2zm-253.1-280.7-25.29-99.67h18.37l11.69 49.8c1.646 6.954 3.23 14 4.592 20.52 1.555-6.682 3.425-13.77 5.272-20.72l13.12-49.58h16.86l11.97 49.93c1.552 6.517 3.094 13.24 4.395 19.74 1.339-5.784 2.823-11.72 4.348-17.83l.562-2.217 12.99-49.62h18l-28.25 99.67h-16.83l-12.4-51.17c-1.531-6.289-2.87-12.05-3.975-17.69-1.292 5.618-2.799 11.37-4.643 17.79l-13.96 51.07h-16.82v-.01zm110.7-21.18h108.4c5.013 0 9.079 4.069 9.079 9.079 0 5.012-4.066 9.079-9.079 9.079h-108.4c-5.012 0-9.079-4.067-9.079-9.079.001-5.009 4.068-9.079 9.079-9.079zm117.5 69.7c0 5.012-4.066 9.079-9.079 9.079h-225.7c-5.012 0-9.079-4.067-9.079-9.079 0-5.013 4.066-9.079 9.079-9.079h225.7c5.012 0 9.079 4.067 9.079 9.079zm0 53.72c0 5.012-4.066 9.079-9.079 9.079h-225.7c-5.012 0-9.079-4.067-9.079-9.079 0-5.013 4.066-9.079 9.079-9.079h225.7c5.012 0 9.079 4.067 9.079 9.079zm0 53.72c0 5.013-4.066 9.079-9.079 9.079h-225.7c-5.012 0-9.079-4.066-9.079-9.079 0-5.012 4.066-9.079 9.079-9.079h225.7c5.012 0 9.079 4.067 9.079 9.079zm0 54.47c0 5.013-4.066 9.079-9.079 9.079h-225.7c-5.012 0-9.079-4.066-9.079-9.079s4.066-9.079 9.079-9.079h225.7c5.012 0 9.079 4.066 9.079 9.079z"/></g></g><g transform="matrix(-4.517 0 0 4.84 2257 548.7)" fill="#fff" stroke-width="4.059"><g fill="#fff"><path d="m-41.36 70.9h-44.05c-1.212 0-2.196-.7735-2.196-1.727 0-.9528.9839-1.727 2.196-1.727h44.05c1.212 0 2.196.7735 2.196 1.727 0 .9528-.9839 1.727-2.196 1.727z" stroke-width="3.894"/><g stroke-width="3.266"><path d="m-31.8 70.9h-4.468c-.8527 0-1.545-.7735-1.545-1.727 0-.9528.6921-1.727 1.545-1.727h4.468c.8527 0 1.545.7735 1.545 1.727 0 .9528-.6921 1.727-1.545 1.727z"/><path d="m-19.27 70.9h-7.866c-.8527 0-1.545-.7735-1.545-1.727 0-.9528.6921-1.727 1.545-1.727h7.866c.8527 0 1.545.7735 1.545 1.727 0 .9528-.6921 1.727-1.545 1.727z"/><path d="m-19.27 77.33h-29.71c-.8527 0-1.545-.7735-1.545-1.727 0-.9528.6921-1.727 1.545-1.727h29.71c.8527 0 1.545.7735 1.545 1.727 0 .9528-.6921 1.727-1.545 1.727z"/><path d="m-54.34 77.33h-1.792c-.8527 0-1.545-.7735-1.545-1.727 0-.9528.6921-1.727 1.545-1.727h1.792c.8527 0 1.545.7735 1.545 1.727 0 .9528-.6921 1.727-1.545 1.727z"/><path d="m-61.68 77.33h-4.499c-.8527 0-1.545-.7735-1.545-1.727 0-.9528.6921-1.727 1.545-1.727h4.499c.8527 0 1.545.7735 1.545 1.727 0 .9528-.6921 1.727-1.545 1.727z"/><path d="m-33.45 64.46h-15.53c-.8527 0-1.545-.7735-1.545-1.727 0-.9528.6921-1.727 1.545-1.727h15.53c.8527 0 1.545.7735 1.545 1.727 0 .9528-.6921 1.727-1.545 1.727z"/><path d="m-33.45 58.01h-3.884c-.8527 0-1.545-.7735-1.545-1.727 0-.9528.6921-1.727 1.545-1.727h3.884c.8527 0 1.545.7735 1.545 1.727 0 .9528-.6921 1.727-1.545 1.727z"/><path d="m-43.55 83.77h-5.435c-.8527 0-1.545-.7735-1.545-1.727 0-.9528.6921-1.727 1.545-1.727h5.435c.8527 0 1.545.7735 1.545 1.727 0 .9528-.689 1.727-1.545 1.727z"/></g><path d="m-4.663-10.6h-49.69c-1.367 0-2.477-.8114-2.477-1.812 0-.9995 1.11-1.812 2.477-1.812h49.69c1.367 0 2.477.8114 2.477 1.812 0 .9995-1.11 1.812-2.477 1.812z" stroke-width="4.236"/><g stroke-width="3.553"><path d="m6.117-10.6h-5.04c-.9618 0-1.743-.8114-1.743-1.812 0-.9995.7807-1.812 1.743-1.812h5.04c.9618 0 1.743.8114 1.743 1.812 0 .9995-.7807 1.812-1.743 1.812z"/><path d="m20.25-10.6h-8.873c-.9618 0-1.743-.8114-1.743-1.812 0-.9995.7807-1.812 1.743-1.812h8.873c.9618 0 1.743.8114 1.743 1.812 0 .9995-.7807 1.812-1.743 1.812z"/><path d="m20.25-3.849h-33.51c-.9618 0-1.743-.8114-1.743-1.812 0-.9995.7807-1.812 1.743-1.812h33.51c.9618 0 1.743.8114 1.743 1.812 0 .9995-.7807 1.812-1.743 1.812z"/><path d="m-19.3-3.849h-2.022c-.9618 0-1.743-.8114-1.743-1.812 0-.9995.7807-1.812 1.743-1.812h2.022c.9618 0 1.743.8114 1.743 1.812 0 .9995-.7807 1.812-1.743 1.812z"/><path d="m-27.59-3.849h-5.075c-.9618 0-1.743-.8114-1.743-1.812 0-.9995.7807-1.812 1.743-1.812h5.075c.9618 0 1.743.8114 1.743 1.812 0 .9995-.7807 1.812-1.743 1.812z"/><path d="m4.257-17.36h-17.52c-.9618 0-1.743-.8114-1.743-1.812 0-.9995.7807-1.812 1.743-1.812h17.52c.9618 0 1.743.8114 1.743 1.812 0 .9995-.7807 1.812-1.743 1.812z"/><path d="m4.257-24.11h-4.381c-.9618 0-1.743-.8114-1.743-1.812 0-.9995.7807-1.812 1.743-1.812h4.381c.9618 0 1.743.8114 1.743 1.812 0 .9995-.7807 1.812-1.743 1.812z"/><path d="m-7.137 2.909h-6.13c-.9618 0-1.743-.8114-1.743-1.812 0-.9995.7807-1.812 1.743-1.812h6.13c.9618 0 1.743.8114 1.743 1.812 0 .9995-.7772 1.812-1.743 1.812z"/></g><path d="m-46.06 161h59.31c1.632 0 2.957-.8873 2.957-1.981 0-1.093-1.325-1.981-2.957-1.981h-59.31c-1.632 0-2.957.8873-2.957 1.981 0 1.093 1.325 1.981 2.957 1.981z" stroke-width="4.84"/><g stroke-width="4.059"><path d="m-58.93 161h6.015c1.148 0 2.08-.8873 2.08-1.981 0-1.093-.9318-1.981-2.08-1.981h-6.015c-1.148 0-2.08.8873-2.08 1.981 0 1.093.9318 1.981 2.08 1.981z"/><path d="m-75.8 161h10.59c1.148 0 2.08-.8873 2.08-1.981 0-1.093-.9318-1.981-2.08-1.981h-10.59c-1.148 0-2.08.8873-2.08 1.981 0 1.093.9318 1.981 2.08 1.981z"/><path d="m-75.8 168.4h40c1.148 0 2.08-.8873 2.08-1.981 0-1.093-.9318-1.981-2.08-1.981h-40c-1.148 0-2.08.8873-2.08 1.981 0 1.093.9318 1.981 2.08 1.981z"/><path d="m-28.59 168.4h2.413c1.148 0 2.08-.8873 2.08-1.981 0-1.093-.9318-1.981-2.08-1.981h-2.413c-1.148 0-2.08.8873-2.08 1.981 0 1.093.9318 1.981 2.08 1.981z"/><path d="m-18.7 168.4h6.057c1.148 0 2.08-.8873 2.08-1.981 0-1.093-.9318-1.981-2.08-1.981h-6.057c-1.148 0-2.08.8873-2.08 1.981 0 1.093.9318 1.981 2.08 1.981z"/><path d="m-56.71 153.6h20.91c1.148 0 2.08-.8873 2.08-1.981 0-1.093-.9318-1.981-2.08-1.981h-20.91c-1.148 0-2.08.8873-2.08 1.981 0 1.093.9318 1.981 2.08 1.981z"/><path d="m-56.71 146.2h5.229c1.148 0 2.08-.8873 2.08-1.981 0-1.093-.9318-1.981-2.08-1.981h-5.229c-1.148 0-2.08.8873-2.08 1.981 0 1.093.9318 1.981 2.08 1.981z"/><path d="m-43.11 175.8h7.317c1.148 0 2.08-.8873 2.08-1.981 0-1.093-.9318-1.981-2.08-1.981h-7.317c-1.148 0-2.08.8873-2.08 1.981 0 1.093.9276 1.981 2.08 1.981z"/></g></g><g class="control-icon stop" transform="matrix(.08141 0 0 .07062 -54.73 -51.72)"><path d="m327.1 0h-236.8c-15.9 0-28.85 12.96-28.85 28.86v412.9c0 15.92 12.95 28.86 28.85 28.86h290.1c15.92 0 28.86-12.94 28.86-28.86v-352.5zm6.81 43.18 36 39.12h-36zm51.08 398.5c0 2.542-2.081 4.629-4.634 4.629h-290.1c-2.551 0-4.62-2.087-4.62-4.629v-412.9c0-2.548 2.069-4.613 4.62-4.613h219.4v70.18c0 6.682 5.444 12.1 12.13 12.1h63.2v335.2zm-253.1-280.7-25.29-99.67h18.37l11.69 49.8c1.646 6.954 3.23 14 4.592 20.52 1.555-6.682 3.425-13.77 5.272-20.72l13.12-49.58h16.86l11.97 49.93c1.552 6.517 3.094 13.24 4.395 19.74 1.339-5.784 2.823-11.72 4.348-17.83l.562-2.217 12.99-49.62h18l-28.25 99.67h-16.83l-12.4-51.17c-1.531-6.289-2.87-12.05-3.975-17.69-1.292 5.618-2.799 11.37-4.643 17.79l-13.96 51.07h-16.82v-.01zm110.7-21.18h108.4c5.013 0 9.079 4.069 9.079 9.079 0 5.012-4.066 9.079-9.079 9.079h-108.4c-5.012 0-9.079-4.067-9.079-9.079.001-5.009 4.068-9.079 9.079-9.079zm117.5 69.7c0 5.012-4.066 9.079-9.079 9.079h-225.7c-5.012 0-9.079-4.067-9.079-9.079 0-5.013 4.066-9.079 9.079-9.079h225.7c5.012 0 9.079 4.067 9.079 9.079zm0 53.72c0 5.012-4.066 9.079-9.079 9.079h-225.7c-5.012 0-9.079-4.067-9.079-9.079 0-5.013 4.066-9.079 9.079-9.079h225.7c5.012 0 9.079 4.067 9.079 9.079zm0 53.72c0 5.013-4.066 9.079-9.079 9.079h-225.7c-5.012 0-9.079-4.066-9.079-9.079 0-5.012 4.066-9.079 9.079-9.079h225.7c5.012 0 9.079 4.067 9.079 9.079zm0 54.47c0 5.013-4.066 9.079-9.079 9.079h-225.7c-5.012 0-9.079-4.066-9.079-9.079s4.066-9.079 9.079-9.079h225.7c5.012 0 9.079 4.066 9.079 9.079z"/></g><g class="control-icon play" transform="matrix(.06477 0 0 .05438 -84.44 37.78)" fill="#fff" stroke-width="4.059"><path d="m327.1 0h-236.8c-15.9 0-28.85 12.96-28.85 28.86v412.9c0 15.92 12.95 28.86 28.85 28.86h290.1c15.92 0 28.86-12.94 28.86-28.86v-352.5zm6.81 43.18 36 39.12h-36zm51.08 398.5c0 2.542-2.081 4.629-4.634 4.629h-290.1c-2.551 0-4.62-2.087-4.62-4.629v-412.9c0-2.548 2.069-4.613 4.62-4.613h219.4v70.18c0 6.682 5.444 12.1 12.13 12.1h63.2v335.2zm-253.1-280.7-25.29-99.67h18.37l11.69 49.8c1.646 6.954 3.23 14 4.592 20.52 1.555-6.682 3.425-13.77 5.272-20.72l13.12-49.58h16.86l11.97 49.93c1.552 6.517 3.094 13.24 4.395 19.74 1.339-5.784 2.823-11.72 4.348-17.83l.562-2.217 12.99-49.62h18l-28.25 99.67h-16.83l-12.4-51.17c-1.531-6.289-2.87-12.05-3.975-17.69-1.292 5.618-2.799 11.37-4.643 17.79l-13.96 51.07h-16.82v-.01zm110.7-21.18h108.4c5.013 0 9.079 4.069 9.079 9.079 0 5.012-4.066 9.079-9.079 9.079h-108.4c-5.012 0-9.079-4.067-9.079-9.079.001-5.009 4.068-9.079 9.079-9.079zm117.5 69.7c0 5.012-4.066 9.079-9.079 9.079h-225.7c-5.012 0-9.079-4.067-9.079-9.079 0-5.013 4.066-9.079 9.079-9.079h225.7c5.012 0 9.079 4.067 9.079 9.079zm0 53.72c0 5.012-4.066 9.079-9.079 9.079h-225.7c-5.012 0-9.079-4.067-9.079-9.079 0-5.013 4.066-9.079 9.079-9.079h225.7c5.012 0 9.079 4.067 9.079 9.079zm0 53.72c0 5.013-4.066 9.079-9.079 9.079h-225.7c-5.012 0-9.079-4.066-9.079-9.079 0-5.012 4.066-9.079 9.079-9.079h225.7c5.012 0 9.079 4.067 9.079 9.079zm0 54.47c0 5.013-4.066 9.079-9.079 9.079h-225.7c-5.012 0-9.079-4.066-9.079-9.079s4.066-9.079 9.079-9.079h225.7c5.012 0 9.079 4.066 9.079 9.079z"/></g><g class="control-icon play" transform="matrix(.08515 0 0 .07134 -28.93 116.9)" fill="#fff" stroke-width="4.059"><path d="m327.1 0h-236.8c-15.9 0-28.85 12.96-28.85 28.86v412.9c0 15.92 12.95 28.86 28.85 28.86h290.1c15.92 0 28.86-12.94 28.86-28.86v-352.5zm6.81 43.18 36 39.12h-36zm51.08 398.5c0 2.542-2.081 4.629-4.634 4.629h-290.1c-2.551 0-4.62-2.087-4.62-4.629v-412.9c0-2.548 2.069-4.613 4.62-4.613h219.4v70.18c0 6.682 5.444 12.1 12.13 12.1h63.2v335.2zm-253.1-280.7-25.29-99.67h18.37l11.69 49.8c1.646 6.954 3.23 14 4.592 20.52 1.555-6.682 3.425-13.77 5.272-20.72l13.12-49.58h16.86l11.97 49.93c1.552 6.517 3.094 13.24 4.395 19.74 1.339-5.784 2.823-11.72 4.348-17.83l.562-2.217 12.99-49.62h18l-28.25 99.67h-16.83l-12.4-51.17c-1.531-6.289-2.87-12.05-3.975-17.69-1.292 5.618-2.799 11.37-4.643 17.79l-13.96 51.07h-16.82v-.01zm110.7-21.18h108.4c5.013 0 9.079 4.069 9.079 9.079 0 5.012-4.066 9.079-9.079 9.079h-108.4c-5.012 0-9.079-4.067-9.079-9.079.001-5.009 4.068-9.079 9.079-9.079zm117.5 69.7c0 5.012-4.066 9.079-9.079 9.079h-225.7c-5.012 0-9.079-4.067-9.079-9.079 0-5.013 4.066-9.079 9.079-9.079h225.7c5.012 0 9.079 4.067 9.079 9.079zm0 53.72c0 5.012-4.066 9.079-9.079 9.079h-225.7c-5.012 0-9.079-4.067-9.079-9.079 0-5.013 4.066-9.079 9.079-9.079h225.7c5.012 0 9.079 4.067 9.079 9.079zm0 53.72c0 5.013-4.066 9.079-9.079 9.079h-225.7c-5.012 0-9.079-4.066-9.079-9.079 0-5.012 4.066-9.079 9.079-9.079h225.7c5.012 0 9.079 4.067 9.079 9.079zm0 54.47c0 5.013-4.066 9.079-9.079 9.079h-225.7c-5.012 0-9.079-4.066-9.079-9.079s4.066-9.079 9.079-9.079h225.7c5.012 0 9.079 4.066 9.079 9.079z"/></g></g></g></svg>
