<svg version="1.1" viewBox="0 0 128 128" xmlns="http://www.w3.org/2000/svg">
 <g transform="matrix(1.631 0 0 1.458 -13.84 -1)">
  <g transform="matrix(2.152,0,0,2.194,-3.601,-8.272)">
   <g stroke-linecap="round" stroke-linejoin="round">
    <path d="m38.66 8.166-5.982 0.1172c-1.404 0.02784-2.597 1.035-2.859 2.414l-0.5625 2.951-0.4902-2.799c-0.2554-1.46-1.548-2.508-3.029-2.457l-4.511 0.01874c-1.442 0.04979-2.682 1.267-2.882 2.696l-0.5332 3.828-1.051-4.166c-0.3235-1.282-1.456-2.311-2.777-2.357l-4.963-0.05924c-1.938-0.06862-3.421 1.707-3.008 3.602l5.826 26.73c0.2997 1.375 1.523 2.351 2.93 2.338l5.682-0.04883c1.423-0.01291 2.636-1.033 2.895-2.432l0.3867-2.098 0.4395 2.121c0.2797 1.354 1.457 2.337 2.84 2.369l6.061 0.1406c1.435 0.03338 2.688-0.9637 2.979-2.369l5.578-26.97c0.3863-1.867-1.061-3.609-2.967-3.572z" color="#000000" fill="#2296f3" style="-inkscape-stroke:none;paint-order:stroke fill markers"/>
    <path d="m33.14 38.1-6.06-0.1413-3.183-15.39c-0.1833-0.7311-0.2981-1.475-0.3435-2.223l-0.05004 0.0012c-0.03964 0.9042-0.1202 1.648-0.2366 2.238l-2.843 15.41-5.682 0.04924-5.826-26.73 4.901-0.0089 4.434 17.5c0.1146 0.5729 0.2175 1.33 0.2964 2.276l0.06569-0.0015c0.0034-0.709 0.1077-1.493 0.2773-2.339l2.5-17.35 4.448-0.0412 3.025 17.31c0.1136 0.4907 0.2259 1.191 0.3343 2.13l0.1848 1.21c0.0091-0.7262-0.07156-2.675 0.04615-3.431l3.306-17.33 5.982-0.1176z" color="#000000" fill="#fff" stroke-width="5.941" style="-inkscape-stroke:none;paint-order:stroke fill markers"/>
   </g>
  </g>
 </g>
</svg>