<?xml version="1.0" standalone="no"?>
<!DOCTYPE svg PUBLIC "-//W3C//DTD SVG 20010904//EN"
 "http://www.w3.org/TR/2001/REC-SVG-20010904/DTD/svg10.dtd">
<svg version="1.0" xmlns="http://www.w3.org/2000/svg"
 width="200.000000pt" height="200.000000pt" viewBox="0 0 200.000000 200.000000"
 preserveAspectRatio="xMidYMid meet">

<g transform="translate(0.000000,200.000000) scale(0.100000,-0.100000)"
fill="#000000" stroke="none">
<path d="M800 1975 c-365 -73 -655 -342 -766 -710 -25 -82 -28 -105 -28 -265
-1 -137 3 -188 16 -235 12 -43 15 -69 9 -90 -7 -22 -10 -25 -11 -10 l-1 20 -9
-20 c-5 -11 -9 -165 -9 -342 l-1 -323 333 0 c318 0 333 1 334 19 1 10 -8 24
-20 30 -19 10 -19 11 -2 6 180 -55 374 -68 530 -37 255 51 472 187 625 392
104 141 161 283 188 469 13 97 14 129 4 222 -49 441 -361 784 -795 873 -92 19
-304 20 -397 1z m913 -672 c4 -54 7 -138 8 -188 1 -49 4 -115 7 -145 6 -48 10
-55 29 -55 40 -1 35 -13 -13 -34 -54 -24 -74 -22 -74 9 0 19 -2 19 -39 -6 -89
-58 -177 -16 -202 96 -12 54 3 110 41 154 39 44 77 59 139 54 l51 -3 0 78 0
78 -30 6 c-16 3 -30 9 -30 12 0 6 77 36 101 40 3 1 9 -43 12 -96z m-443 -161
l0 -37 26 39 c25 36 28 38 67 32 50 -8 48 -7 40 -34 -5 -20 -10 -22 -52 -16
-67 9 -81 -15 -81 -134 0 -96 7 -112 52 -112 15 0 28 -4 28 -10 0 -6 -37 -10
-90 -10 -91 0 -109 7 -67 25 21 9 22 17 25 121 l3 112 -32 11 c-18 6 -29 14
-25 19 12 12 90 40 99 35 4 -2 7 -21 7 -41z m-230 8 c36 -26 70 -90 70 -135 0
-45 -33 -109 -70 -135 -43 -31 -109 -37 -166 -15 -127 48 -134 232 -11 295 55
28 130 24 177 -10z m-497 8 c-13 -6 -23 -18 -23 -26 0 -21 73 -212 81 -212 12
0 91 209 84 220 -4 6 -17 15 -29 20 -15 6 -3 9 44 9 l64 1 -31 -27 c-22 -20
-46 -65 -84 -161 -29 -73 -57 -131 -63 -129 -5 2 -28 49 -51 105 -23 56 -44
104 -47 107 -3 3 -27 -44 -53 -105 -26 -61 -52 -109 -57 -108 -5 2 -36 66 -68
143 -42 103 -64 143 -81 152 -21 11 -15 13 46 12 39 -1 62 -3 53 -6 -10 -2
-18 -13 -18 -24 0 -22 80 -219 89 -219 3 0 23 43 44 95 37 91 37 95 21 120 -9
14 -25 25 -35 25 -11 0 -19 3 -19 8 0 4 35 8 78 9 63 2 73 0 55 -9z"/>
<path d="M1518 1141 c-31 -28 -33 -33 -33 -99 0 -79 18 -116 70 -141 25 -12
33 -11 71 8 l44 21 0 86 c0 96 -8 117 -50 139 -42 22 -66 19 -102 -14z"/>
<path d="M865 1130 c-76 -80 -19 -260 84 -260 106 0 138 171 49 260 -41 41
-93 42 -133 0z"/>
<path d="M16 717 c3 -10 9 -15 12 -12 3 3 0 11 -7 18 -10 9 -11 8 -5 -6z"/>
</g>
</svg>
