<svg version="1.1" viewBox="0 0 300 165" xml:space="preserve" xmlns="http://www.w3.org/2000/svg" xmlns:xlink="http://www.w3.org/1999/xlink">
<style type="text/css">.custom-controls {
height: 64px;
fill: #fff;
}
.control-icon {
opacity: 0;
animation: icon-fade-in-out 1.5s ease-in-out infinite;
animation-fill-mode: forwards;
}
.stop {
animation-delay: .1s;
}
.play {
animation-delay: .3s;
}
.gamepad {
animation-delay: .7s;
padding: 0 0 0 20px;
}
@keyframes icon-fade-in-out {
0% {
opacity: 0;
}
10% {
opacity: 1;
}
80% {
opacity: 1;
}
90% {
opacity: 0;
}
100% {
opacity: 0;
}
}</style>
<g transform="matrix(.09682 0 0 .09609 -21.51 -.4773)">
<defs>
<path id="SVGID_12_" d="m2194 1639s-47.9-365.5-44.35-371.7 618.3 0 618.3 0 10.65 4.44 12.42 10.65c1.77 6.2-30.16 361-30.16 361h-556.2z"/>
</defs>
<clipPath id="SVGID_13_">
<use width="100%" height="100%" xlink:href="#SVGID_12_"/>
</clipPath>
<g transform="matrix(3.865 0 0 2.858 227.7 6.787)">
<path class="st0" d="m0 0h800v600h-800z" fill="#536d8d"/>
<polygon class="st1" transform="matrix(1 0 0 1.235 4.954 -54.56)" points="472.5 511.9 359.3 511.9 402.5 497.3" fill="#570c32"/>
<g class="st2" transform="matrix(1 0 0 1.235 4.954 -54.56)" opacity=".25">
<path class="st3" d="m346.4 466.2c-6.95-7.95-14.97-14.88-23-21.74 12.61-1.92 23.88-9.19 30.41-20.12 6.11-10.22 8.23-22.49 7.56-34.39-.17-3.03-.43-6.13-1-9.11l-.01-.06c-.33-1.62-2.58-1.78-3.12-.23-2.46 7.04-6.89 13.41-12.7 18.09-5.03 4.06-11.07 6.84-17.4 8.11-2.73.55-4.36-2.92-2.28-4.77 8.67-7.69 15.19-17.82 18.49-28.94 5.17-17.46 2.88-39.04-9.37-52.92-7.91-8.96-18.56-15.94-30.25-17.94-1.87-.32-3.39 1.5-2.76 3.29 3.21 9.18 3.02 19.48-.39 28.62-3.21 8.61-9.4 16.05-17.19 20.9-1.66 1.03-3.67-.62-3.01-2.46 2.79-7.86 4.04-16.33 3.82-24.64-.22-8.34-2.2-16.99-7.63-23.33-4.66-5.45-11.46-8.71-18.43-10.34-5.71-1.33-11.58-1.67-17.45-1.82-1.7-.04-2.83 1.72-2.09 3.25 3.47 7.17 4.58 15.18 3.14 23.13-1.27 7.05-4.58 13.7-9.37 19.02-1.54 1.72-4.4.58-4.28-1.72.35-7.03-.16-14.28-3.04-20.45-3.04-6.52-9.11-11.54-16.08-13.31-5.57-1.41-11.62-.72-16.78 1.8-1.42.7-1.32 2.75.16 3.33 5.66 2.22 10.06 6.92 12.18 12.8 1.69 4.68 1.62 9.94-.01 14.64-.95 2.75-4.85 2.78-5.93.07-1.51-3.8-3.53-7.43-5.89-10.67-2.06-2.82-4.64-5.53-8-6.46-3.9-1.08-8.09.44-11.45 2.69s-6.19 5.21-9.51 7.52-7.42 3.97-11.37 3.1c7.21 11.19 8.02 25.64 5.44 38.57-.36 1.8-.52 3.65-.27 5.46 1.2 8.51 8.77 8.87 15.03 8.63 7.41-.27 14.85-.57 22.2.38 4.91.63 9.81 1.86 14.29 3.91 3.26 1.49 3.62 6.04.62 8.01-10.78 7.1-24.04 10.76-36.9 11.18-3.78.12-7.88-.22-11.14-1.93-1.55-.81-3.41.41-3.39 2.16.08 6.48.84 13.06 2.83 19.15 1.39 4.26 3.38 8.61 7.08 11.13 4.12 2.81 9.56 2.79 14.43 1.77 6.61-1.38 12.76-4.37 18.86-7.27 6.1-2.91 12.3-5.8 18.95-6.98 3.92-.7 8.04-.74 11.91.13 3.12.7 3.72 4.93.88 6.4-5.12 2.66-10.09 5.7-15.01 8.65-7.03 4.22-14.36 8.17-22.35 10.04-6.47 1.51-13.46 1.53-19.65-.71-1.53-.56-2.99 1.04-2.26 2.5 3.65 7.26 9.16 13.33 16.35 17.35 8.62 4.83 18.95 6.5 28.65 4.65 12.66-2.42 24.05-10.53 36.48-12.79 2.79-.51 4.72 2.78 2.94 4.99-7.99 9.93-19.28 17.12-31.68 20.05-1.73.41-1.86 2.85-.17 3.42 9.76 3.28 20.45 3.15 30.93 2.76 13.34-.51 27.57-1.3 38.36-9.17 6.07-4.42 10.52-10.78 13.73-17.57 3.16-6.7 4.44-13.97 7.23-20.74 4.32.75 10.03 7.66 13 10.8 4.01 4.23 7.59 8.87 10.66 13.83 5.29 8.55 9.1 18.03 11.06 27.89.58 2.89 3.9 4.23 6.37 2.63.31-.2.62-.42.92-.65 2.67-2.05 3.67-5.57 2.53-8.73-3.29-9.06-8.6-17.65-14.88-24.84zm-148.3-99.79c-1.63.47-3.36.19-5.03-.09-4.85-.81-9.7-1.62-14.54-2.43-3.53-.59-8.04-1.3-10.17-4.57-1.82-2.8-.8-5.62 2.35-6.6 3.64-1.13 8.34.88 11.84 1.8 4.65 1.21 9.25 2.58 13.81 4.08 2.15.71 4.68 1.94 4.78 4.2.06 1.69-1.42 3.14-3.04 3.61zm68.75 52.11c-2.86-.42-5.65-.87-8.73-.49-1.98.25-4.04.69-5.88-.35-1-.57-1.7-1.64-1.56-2.78.22-1.89 2.25-2.52 3.97-2.89 1.45-.31 2.89-.61 4.34-.92 2-.43 4.07-.85 6.09-.47 2.32.44 4.38 2.85 4.57 5.2 0 .02 0 .04.01.07.12 1.56-1.25 2.86-2.81 2.63zm18.3-26.72c-1.17 1.41-3.23 2.13-4.94 1.47s-2.78-2.81-2.02-4.48c.44-.97 1.4-1.76 1.37-2.82-.05-1.85-1.76-3.17-.36-5 1.52-1.98 3.73-.95 4.92.68 1.08 1.48 1.97 3.15 2.27 4.96.29 1.81-.06 3.78-1.24 5.19zm31.79-4.37c-3.69-3.4-3.04-10.97-.52-15.3 2.3-1 3.84-3.18 5.14-5.33 4.36-7.16 7.5-15.06 9.25-23.26 1.62-.45 3.05.66 3.45 2.29s-.09 3.33-.58 4.94c-2.35 7.79-4.71 15.58-7.06 23.36-.83 2.75-1.68 5.53-3.17 7.98-1.5 2.45-3.74 4.58-6.51 5.32z" fill="#9dc8ff"/><g fill="#7d94fa">
<path class="st4" d="m167 336.8c14.2 6.53 27.86 14.06 41.3 21.99 13.41 7.97 26.57 16.37 39.36 25.3 1.62 1.09 3.21 2.22 4.79 3.36l4.75 3.41c3.17 2.28 6.35 4.53 9.44 6.92l9.34 7.06c3.09 2.38 6.11 4.86 9.17 7.28 6.16 4.8 12.05 9.93 18.03 14.95 3.02 2.48 5.87 5.15 8.79 7.74l8.72 7.82c.73.65.79 1.77.14 2.49-.65.73-1.77.79-2.49.14-.01-.01-.06-.05-.06-.05l-8.57-7.89c-2.87-2.61-5.67-5.31-8.64-7.82-5.88-5.08-11.67-10.26-17.74-15.12-3.01-2.45-5.99-4.96-9.03-7.37l-9.2-7.16c-3.04-2.42-6.19-4.71-9.31-7.02l-4.69-3.47c-1.56-1.16-3.13-2.31-4.73-3.42-12.64-9.07-25.64-17.62-38.9-25.75-13.28-8.08-26.84-15.79-40.87-22.47-.27-.13-.38-.43-.26-.68.11-.25.41-.36.66-.24z"/>
<path class="st4" d="m209.9 320.1c7.99 14.36 12.2 30.82 12.09 47.31 0 .46-.38.83-.84.82-.46 0-.83-.38-.82-.84.33-16.21-3.6-32.5-11.32-46.81-.13-.25-.04-.55.21-.69.24-.12.54-.03.68.21z"/>
<path class="st4" d="m260 314.1c2.24 6.19 3.61 12.68 4.3 19.23s.71 13.16.26 19.73c-.9 13.15-3.63 26.05-6.4 38.81-.19.87-1.05 1.42-1.92 1.24-.87-.19-1.43-1.05-1.24-1.92 3.13-12.71 6.19-25.38 7.44-38.3.62-6.45.79-12.95.29-19.41s-1.66-12.88-3.7-19.04c-.09-.27.06-.55.32-.64.27-.1.56.04.65.3z"/>
<path class="st4" d="m280.9 410.5c2.93-2.23 5.44-5.02 7.68-8.03 2.24-3.02 4.21-6.26 6.18-9.53 3.94-6.55 7.88-13.08 11.34-19.85 3.47-6.76 6.45-13.79 8.4-21.12 1.97-7.31 2.88-14.95 2.22-22.5-.03-.28.18-.53.46-.55.28-.03.52.18.55.45.79 7.68-.03 15.48-1.92 22.94-1.88 7.48-4.8 14.65-8.21 21.53-3.4 6.89-7.27 13.52-11.11 20.12-1.93 3.3-3.88 6.63-6.15 9.79-2.27 3.15-4.87 6.15-8 8.6-.51.4-1.24.31-1.64-.2s-.31-1.24.2-1.64c-.02 0-.01-.01 0-.01z"/>
<path class="st4" d="m303.7 428.5c14.21 1.02 28.83-2.86 40.79-10.93.23-.16.55-.1.7.14.15.23.1.53-.12.69-11.84 8.64-26.67 13.23-41.51 12.72-.72-.02-1.29-.63-1.26-1.35.02-.72.63-1.29 1.35-1.26.02-.02.04-.02.05-.01z"/>
<path class="st4" d="m301.1 426.4c-.34 5.14-.89 10.29-1.83 15.38s-2.29 10.12-4.21 14.95c-1.93 4.82-4.45 9.41-7.62 13.54-3.16 4.12-6.98 7.76-11.39 10.51-.24.15-.55.08-.7-.16-.15-.23-.08-.54.15-.69 4.23-2.78 7.87-6.4 10.86-10.47 2.99-4.08 5.35-8.6 7.13-13.33 3.55-9.5 4.81-19.7 5.27-29.85.03-.65.58-1.15 1.23-1.12s1.15.58 1.12 1.23c0-.01-.01.01-.01.01z"/>
<path class="st4" d="m293.5 420.7c-3.84 5.95-8.51 11.34-13.87 15.93-5.37 4.56-11.33 8.42-17.76 11.26-3.21 1.42-6.52 2.62-9.89 3.57-3.36.96-6.75 1.72-10.13 2.48-6.74 1.51-13.49 3.03-19.72 5.9-.25.12-.55.01-.67-.24s-.01-.55.23-.67c6.29-3.1 13.1-4.83 19.8-6.52 3.35-.85 6.69-1.7 9.96-2.73 3.27-1.02 6.44-2.27 9.52-3.73 6.16-2.91 11.83-6.81 16.88-11.34 5.04-4.55 9.38-9.85 12.88-15.62.48-.78 1.48-1.03 2.25-.56s1.02 1.47.55 2.24c-.02 0-.03.01-.03.03z"/>
<path class="st4" d="m260.9 395.9c-11.98 6.36-24.01 12.72-36.54 18.06-12.51 5.33-25.56 9.63-39.06 11.61-.28.04-.53-.15-.58-.43-.04-.27.15-.53.42-.57 13.35-2.19 26.2-6.67 38.53-12.18 12.34-5.52 24.21-12.06 36.07-18.62.59-.32 1.33-.11 1.65.47.32.59.11 1.33-.47 1.65-.01 0-.02.01-.02.01z"/>
<path class="st4" d="m226.4 371.6c-14.95 6.3-31.66 8.22-47.58 5.53-.28-.05-.46-.31-.42-.58.05-.27.3-.46.58-.42 15.77 2.4 32.18.21 46.7-6.19.46-.2.99.01 1.2.46.2.46-.01.99-.46 1.2h-.02z"/>
</g>
<path class="st3" d="m574.4 314.1c.96-8.88 1.55-17.75 4.2-26.32 2.32-7.52 3.73-15.93 1.38-23.26-1.32-6.03-5.33-11.48-10.89-14.17-5.54-2.68-12.48-2.39-17.61.97-1.11.4-2.2.87-3.24 1.46-9.98 5.71-14.45 19.06-10.76 29.94 2.12 6.26 6.44 11.46 11.04 16.07 2.62 2.63 5.18 5.33 7.79 7.98 2.69 3.22 5.57 6.3 8.54 9.26 5.3 5.3 9.81 3.64 9.55-1.93z" fill="#9dc8ff"/>
<path class="st4" d="m572.8 319.6c-.37 0-.73-.2-.9-.56-15.16-30.54-14.91-60.33-14.91-60.63.01-.56.5-.96 1.02-.99.56.01 1 .47.99 1.02 0 .29-.23 29.62 14.7 59.7.25.5.04 1.1-.45 1.35-.15.08-.3.11-.45.11z" fill="#7d94fa"/>
<path class="st3" d="m400.1 493.5c-.33 0-.66-.08-.96-.25-.98-.53-1.34-1.76-.8-2.73 20.92-38.31 53.44-68.82 79.43-91.12 10.11-8.67 20.59-17.24 30.73-25.53 20.51-16.77 41.73-34.12 60.78-53.09 26.43-26.32 49.17-56.12 67.59-88.56.55-.97 1.78-1.31 2.75-.76s1.31 1.78.76 2.75c-18.59 32.76-41.56 62.85-68.25 89.43-19.19 19.11-40.48 36.52-61.07 53.35-10.12 8.27-20.58 16.83-30.65 25.47-25.73 22.08-57.91 52.26-78.52 90-.39.66-1.08 1.04-1.79 1.04z" fill="#9dc8ff"/>
<path class="st3" d="m626.1 219.7c.85-11.26 5-23.59 15.48-26.87 10.17-3.18 22.63 4.46 27.28 14.92 7.33 16.5-5.66 28.71-17.41 36.34-6.25 4.05-13.03 7.88-19.91 10.88-14.38 6.26-7.14-9.95-6.34-17.85.59-5.76.47-11.64.9-17.42z" fill="#9dc8ff"/>
<path class="st4" d="m624.8 256.5c-.18 0-.37-.05-.53-.15-.47-.29-.62-.92-.32-1.39 4.16-6.66 8.82-12.07 13.32-17.29 7.7-8.94 14.98-17.38 17.3-30.07.1-.55.62-.91 1.17-.81s.91.62.81 1.17c-2.42 13.24-9.87 21.88-17.76 31.03-4.45 5.17-9.06 10.51-13.14 17.04-.18.31-.51.47-.85.47z" fill="#7d94fa"/>
<path class="st3" d="m638 279.4c3.75-1.57 7.41-3.41 11.43-4.3s8.61-.68 11.95 1.59c4.77 3.25 5.44 9.49 4.4 14.75-1.45 7.25-5.55 14.2-12.12 18.55s-15.69 5.79-23.26 2.87c-6.33-2.44-12.05-7.15-16.65-11.69l-10.38-10.26c-.49-.49-1-1.01-1.16-1.65-.27-1.08.59-2.16 1.67-2.65 1.08-.5 2.35-.55 3.56-.62 5.84-.34 11.63-1.32 17.19-2.92 4.33-1.26 9.25-1.96 13.37-3.67z" fill="#9dc8ff"/>
<path class="st4" d="m635.7 299.8c-11.71 0-23.38-3.84-32.71-11.12-.44-.34-.52-.98-.17-1.41.34-.44.97-.52 1.41-.17 13.02 10.16 31.55 13.37 47.23 8.18.53-.18 1.1.11 1.27.64s-.11 1.1-.64 1.27c-5.31 1.75-10.85 2.61-16.39 2.61z" fill="#7d94fa"/>
<path class="st3" d="m560.2 348.5c7.16-1.61 14.1-4.35 21.4-5.11 7.3-.77 15.41.85 20.14 6.47 5.11 6.07 4.71 15.68.04 22.09-4.68 6.41-12.86 9.7-20.8 9.62-7.93-.07-15.6-3.18-22.24-7.52s-12.39-9.9-18.09-15.41c-3.41-3.3-6.49-9.12.27-10.15 2.73-.42 6.12 1.09 8.93 1.18 3.46.1 6.96-.41 10.35-1.17z" fill="#9dc8ff"/>
<path class="st4" d="m578.2 368.2c-14.17 0-28.3-5.64-38.26-15.92-.39-.4-.38-1.04.02-1.42.4-.39 1.04-.38 1.42.02 13.41 13.84 34.65 18.93 52.88 12.66.53-.18 1.1.1 1.28.63s-.1 1.1-.63 1.28c-5.4 1.86-11.06 2.75-16.71 2.75z" fill="#7d94fa"/>
<path class="st3" d="m514 348.5c3.23-10.68 5.42-22.87-.24-32.49-5.85-9.94-20.05-13.86-30.17-8.32-6.59 3.61-10.95 10.26-14.11 17.08-3.26 7.03-5.54 15.01-3.51 22.49 2.45 8.98 10.52 15.22 18.64 19.78 3.57 2.01 20.96 14.03 23.22 11.69 1.88-1.95 1-11.32 1.63-14.3 1.14-5.4 2.94-10.64 4.54-15.93z" fill="#9dc8ff"/>
<path class="st4" d="m506.4 377.4c-.31 0-.62-.15-.82-.42-19.58-27.25-16.84-59.62-16.81-59.94.05-.55.52-.96 1.1-.91.55.05.96.54.91 1.1-.03.32-2.69 31.96 16.45 58.58.32.45.22 1.08-.23 1.41-.19.12-.39.18-.6.18z" fill="#7d94fa"/>
<path class="st3" d="m503.5 406.8c9.65-.77 19.47-2.38 28.89-.16 5.88 1.38 11.92 4.87 13.54 10.69 1.69 6.08-2.14 12.5-7.17 16.33-9.49 7.22-23.68 7.48-33.43.62-8.15-5.74-13.21-15.7-22.44-19.48-2.93-1.2-8.39-2.02-9.46-5.62-1.05-3.55 1.84-4.92 5.01-4.95 3.82-.03 8.04 2.24 11.96 2.64 4.36.44 8.76.28 13.1-.07z" fill="#9dc8ff"/>
<path class="st4" d="m527.3 424.7c-8.37 0-18.39-1.67-24.84-5.1-9.8-5.2-26.21-11.96-26.38-12.03-.51-.21-.76-.8-.55-1.31.21-.52.8-.76 1.31-.55.17.07 16.67 6.86 26.56 12.12 9.83 5.22 29.31 6.26 35.61 3.06.5-.25 1.1-.05 1.35.44.25.5.05 1.1-.44 1.35-2.62 1.34-7.28 2.02-12.62 2.02z" fill="#7d94fa"/>
<path class="st3" d="m245.3 219.6c-5.43-1.54-10.89-2.85-15.94-5.4-4.44-2.24-9.52-4.01-14.34-3.32-3.89.18-7.72 2.1-9.98 5.28-2.25 3.16-2.81 7.52-1.26 11.07.13.74.31 1.46.57 2.17 2.5 6.82 10.34 11.01 17.51 9.87 4.12-.66 7.82-2.79 11.18-5.17 1.92-1.35 3.87-2.66 5.79-4.01 2.29-1.33 4.51-2.8 6.67-4.33 3.85-2.75 3.29-5.73-.2-6.16z" fill="#9dc8ff"/>
<path class="st4" d="m221.5 225.4c-7.67 0-12.67-.89-12.77-.91-.35-.06-.57-.4-.51-.74s.39-.58.74-.51c.18.03 18.42 3.28 38.73-2.83.34-.1.69.09.79.43s-.09.69-.43.79c-9.94 2.99-19.4 3.77-26.55 3.77z" fill="#7d94fa"/>
<path class="st3" d="m337.2 348.2c-.28 0-.55-.09-.79-.27-21.64-17.09-37.19-40.57-48.33-59.12-4.33-7.21-8.56-14.65-12.64-21.84-8.27-14.55-16.82-29.6-26.62-43.47-13.59-19.25-29.73-36.57-47.99-51.47-.54-.44-.63-1.25-.18-1.79.44-.54 1.24-.63 1.79-.18 18.43 15.05 34.73 32.53 48.46 51.97 9.87 13.97 18.45 29.08 26.75 43.68 4.08 7.18 8.3 14.6 12.61 21.78 11.02 18.36 26.41 41.6 47.72 58.43.55.44.65 1.24.21 1.79-.25.32-.62.49-.99.49z" fill="#9dc8ff"/>
<path class="st3" d="m192 177.4c-6.92-1.73-14.16-5.61-15.09-12.49-.91-6.67 5.18-13.62 12.18-15.41 11.05-2.82 17.28 6.57 20.78 14.69 1.86 4.32 3.53 8.95 4.66 13.55 2.38 9.62-6.95 3.39-11.79 2.06-3.51-.97-7.18-1.52-10.74-2.4z" fill="#9dc8ff"/>
<path class="st4" d="m214.1 182.6c-.15 0-.3-.05-.42-.16-3.71-3.3-6.58-6.77-9.35-10.13-4.75-5.74-9.23-11.17-16.89-13.96-.33-.12-.5-.49-.38-.82s.49-.5.82-.38c7.98 2.91 12.58 8.46 17.44 14.34 2.75 3.32 5.58 6.75 9.22 9.99.26.23.29.64.05.9-.14.15-.31.22-.49.22z" fill="#7d94fa"/>
<path class="st3" d="m230.4 176.3c-.58-2.5-1.34-4.97-1.47-7.57s.49-5.44 2.26-7.27c2.53-2.62 6.49-2.38 9.65-1.18 4.36 1.67 8.25 4.96 10.27 9.51s1.94 10.38-.68 14.79c-2.19 3.68-5.73 6.75-9.05 9.13-2.5 1.79-4.99 3.59-7.49 5.38-.36.26-.73.52-1.15.55-.7.05-1.28-.6-1.47-1.32-.19-.73-.09-1.52-.01-2.29.41-3.67.41-7.38 0-11.01-.31-2.84-.22-5.98-.86-8.72z" fill="#9dc8ff"/>
<path class="st4" d="m232.1 199.2c-.17 0-.34-.07-.47-.21-.24-.26-.22-.66.04-.9 7.71-7.03 11.67-18.23 10.1-28.54-.05-.35.19-.67.53-.72s.67.19.72.53c1.66 10.88-2.36 22.26-10.5 29.68-.11.1-.27.16-.42.16z" fill="#7d94fa"/>
<path class="st3" d="m265.2 232c-.25-4.63-1.21-9.24-.92-13.87.3-4.63 2.16-9.51 6.16-11.85 4.32-2.54 10.26-1.27 13.76 2.32s4.68 9.04 3.79 13.97-3.63 9.38-7.04 13.05c-3.41 3.68-7.47 6.67-11.51 9.63-2.42 1.78-6.36 3.07-6.29-1.24.03-1.74 1.33-3.69 1.68-5.43.43-2.16.48-4.39.37-6.58z" fill="#9dc8ff"/>
<path class="st4" d="m265 245.1c-.2 0-.4-.1-.53-.28-.2-.29-.12-.69.17-.88 10.04-6.88 15.46-19.57 13.49-31.58-.06-.35.18-.67.52-.73s.67.18.73.52c2.05 12.49-3.59 25.68-14.02 32.84-.11.08-.24.11-.36.11z" fill="#7d94fa"/>
<path class="st3" d="m260.3 260.8c-6.31-3.14-13.67-5.8-20.26-3.29-6.81 2.59-10.75 11.02-8.38 17.91 1.55 4.49 5.23 7.91 9.14 10.59 4.03 2.77 8.76 5.04 13.63 4.57 5.85-.57 10.59-4.94 14.29-9.51 1.63-2.01 10.95-11.56 9.74-13.22-1.01-1.38-6.94-1.82-8.73-2.53-3.23-1.29-6.3-2.97-9.43-4.52z" fill="#9dc8ff"/>
<path class="st4" d="m251.7 274.7c-8 0-13.54-1.43-13.64-1.46-.34-.09-.54-.44-.45-.78s.44-.54.78-.45c.19.05 19.62 5.06 38.22-4.03.32-.15.7-.02.85.29.15.32.02.7-.29.85-9.04 4.41-18.25 5.58-25.47 5.58z" fill="#7d94fa"/>
<path class="st3" d="m295.5 273.5c.54-6.09.58-12.38 2.96-18.01 1.48-3.51 4.3-6.91 8.09-7.3 3.97-.41 7.56 2.66 9.41 6.19 3.49 6.67 2.15 15.54-3.15 20.88-4.44 4.47-11.17 6.56-14.51 11.91-1.06 1.69-2.15 5.01-4.5 5.29-2.32.28-2.87-1.67-2.55-3.65.38-2.38 2.24-4.77 2.91-7.17.73-2.64 1.09-5.4 1.34-8.14z" fill="#9dc8ff"/>
<path class="st4" d="m292.6 291c-.12 0-.23-.03-.34-.1-.3-.19-.39-.58-.2-.88.06-.1 6.04-9.65 10.36-15.25 4.29-5.57 7.01-17.58 5.68-21.85-.1-.34.08-.69.42-.8s.69.08.8.42c1.42 4.58-1.28 17.02-5.89 23-4.28 5.55-10.23 15.05-10.29 15.15-.12.21-.33.31-.54.31z" fill="#7d94fa"/>
</g><g stroke-width="1.111">
<path class="st5" d="m484.7 378.2 3.57 30.91c1.72 10.13-2.05 20.46-9.33 25.58l-16.79 11.81 12.14-68.29z" fill="#fea794"/>
<path class="st5" d="m319.9 378.2-3.57 30.91c-1.72 10.13 2.05 20.46 9.33 25.58l16.79 11.81-12.14-68.29z" fill="#fea794"/>
<path class="st6" d="m458 314.4c17.07-15.39 24.23-45.53 16.6-69.88-4.95-15.8-15.13-28.45-20.02-44.29-7.42-24.05-2.07-53.45-14.07-74.48-8.02-14.07-22.25-20.91-36.1-22.75-9.51-1.26-19.56-.3828-27.87 5.471-9.61 6.78-15.65 19.32-19.58 32.1s-6.19 26.31-10.6 38.84c-4.48 12.73-11.06 24.13-17.17 35.79-6.11 11.65-11.88 23.88-14.44 37.41-2.55 13.52-1.52 28.65 5.09 39.89 8.7 14.81 24.74 19.72 39.53 20.85 32.45 2.47 72.39 24.72 98.63 1.05z" fill="#362f5b"/>
<path class="st1" d="m407.3 529.1-91.99-58.98-20.52-26.44s53.42 11.6 109 9.843c55.54-1.754 104-14.03 104-14.03z" fill="#570c32"/>
<path class="st1" d="m482.2 535.8-53.69 2.631-5.72 34.15 57.27 7.348c3.59.284 7.16-.8768 10.17-3.31l16.11-13 3.3-10.78-20.28-14.81c-2.17-1.568-4.65-2.346-7.16-2.223z" fill="#570c32"/>
<path class="st7" d="m424.4 572.6c-22.12-.7163-47.17-13.25-69.89-28.89-15.58-10.74-30.06-22.91-41.75-33.76-9.38-8.682-23.02-19.74-29.11-32.41-4.47-9.299-2.89-21.14 2.21-28.5 4.61-6.694 12.13-9.695 20.6-3.779 23.79 13.65 43.23 28.58 63.87 46.65 19.1 16.75 38.46 32.23 57.46 47.52 14.81 11.94 22.08 34.01-3.39 33.17z" fill="#981750"/>
<path class="st1" d="m371.9 578-58.97 2.754c-1.44.0617-2.84-.5434-3.93-1.692l-17.41-18.51 1.84-6.854 15.42-13.3c1.76-1.519 3.89-2.186 6.02-1.902l57.02 7.62v31.89z" fill="#570c32"/>
<path class="st7" d="m523.7 486.7c-.38.4693-11.84 16.17-11.84 16.17-41.93 48.07-83.1 59.11-137.3 74.69-6.4 1.84-12.78-2.223-15.41-9.299-.4-1.025-.71-2.112-.92-3.248-1.61-8.558 2.39-17.13 9.04-19.78l.1-.0494c48.75-19.27 73.39-57.03 122-98.38 10.26-11.45 27.09-8.509 34.95 1.136.3.3705.58.7286.85 1.136 6.99 9.942 6.04 28.26-1.48 37.63z" fill="#981750"/>
</g><g transform="matrix(1 0 0 1.235 4.954 -54.56)" fill="#f84d73">
<path class="st8" d="m468 339.2c-6.57-45.92-26.98-91.28-69.36-91.28s-62.79 45.36-69.36 91.28z"/>
<path class="st8" d="m421.3 252.9s49.14 20.58 65.24 97.46l-29.48 5.33z"/>
<path class="st8" d="m328 350.4h-19.45s10.01-63.54 65.47-96.45l-22.56 90.93z"/>
</g><g stroke-width="1.111">
<path class="st0" d="m421.4 265.4c0 14.15-7.97 37.53-17.79 37.53s-17.79-23.38-17.79-37.53 7.97-13.73 17.79-13.73 17.79-0.4199 17.79 13.73z" fill="#fff"/>
<path class="st5" d="m403.6 279.7c-6.67 0-12.07-6.681-12.07-14.91v-24.27h24.15v24.27c0 8.225-5.41 14.91-12.08 14.91z" fill="#fea794"/>
<path class="st5" d="m435.5 163.4v48.93c0 13.16-5.24 24.8-13.26 31.91-5.24 4.668-11.65 7.41-18.58 7.41-17.59 0-31.84-17.6-31.84-39.32v-48.93z" fill="#fea794"/>
<path class="st9" d="m391.5 248.7s4.66 2.927 12.08 2.927 12.05-2.927 12.05-2.927v6.965s-5.6 4.483-12.06 4.483-12.07-4.582-12.07-4.582z" fill="#d38674"/>
</g><g transform="matrix(1 0 0 1.235 4.954 -54.56)">
<path class="st0" d="m398.7 248.6c-14.48 0-27.34-9.71-31.31-23.6-.11-.38.11-.77.49-.87s.77.11.87.49c3.79 13.29 16.1 22.58 29.93 22.58 5.93 0 11.68-1.67 16.65-4.83.33-.21.77-.11.98.22s.11.77-.22.98c-5.19 3.28-11.21 5.03-17.39 5.03z" fill="#fff"/>
</g>
<path class="selected" d="m306.2 312.8-.9942-25.57c-.2569-3.969-.519-7.999-1.504-11.79-.9854-3.789-2.779-7.354-5.322-9.079-2.06-1.393-4.373-1.445-6.564-2.224-5.48-1.96-9.744-8.24-13.93-13.88-4.186-5.642-7.218-10.5-12.79-10.44-1.286.0159-2.977-.1103-3.023 1.737.0157.7492.3277 2.389.645 3.006 1.513 3.38 2.606 2.747 4.975 5.912 3.986 3.537 7.424 9.183 8.574 15.66 1.358 7.669-1.451 15.68.1208 23.28 1.462 6.182 3.536 10.83 6.869 14.79 1.443 3.721 3.272 7.294 4.34 10.83l9.313 30.93c5.42 16.41 10.29 48.71 16.74 64.31 2.655 10.23 2.669 10.55 4.433 15.09 2.267 5.017 5.792 9.453 9.806 9.866 1.586.0969 3.15-.2848 4.594-1.121 5.452-3.039 9.257-10.06 10.04-18.51.8694-10.44-3.012-20.68-6.763-30.05l-9.266-23.15c-1.068-2.783-3.194-2.461-4.463-5.072-1.528-3.046-1.257-.6069-3.776-6.046-7.177-15.56-8.346-24.19-12.04-38.46z" fill="#fea794" stroke-width=".6949"/><g stroke-width="1.111"><path class="st10" d="m487.8 316.3-172.5.6818 13.38 137.6c.4808 4.944 10.06 8.205 14.08 8.39 36.45 1.605 83.08 1.605 119.5 0 4.02-.1729 7.91-6.897 8.58-11.8z" fill="#56629b" stroke="#444d7a"/>
<path class="st1" d="m407.4 522.6s-21.37 18.01-40.47 22.83l-12.42-1.692-1.66-1.149s31.74-11.71 47.31-25.48z" fill="#570c32"/>
<path class="st1" d="m403.4 569.1s22.84-7.027 38.86-14.19l.96 1.976s-21.85 10.95-34.85 13.67z" fill="#570c32"/>
<path class="st9" d="m435.5 165.5v46.78c0 13.16-5.24 24.8-13.26 31.91 5.18-8.287 8.1-18.73 8.12-29.21v-15.82c-4.56-6.904-11.45-10.87-18.41-13.25-6.95-2.359-14.18-3.359-21.16-5.607-6.99-2.26-13.94-5.977-18.72-12.63-.1-.1358-.18-.2964-.25-.4569-.38-.9139-.31-2.161 0-3.359.06-.1729.11-.3458.17-.5187.3-.8892.74-1.692 1.2-2.26 1.27-1.507 2.93-2.408 4.58-3.186 12.17-5.73 25.56-6.274 38.53-4.878 4.51.494 9.17 1.272 12.98 4.285 2.01 1.568 3.65 3.656 5.05 6.027.42.7039.82 1.42 1.17 2.174z" fill="#d38674"/>
<path class="st6" d="m358 152.4c4.18 8.842 10.88 15.82 18.64 19.44 7.66 3.569 16.02 3.853 24.19 4.36 8.17.5187 16.58 1.383 23.89 5.928 7.31 4.557 13.32 13.68 13 23.77 8.11-12.42 8.6-30.07 4.02-44.99-4.59-14.93-15.12-26.61-27.36-31.74-12.24-5.138-25.97-3.94-37.91 2.186-7.61 3.89-11.66 15.33-18.47 21.04z" fill="#362f5b"/>
</g><g transform="matrix(1 0 0 1.235 4.954 -54.56)">
<path class="st0" d="m432.8 211.6c-.42-.02-.72-.34-.71-.74.33-8.28-6.1-15.31-12.61-18.59-7.17-3.62-15.6-4.32-23.61-4.73l-1.65-.08c-7.62-.38-15.51-.76-22.75-3.49-5.3-2-10.18-5.27-14.1-9.48-.27-.29-.25-.73.03-1s.73-.25 1 .03c3.78 4.05 8.47 7.2 13.57 9.12 7.04 2.65 14.81 3.04 22.32 3.41l1.65.08c8.16.41 16.75 1.13 24.17 4.88 6.92 3.49 13.74 11 13.39 19.91-.01.38-.32.68-.7.68z" fill="#fff"/>
</g>
<polygon class="st9" transform="matrix(.7936 0 0 1.235 104.2 -54.56)" points="479.9 351.6 480.8 357.7 473.3 359.3 475.1 352.4" fill="#d38674"/>
<g transform="matrix(1 0 0 1.235 4.954 -54.56)" fill="#fff">
<path class="st0" d="m354 494.2c-.09 0-.18-.02-.26-.05-.36-.15-.54-.56-.39-.92 1.59-3.96 4.82-6.98 8.87-8.29l.1-.03c32.98-10.55 55.13-28.19 80.78-48.6 9.31-7.41 18.94-15.07 29.83-23.04l1.38-1.01c2.54-1.86 3.82-2.8 7.14-5.09.32-.22.76-.14.98.18s.14.76-.18.98c-3.31 2.28-4.58 3.21-7.11 5.06l-1.38 1.01c-10.87 7.95-20.49 15.6-29.79 23-25.76 20.5-48 38.21-81.23 48.84-3.74 1.21-6.65 3.93-8.08 7.5-.11.3-.38.46-.66.46z"/>


<path class="st0" d="m394.5 463.1c-.13 0-.27-.04-.39-.12-11.2-7.44-20.44-13.75-29.08-19.89-19.45-13.81-35.92-23.89-53.41-32.7-.35-.18-.49-.6-.31-.95s.6-.49.95-.31c17.55 8.84 34.07 18.96 53.59 32.81 8.62 6.12 17.85 12.43 29.04 19.86.33.22.41.66.2.98-.14.21-.37.32-.59.32z"/>
</g><g stroke-width="1.111"><g fill="#362f5b">
<path class="st6" d="m467.5 228.3c10.93 20.29 15.39 43.29 15.34 56.01 0 0-5.25-24.6-11.16-32.21-5.91-7.608-4.18-23.8-4.18-23.8z"/>
<path class="st6" d="m477.2 273.1s.43 14.66-2.82 27.11c0 0-.18-9.139-.77-14.17z"/>
<path class="st6" d="m445.5 137.8c5.13 15.18 4.95 30.47 11.44 42.26 0 0-7.37-6.99-9.26-14.2-1.89-7.2-2.18-28.06-2.18-28.06z"/>
<path class="st6" d="m442.8 130.2c1.42 3.557 5.08 11.24 7.03 14.38 0 0-2.36-1.964-5.1-4.804z"/>
<path class="st6" d="m348.7 171.9c-5.85 16.26-18.76 27.85-18.76 27.85s12.03-6.99 16.98-11.79z"/>
<path class="st6" d="m323.4 226.7c-6.44 13.52-12.33 31.73-14.57 44.1 0 0 5.66-15.01 8.61-19.23z"/>
<path class="st6" d="m313.5 263.5c-.24 6.99-.76 9.028 0 16.6 0 0 .4-8.805 1.14-11.14z"/>
<path class="st6" d="m407.3 103.4c-5.45-.741-6.12-1.667-18.39-2.976 0 0 8.73 1.964 11.32 3.717z"/>
<path class="st6" d="m407.7 103.5s4.76-1.877 12.72.3088c0 0-5.48.0741-8.43 1.605z"/>
</g><path class="st12" d="m523.7 486.7c-.38.4693-11.84 16.17-11.84 16.17-41.93 48.07-83.1 59.11-137.3 74.69-6.4 1.84-12.78-2.223-15.41-9.299 12.52 2.902 21.72 0 21.72 0 64.4-17.48 120-62.05 133.9-82.73 13.91-20.67 10.33-36.46 10.33-36.46 6.99 9.942 6.04 28.26-1.48 37.63z" fill="#570c32" opacity=".5"/>
<path class="st12" d="m362.9 538.4-8.25 5.36-.07-.0371c-15.58-10.74-30.06-22.91-41.75-33.76-9.38-8.682-23.02-19.74-29.11-32.41-4.47-9.299-2.89-21.14 2.21-28.5-3.21 6.533 15.54 50.78 76.97 89.35z" fill="#570c32" opacity=".5"/><g fill="#41619a">
<path class="st16" d="m730 583.9h-653.4c-1.4 0-2.54-1.408-2.54-3.137s1.14-3.137 2.54-3.137h653.4c1.4 0 2.54 1.408 2.54 3.137-.01 1.729-1.15 3.137-2.55 3.137z"/>
<path class="st16" d="m763.9 583.9h-22.52c-1.4 0-2.54-1.408-2.54-3.137s1.14-3.137 2.54-3.137h22.52c1.4 0 2.54 1.408 2.54 3.137s-1.14 3.137-2.54 3.137z"/>
<path class="st16" d="m56.88 583.9h8.13c1.4 0 2.54-1.408 2.54-3.137s-1.14-3.137-2.54-3.137h-8.13c-1.4 0-2.54 1.408-2.54 3.137.01 1.729 1.14 3.137 2.54 3.137z"/>
<path class="st16" d="m686.4 597.1h-564.5c-1.4 0-2.54-1.408-2.54-3.137s1.14-3.137 2.54-3.137h564.5c1.4 0 2.54 1.408 2.54 3.137s-1.14 3.137-2.54 3.137z"/>
</g><path class="st17" d="m388.8 220.8 30.59-1.84c.97-.0617 1.68 1.087 1.39 2.235-1.25 4.928-5.24 15.96-15.98 16.6-10.74.6422-15.58-9.855-17.21-14.61-.38-1.099.24-2.322 1.21-2.384z" fill="#fffffd"/>
</g><g transform="matrix(1 0 0 1.235 4.954 -54.56)" fill="#362f5b">
<path class="st6" d="m377.3 207.2c-.61 0-1.13-.47-1.18-1.09-.13-1.57.35-3.09 1.37-4.29 1.01-1.2 2.44-1.94 4-2.07 1.57-.13 3.09.35 4.29 1.37 1.2 1.01 1.94 2.44 2.07 4 .06.65-.43 1.23-1.08 1.28-.64.06-1.23-.43-1.28-1.08-.08-.94-.52-1.78-1.23-2.39-.72-.61-1.62-.89-2.56-.82-1.93.16-3.37 1.87-3.2 3.8.06.65-.43 1.23-1.08 1.28-.05.01-.08.01-.12.01z"/>


<path class="st6" d="m410.4 204.1c-.61 0-1.13-.47-1.18-1.09-.27-3.23 2.13-6.09 5.37-6.36 3.22-.27 6.09 2.13 6.36 5.37.06.65-.43 1.23-1.08 1.28-.67.05-1.23-.43-1.28-1.08-.17-1.93-1.85-3.37-3.8-3.2-1.93.16-3.37 1.87-3.2 3.8.06.65-.43 1.23-1.08 1.28h-.11z"/>
</g>
<rect class="control-icon play" x="170.7" y="42.9" width="20.53" height="73.48" rx=".762" ry=".77" fill="#44b1dc" stroke-width="0" style="paint-order:fill markers stroke"/><rect class="control-icon stop" x="188.7" y="42.9" width="21.15" height="73.48" rx=".762" ry=".77" fill="#44b1dc" stroke-width="0" style="paint-order:fill markers stroke"/><g transform="matrix(.7483 0 0 .7981 367 362.6)"><g transform="matrix(1.341 0 0 1.714 -538.1 -289.5)" fill="#fff" stroke="#fff" stroke-linecap="round" stroke-linejoin="round" aria-label="Microsoft Excel"><path d="m127.7 16.8h-4.885v-11.89l-3.53 7.718h-3.389l-3.53-7.718v11.89h-4.63v-17.76h5.704l4.284 8.911 4.272-8.911h5.704zm9.323-15.31h-4.86v-3.257h4.86zm-.1278 15.31h-4.604v-13.4h4.604zm11.83.3579c-2.357-.0041-4.906-.4735-6.676-2.17-1.414-1.341-1.967-3.377-1.844-5.293.0366-1.857.8559-3.703 2.314-4.856 1.879-1.489 4.372-1.874 6.698-1.792 1.515.05778 3.005.4531 4.394 1.059v3.662c-.2981-.03319-.6546.1069-.8698-.1711-1.509-1.299-3.689-1.901-5.595-1.225-1.351.4842-2.128 1.929-2.178 3.326-.1073 1.357.2087 2.936 1.408 3.731 1.207.7952 2.767.786 4.124.4585.9361-.2308 1.754-.7813 2.458-1.431.1963.04767.5842-.09862.6522.07892v3.583c-1.538.6715-3.206 1.057-4.885 1.038zm18.33-9.663c-.5374.03058-1.053-.1685-1.593-.1594-1.419-.1015-2.864.0203-4.214.4934v8.971h-4.604v-13.4h4.604v1.968c1.278-1.056 2.797-1.923 4.48-2.01.3767.09677 1.225-.2006 1.326.2156v3.918zm11.65 5.869c1.007-1.176.9474-2.862.8377-4.318-.1141-1.201-.6833-2.571-1.942-2.911-1.219-.3475-2.796-.1876-3.517 1.004-.7844 1.295-.7491 2.909-.5705 4.366.1429 1.148.8292 2.343 2.023 2.597 1.075.2502 2.403.1647 3.168-.7381zm5.665-3.257c.0399 2.009-.6906 4.101-2.269 5.387-1.911 1.606-4.551 1.876-6.939 1.656-2.118-.1837-4.289-1.145-5.46-3.014-1.157-1.828-1.292-4.167-.7961-6.236.5057-2.094 2.192-3.771 4.205-4.41 2.014-.6443 4.213-.658 6.26-.1646 2.117.5063 3.99 2.109 4.631 4.242.2619.8182.3666 1.682.3665 2.54zm15.81 2.446c.0514 1.509-.9765 2.83-2.25 3.505-2.104 1.154-4.594 1.208-6.925 1.038-1.456-.1382-2.904-.4561-4.265-1v-3.531c.4812-.1002.8202.289 1.215.501 2.009 1.043 4.367 1.545 6.598 1.06.6805-.08187 1.256-.9334.7057-1.508-.7008-.4867-1.597-.5251-2.41-.6928-1.733-.26-3.626-.5176-4.976-1.754-1.387-1.293-1.442-3.76-.0577-5.079 1.622-1.633 4.013-2.043 6.211-2.058 1.869-.01046 3.746.3076 5.503.954v3.388c-.4948.09907-.8418-.3278-1.276-.4918-1.814-.8533-3.929-1.307-5.891-.7359-.6874.1002-1.176.9793-.5874 1.507.7737.5052 1.742.543 2.624.7312 1.663.2854 3.513.4594 4.8 1.687.6652.6386.9957 1.561.9821 2.479zm12.09.8112c1.007-1.176.9474-2.862.8377-4.318-.1141-1.201-.6833-2.571-1.942-2.911-1.219-.3475-2.796-.1876-3.517 1.004-.7844 1.295-.7491 2.909-.5705 4.366.1429 1.148.8292 2.343 2.023 2.597 1.075.2502 2.403.1647 3.168-.7381zm5.666-3.257c.0399 2.009-.6906 4.101-2.269 5.387-1.911 1.606-4.551 1.876-6.939 1.656-2.118-.1837-4.289-1.145-5.46-3.014-1.157-1.828-1.292-4.167-.7961-6.236.5058-2.094 2.192-3.771 4.205-4.41 2.014-.6443 4.213-.658 6.26-.1646 2.117.5063 3.99 2.109 4.631 4.242.2619.8182.3666 1.682.3665 2.54zm12.64-8.72c-.7421.0086-1.445-.3631-2.2-.2982-.7629.01261-1.822.04712-2.13.9124-.0319.3644-.5424 1.472.0817 1.402h3.289v2.911h-3.402v10.49h-4.604v-10.49h-1.969v-2.911h1.969c-.0719-1.567.3184-3.336 1.67-4.276 1.73-1.19 3.934-1.061 5.927-.9299.4158.1652 1.457-.1765 1.368.4742v2.715zm12.78 15.29c-1.903.4214-3.905.54-5.824.1589-1.181-.2406-2.368-.9523-2.764-2.166-.4859-1.356-.2817-2.816-.3261-4.227v-4.133h-1.893v-2.911h1.893v-3.829h4.604v3.829h4.31v2.911h-4.31c.0117 2.077-.0279 4.156.0301 6.232.0374.7955.6554 1.507 1.461 1.548.8569.1602 1.717-.1064 2.519-.3599.3757-.1231.3071.2037.2995.4687 5e-5.826.00011 1.652.00016 2.478z" stroke-width=".5939" style="paint-order:stroke fill markers"/><g transform="matrix(1.425,0,0,1.366,65.64,126.4)" stroke-width=".657" style="paint-order:normal" aria-label="Word"><path d="m70.18-77.01-2.936 10.9h-3.111l-1.955-7.101-1.903 7.101h-3.111l-2.936-10.9h2.936l1.676 7.504 2.006-7.504h2.804l1.911 7.504 1.757-7.504z"/><path d="m80.31-70.22c.02529 1.33-.4634 2.737-1.578 3.534-1.174.8511-2.721.9519-4.11.7261-1.272-.2073-2.454-1.036-2.944-2.25-.4648-1.143-.4845-2.45-.1459-3.629.3768-1.319 1.539-2.324 2.869-2.601 1.227-.2548 2.56-.2183 3.713.3072 1.26.571 2.047 1.889 2.16 3.241.02402.2231.03481.4475.03482.6718zm-3.243 1.999c.5853-.7449.5381-1.757.4795-2.65-.06668-.7398-.3915-1.622-1.196-1.811-.6734-.179-1.522-.05138-1.902.5985-.4831.8125-.4542 1.814-.3534 2.722.08151.7079.4845 1.481 1.247 1.617.5972.1252 1.329.04207 1.724-.4756z"/><path d="m88.18-71.82c-.294.02174-.5722-.09933-.8674-.09471-.8277-.06798-1.675.0053-2.456.2997v5.505h-2.635v-8.221h2.635v1.208c.7496-.6635 1.669-1.23 2.701-1.237.2496.03468.7325-.1148.6223.2773v2.263z"/><path d="m98.74-66.11h-2.635v-.8565c-.7588.6489-1.71 1.151-2.736 1.082-1.127.01483-2.168-.7026-2.659-1.7-.614-1.227-.679-2.685-.3808-4.008.3237-1.3 1.294-2.47 2.618-2.82 1.033-.314 2.152-.1069 3.096.3812.1347.004.02819-.3755.06214-.5317v-2.938h2.635v11.39zm-2.635-2.269v-4.034c-.8769-.3405-2.065-.359-2.709.4319-.6265.8329-.6015 1.971-.3877 2.944.1288.6588.738 1.134 1.402 1.14.5986.0534 1.205-.1409 1.694-.482z"/></g></g><path d="m-432.9-390.1c28.13-22.16 119.9-6.775 173.1-10.57v91.61c-50.53-1.759-120.5 6.73-165-2.845-32.37-33.36-18.41-55.34-8.114-78.2z" fill="#44b1dc" stroke-width=".9078"/><rect class="selected" x="-446" y="-401.4" width="283.7" height="93.07" rx="42.85" ry="54.75" fill="none" stroke="#44b1dc" stroke-miterlimit="10" stroke-width="4.46"/><path class="selected" d="m-290.5-360c-2.55-17.76-19.85-21.15-25.87-5.064-5.864.8555-10.21 7.916-9.892 16.06.3211 8.149 5.196 14.51 11.1 14.48h24.02c5.11-.0173 9.242-5.758 9.235-12.83.0204-6.707-3.753-12.26-8.592-12.65z" fill="#5d6c7f" stroke-width=".8993"/><path d="m-309-345.7c-2.633-3.661-4.814-6.757-4.85-6.88-.0379-.133 1.277-.2222 3.268-.2222h3.33v-12.81l5.66.0132c.0336.0342.1214 3.197.1808 6.602l.1079 6.191h3.301c1.982 0 3.276.0892 3.239.2231-.0754.2737-9.228 13.5-9.36 13.51-.0505.009-2.246-2.98-4.878-6.643z" fill="#44b1dc" stroke-width=".8993" style="paint-order:normal"/><g transform="matrix(.7197 0 0 1.085 -469.1 -131.7)" fill="#a0c9e5" stroke="#466395" stroke-width="3.285"><g fill="#a0c9e5" stroke="#466395" stroke-width="3.285"><g stroke="none">
<path d="m349.6 337.7-23.71-194.4c-.4347-3.834-.6591-11.93-2.716-14.74-3.398-4.646-7.11-3.934-13.49-3.927l-290.4.3164c-5.9.006-7.995.892-11.54 4.276-3.81 4.266-2.668 6.978-2.024 12.66l19.95 198.4c2.24 5.294 9.455 4.28 10.68 4.186l303.8-.1235c9.249-.004 9.509-6.676 9.509-6.676z" fill="#a0c9e5"/><path d="m36.95 336.6 299 .9748c1.424.005 2.781-.607 3.729-1.67s2.549-2.479 2.389-3.894l-23.21-193.3c-.287-2.527-2.425-4.442-4.968-4.437l-296.9.6069c-1.424.003-2.781.607-3.729 1.67s-1.239 3.894-1.239 3.894l20.02 191.7c.286 2.526 2.424 4.428 4.968 4.436z" fill="#dfeff3"/>
<rect x="25" y="344.6" width="430" height="21.56" rx="10.03" ry="10.03" fill="#a0c9e5" style="paint-order:fill markers stroke"/></g><g fill="#4796cd" stroke-width="0"><path d="m49.55 350.3h-9c-2.761 0-5 2.239-5 5s2.239 5 5 5h9c2.761 0 5-2.239 5-5s-2.238-5-5-5z"/><path d="m72.52 350.3h-8.5c-2.761 0-5 2.239-5 5s2.239 5 5 5h8.5c2.761 0 5-2.239 5-5s-2.238-5-5-5z"/><path d="m128.6 349.6c-1.31 0-2.6.54-3.53 1.46-.93.94-1.47 2.22-1.47 3.54s.54 2.61 1.47 3.54 2.22 1.46 3.53 1.46c1.32 0 2.61-.53 3.54-1.46s1.46-2.22 1.46-3.54-.53-2.6-1.46-3.54c-.93-.92-2.22-1.46-3.54-1.46z"/></g></g></g></g><path d="m32.48 533.5 166.6.0639c0 .3285.9977 8.364.8813 12.36-.0421 1.446-1.602 3.299-3.202 3.398l-160.8-.8165c-3.708-.2024-2.715-9.313-3.486-15.01z" fill="#6d89bb" style="paint-order:fill markers stroke"/><path transform="matrix(.995 -.09985 .1538 .9881 0 0)" d="m-37.41 543.4a4.327 5.999 0 01-4.326 5.999 4.327 5.999 0 01-4.328-5.996 4.327 5.999 0 014.324-6.001 4.327 5.999 0 014.329 5.994" fill="#91a0b6" style="paint-order:fill markers stroke"/><path d="m36.19 384.5h139.3l11.76 140-141.8.3409z" fill="#d5dada" stroke-width=".1668" style="paint-order:fill markers stroke"/><g stroke-width=".1671"><rect transform="matrix(1 0 .07486 .9972 0 0)" x="30.5" y="419.4" width="90.64" height="106.6" fill="#fff" style="paint-order:fill markers stroke"/><rect transform="matrix(1 0 .07486 .9972 0 0)" x="7.321" y="385.6" width="139.3" height="9.149" fill="#fff" style="paint-order:fill markers stroke"/><rect transform="matrix(1 0 .07486 .9972 0 0)" x="7.321" y="394.8" width="139.3" height="18.5" fill="#c2dbed" style="paint-order:fill markers stroke"/></g><g transform="matrix(.1292 0 .01617 .2154 -55.45 317)" fill="#b4d3e9"><rect x="686.7" y="361.9" width="127.6" height="75.68" style="paint-order:fill markers stroke"/><rect x="820.9" y="361.9" width="116.1" height="75.38" style="paint-order:fill markers stroke"/><rect x="943.4" y="361.9" width="139.4" height="75.38" style="paint-order:fill markers stroke"/><rect x="1089" y="361.9" width="134.2" height="75.38" style="paint-order:fill markers stroke"/><rect x="1224" y="361.9" width="127.6" height="75.38" style="paint-order:fill markers stroke"/><rect x="1358" y="361.9" width="127.6" height="75.38" style="paint-order:fill markers stroke"/><rect x="1486" y="361.9" width="134.2" height="75.38" style="paint-order:fill markers stroke"/><rect x="1628" y="361.9" width="107.2" height="75.38" style="paint-order:fill markers stroke"/></g><g transform="matrix(.1292 0 .01617 .2154 -55.45 317)" fill="none" stroke="#b6bdbd" stroke-linecap="round" stroke-linejoin="round" stroke-width="4.731"><path d="m1724 324.3-22.23 21.27"/><path d="m1702 324.4 22.21 21.26"/><path d="m1676 345.7h-23.35l-.1384-20.48 23.36-.1225z"/><path d="m1602 345.6 31.63.0777"/></g><g fill="#339ff4"><path d="m85.54 455.1h-2.661l-.9051-13.23-1.335 8.587h-1.846l-2.51-8.587.9051 13.23h-2.522l-1.352-19.76h3.107l3.012 9.914 1.648-9.914h3.107zm3.912-17.03h-2.647l-.2479-3.624h2.647zm1.096 17.03h-2.508l-1.02-14.91h2.508zm6.47.3982c-1.284-.005-2.708-.5268-3.801-2.414-.8722-1.492-1.328-3.757-1.407-5.889-.1214-2.066.1843-4.12.8907-5.403.91-1.657 2.239-2.085 3.512-1.994.8295.0643 1.671.5041 2.474 1.178l.2788 4.074c-.1649-.037-.3484.1189-.4868-.1904-.9207-1.445-2.154-2.115-3.141-1.363-.699.5387-1.012 2.146-.9331 3.7.04493 1.51.3372 3.266 1.051 4.151.7179.8847 1.567.8745 2.281.5101.4923-.2568.8958-.8692 1.23-1.592.1105.0531.3107-.1097.3612.0878l.2727 3.986c-.7865.7471-1.666 1.176-2.582 1.155zm9.248-10.75c-.2903.034-.5863-.1875-.8797-.1773-.7806-.113-1.558.0227-2.258.549l.6829 9.981h-2.508l-1.02-14.91h2.508l.1499 2.19c.6157-1.175 1.377-2.139 2.287-2.236.2125.1077.6519-.2232.7386.2399l.2982 4.359zm6.792 6.53c.4589-1.308.2981-3.184.1275-4.804-.1536-1.336-.5679-2.86-1.279-3.239-.6904-.3866-1.537-.2087-1.839 1.117-.3286 1.441-.1865 3.236.0216 4.857.1653 1.277.63 2.607 1.3 2.889.6045.2784 1.321.1832 1.669-.8212zm2.837-3.624c.1747 2.235-.0639 4.563-.8257 5.993-.9185 1.787-2.336 2.087-3.653 1.842-1.168-.2044-2.423-1.274-3.203-3.353-.7693-2.034-1.021-4.636-.9083-6.938.116-2.33.9068-4.195 1.954-4.906 1.048-.7168 2.244-.7321 3.397-.1831 1.192.5633 2.334 2.346 2.845 4.72.2049.9103.3277 1.871.393 2.826zm8.797 2.721c.143 1.679-.3164 3.149-.9586 3.9-1.058 1.284-2.41 1.344-3.693 1.155-.8035-.1537-1.616-.5075-2.399-1.113l-.2688-3.928c.2544-.1115.4687.3215.6999.5574 1.174 1.16 2.496 1.719 3.674 1.179.3644-.0911.613-1.038.2696-1.678-.4188-.5415-.9098-.5842-1.365-.7708-.9636-.2893-2.014-.5759-2.844-1.951-.8538-1.439-1.072-4.183-.4181-5.651.7591-1.817 2.03-2.273 3.226-2.29 1.017-.0115 2.064.3422 3.07 1.061l.2579 3.769c-.262.1102-.4834-.3647-.7324-.5472-1.053-.9493-2.239-1.454-3.264-.8187-.3668.1115-.566 1.09-.2052 1.677.4598.5621.9901.6041 1.485.8135.9275.3175 1.948.5111 2.743 1.877.4109.7105.6611 1.737.7236 2.758zm6.646.9025c.4589-1.308.2982-3.184.1275-4.804-.1535-1.336-.5679-2.86-1.279-3.239-.6904-.3866-1.537-.2087-1.839 1.117-.3286 1.441-.1865 3.236.0216 4.857.1652 1.277.63 2.607 1.299 2.889.6045.2784 1.321.1832 1.669-.8212zm2.838-3.624c.1747 2.235-.0639 4.563-.8257 5.993-.9186 1.787-2.336 2.087-3.653 1.842-1.168-.2044-2.423-1.274-3.203-3.353-.7693-2.034-1.021-4.636-.9083-6.938.1162-2.33.9068-4.195 1.955-4.906 1.048-.7168 2.244-.7321 3.397-.1831 1.192.5633 2.334 2.346 2.845 4.72.205.9103.3277 1.871.393 2.826zm6.22-9.702c-.4035.01-.8146-.404-1.221-.3318-.4145.0148-.9888.0525-1.091 1.015.0104.4054-.1833 1.638.1512 1.56h1.791l.2216 3.239h-1.853l.7985 11.67h-2.508l-.7985-11.67h-1.072l-.2216-3.239h1.072c-.1584-1.743-.0804-3.712.5841-4.757.8516-1.324 2.062-1.18 3.157-1.035.239.1838.7801-.1964.7812.5276l.2067 3.021zm8.124 17.01c-1.004.4688-2.086.6008-3.16.1768-.6615-.2677-1.362-1.059-1.67-2.41-.3679-1.509-.3678-3.133-.4994-4.703l-.3146-4.598h-1.031l-.2216-3.239h1.031l-.2915-4.26h2.508l.2914 4.26h2.347l.2216 3.239h-2.347c.1641 2.311.3011 4.624.4907 6.934.0812.885.4717 1.677.9136 1.722.4789.1782.9271-.1184 1.345-.4004.1952-.137.1828.2266.1988.5215.063.919.1259 1.838.1887 2.757z" stroke-width=".4623" style="paint-order:stroke fill markers"/><g stroke-width="1.086"><path d="m106.5 460-1.145 16.57h-2.414l-2.256-10.79-.7386 10.79h-2.414l-3.412-16.57h2.279l2.081 11.4.7766-11.4h2.176l2.263 11.4.5833-11.4z" style="paint-order:normal"/><path d="m115.1 470.3c.1579 2.021-.0751 4.16-.8572 5.371-.8227 1.293-2.013 1.447-3.114 1.104-1.009-.315-2.012-1.574-2.519-3.419-.4796-1.737-.6308-3.723-.4906-5.515.1553-2.005.9528-3.532 1.956-3.953.9258-.3872 1.964-.3318 2.914.4669 1.037.8678 1.785 2.871 2.013 4.926.0418.3391.0734.6801.0969 1.021zm-2.309 3.038c.3768-1.132.2349-2.67.0966-4.027-.1287-1.124-.4725-2.465-1.117-2.752-.5412-.272-1.187-.0781-1.414.9096-.2905 1.235-.1639 2.757.009 4.137.1368 1.076.53 2.251 1.136 2.457.4765.1903 1.036.064 1.289-.7228z" style="paint-order:normal"/><path d="m121.1 467.9c-.2259.033-.4544-.1509-.683-.1439-.6495-.1034-1.299.008-1.875.4555l.5724 8.366h-2.045l-.8548-12.49h2.045l.1256 1.836c.5128-1.008 1.167-1.869 1.968-1.88.1973.0528.5566-.1745.5118.4214l.2353 3.439z" style="paint-order:normal"/><path d="m129.8 476.6h-2.045l-.089-1.302c-.5214.9862-1.207 1.749-2.011 1.644-.8732.0225-1.756-1.068-2.24-2.584-.6041-1.865-.8062-4.081-.7123-6.091.116-1.976.7474-3.754 1.739-4.286.769-.4772 1.659-.1624 2.442.5794.1047.005-.0172-.5707-.007-.8081l-.3055-4.465h2.045l1.184 17.31zm-2.281-3.448-.4195-6.131c-.716-.5175-1.64-.5456-2.058.6564-.3996 1.266-.2619 2.995.004 4.474.1684 1.001.6907 1.723 1.207 1.733.4701.0812.9206-.2141 1.265-.7325z" style="paint-order:normal"/></g></g><path d="m111.7 500.1c-2.247-2.922-4.112-5.393-4.148-5.491-.0384-.1061.9386-.1773 2.429-.1773h2.492l-.9658-10.22 4.237.0105c.0277.0273.332 2.551.6332 5.269l.5476 4.941h2.47c1.483 0 2.458.0712 2.441.178-.0358.2184-5.887 10.77-5.985 10.79-.0371.007-1.906-2.378-4.151-5.301z" fill="#2196f3" stroke-width=".695" style="paint-order:normal"/><rect transform="matrix(1 0 .1581 .9874 0 0)" x="29.29" y="513.6" width="11.73" height="3.453" rx=".762" ry=".7619" fill="#2196f3" style="paint-order:fill markers stroke"/><path d="m100.5 555.9-3.914-.003c8.978 4.959 5.766 16.77.716 18.57l1.924.0604c3.594.3786 6.166-3.908 6.069-9.73-.008-4.031-1.579-8.214-4.795-8.894z" color="#000000" color-rendering="auto" dominant-baseline="auto" fill="#4796cd" image-rendering="auto" shape-rendering="auto" solid-color="#000000" style="font-feature-settings:normal;font-variant-alternates:normal;font-variant-caps:normal;font-variant-ligatures:normal;font-variant-numeric:normal;font-variant-position:normal;isolation:auto;mix-blend-mode:normal;shape-padding:0;text-decoration-color:#000000;text-decoration-line:none;text-decoration-style:solid;text-indent:0;text-orientation:mixed;text-transform:none;white-space:normal"/><path d="m257.4 555.8-2.956-.003c6.78 4.959 4.354 16.77.5407 18.57l1.453.0604c2.714.3786 4.656-3.908 4.583-9.73-.006-4.031-1.193-8.214-3.621-8.894z" color="#000000" color-rendering="auto" dominant-baseline="auto" fill="#4796cd" image-rendering="auto" shape-rendering="auto" solid-color="#000000" style="font-feature-settings:normal;font-variant-alternates:normal;font-variant-caps:normal;font-variant-ligatures:normal;font-variant-numeric:normal;font-variant-position:normal;isolation:auto;mix-blend-mode:normal;shape-padding:0;text-decoration-color:#000000;text-decoration-line:none;text-decoration-style:solid;text-indent:0;text-orientation:mixed;text-transform:none;white-space:normal"/><path d="m599.2 549.8 12.77-168.3c.2341-3.319.3549-10.32 1.463-12.76 1.83-4.021 3.829-3.405 7.262-3.399l156.4.2739c3.177.005 4.306.7721 6.217 3.701 2.052 3.692 1.437 6.04 1.09 10.96l-10.74 171.7c-1.206 4.582-5.092 3.705-5.752 3.623l-163.6-.1069c-4.981-.003-5.121-5.779-5.121-5.779z" fill="#a0c9e5"/><path d="m767.6 548.8-161 .8438c-.7668.004-1.498-.5254-2.008-1.445s-1.373-2.146-1.286-3.37l12.5-167.3c.1546-2.187 1.306-3.845 2.675-3.84l159.9.5253c.7668.003 1.498.5254 2.008 1.445.5105.9201.6672 3.37.6672 3.37l-10.78 165.9c-.154 2.186-1.305 3.832-2.675 3.84z" fill="#dfeff3"/><rect transform="scale(-1,1)" x="-774" y="555.8" width="231.6" height="18.66" rx="5.399" ry="8.679" fill="#a0c9e5" style="paint-order:fill markers stroke"/><g fill="#4796cd" stroke-width="0"><path d="m760.8 560.7h4.847c1.487 0 2.693 1.938 2.693 4.328s-1.206 4.328-2.693 4.328h-4.847c-1.487 0-2.693-1.938-2.693-4.328s1.205-4.328 2.693-4.328z"/><path d="m748.5 560.7h4.577c1.487 0 2.693 1.938 2.693 4.328s-1.206 4.328-2.693 4.328h-4.577c-1.487 0-2.693-1.938-2.693-4.328s1.205-4.328 2.693-4.328z"/><path d="m718.3 560.1c.7054 0 1.4.4674 1.901 1.264.5008.8136.7916 1.922.7916 3.064 0 1.143-.2908 2.259-.7916 3.064-.5008.805-1.195 1.264-1.901 1.264-.7108 0-1.406-.4587-1.906-1.264-.5008-.805-.7862-1.922-.7862-3.064 0-1.143.2854-2.25.7862-3.064.5008-.7963 1.195-1.264 1.906-1.264z"/></g><path d="m771 533.5-166.6.0639c0 .3285-.9977 8.364-.8813 12.36.0421 1.446 1.602 3.299 3.202 3.398l160.8-.8165c3.708-.2024 2.715-9.313 3.486-15.01z" fill="#6d89bb" style="paint-order:fill markers stroke"/><path transform="matrix(-.995 -.09985 -.1538 .9881 0 0)" d="m-685 478.2a4.327 5.999 0 01-4.326 5.999 4.327 5.999 0 01-4.328-5.996 4.327 5.999 0 014.324-6.001 4.327 5.999 0 014.329 5.994" fill="#91a0b6" style="paint-order:fill markers stroke"/><path d="m767.3 384.5h-139.3l-11.76 140 141.8.3409z" fill="#d5dada" stroke-width=".1668" style="paint-order:fill markers stroke"/><g stroke-width=".1671"><rect transform="matrix(-1 0 -.07486 .9972 0 0)" x="-773" y="419.4" width="90.64" height="106.6" fill="#fff" style="paint-order:fill markers stroke"/><rect transform="matrix(-1 0 -.07486 .9972 0 0)" x="-796.2" y="385.6" width="139.3" height="9.149" fill="#fff" style="paint-order:fill markers stroke"/><rect transform="matrix(-1 0 -.07486 .9972 0 0)" x="-796.2" y="394.8" width="139.3" height="18.5" fill="#c2dbed" style="paint-order:fill markers stroke"/></g><g transform="matrix(-.1292 0 -.01617 .2154 858.9 317)" fill="#b4d3e9"><rect x="686.7" y="361.9" width="127.6" height="75.68" style="paint-order:fill markers stroke"/><rect x="820.9" y="361.9" width="116.1" height="75.38" style="paint-order:fill markers stroke"/><rect x="943.4" y="361.9" width="139.4" height="75.38" style="paint-order:fill markers stroke"/><rect x="1089" y="361.9" width="134.2" height="75.38" style="paint-order:fill markers stroke"/><rect x="1224" y="361.9" width="127.6" height="75.38" style="paint-order:fill markers stroke"/><rect x="1358" y="361.9" width="127.6" height="75.38" style="paint-order:fill markers stroke"/><rect x="1486" y="361.9" width="134.2" height="75.38" style="paint-order:fill markers stroke"/><rect x="1628" y="361.9" width="107.2" height="75.38" style="paint-order:fill markers stroke"/></g><g transform="matrix(.1129 0 -.005671 .2109 570.4 318.7)" fill="none" stroke="#b6bdbd" stroke-linecap="round" stroke-linejoin="round" stroke-width="4.731"><path d="m1724 324.3-22.23 21.27"/><path d="m1702 324.4 22.21 21.26"/><path d="m1676 345.7h-23.35l-.1384-20.48 23.36-.1225z"/><path d="m1602 345.6 31.63.0777"/></g><g fill="#339ff4"><path d="m671 452.4h-2.396l1.007-13.91-2.385 9.028h-1.662l-1.078-9.028-1.007 13.91h-2.271l1.505-20.77h2.798l1.347 10.42 2.85-10.42h2.798zm5.87-17.91h-2.384l.2759-3.81h2.384zm-1.36 17.91h-2.258l1.135-15.67h2.258zm5.772.4186c-1.156-.005-2.366-.5539-3.091-2.538-.58-1.569-.6788-3.95-.4561-6.191.1752-2.172.7335-4.331 1.546-5.68 1.048-1.742 2.303-2.192 3.437-2.096.7382.0676 1.436.53 2.066 1.239l-.3102 4.284c-.1434-.0389-.3302.125-.4122-.2001-.6301-1.519-1.648-2.224-2.641-1.433-.7037.5664-1.207 2.256-1.35 3.89-.1675 1.587-.1463 3.434.3746 4.364.5247.9302 1.291.9194 1.984.5363.4787-.27.9266-.9139 1.327-1.674.0922.0558.2949-.1153.3132.0923l-.3035 4.191c-.8113.7855-1.662 1.236-2.484 1.214zm9.81-11.3c-.2662.0356-.5022-.1971-.7679-.1865-.6875-.1188-1.407.0238-2.109.5772l-.7599 10.49h-2.258l1.135-15.67h2.258l-.1667 2.302c.7164-1.235 1.535-2.249 2.368-2.351.1766.1132.6179-.2346.6321.2522l-.3319 4.583zm5.217 6.865c.5936-1.376.7072-3.348.7767-5.051.0457-1.405-.1173-3.007-.706-3.405-.5685-.4065-1.356-.2194-1.81 1.174-.4945 1.515-.6139 3.403-.6497 5.107-.0271 1.343.2083 2.741.7723 3.038.5061.2927 1.165.1927 1.616-.8634zm3.055-3.81c-.1506 2.35-.6861 4.797-1.569 6.301-1.073 1.879-2.391 2.194-3.544 1.937-1.023-.2149-2.007-1.339-2.423-3.526-.4127-2.138-.2808-4.874.1378-7.294.4254-2.449 1.395-4.411 2.436-5.158 1.042-.7536 2.122-.7697 3.085-.1925.9955.5922 1.778 2.467 1.912 4.962.0592.9571.0373 1.967-.0354 2.971zm7.548 2.861c-.1026 1.765-.7187 3.31-1.401 4.1-1.13 1.35-2.356 1.413-3.485 1.214-.7025-.1616-1.386-.5335-2.007-1.17l.2991-4.13c.2445-.1172.3778.3381.5536.586.8971 1.22 2.011 1.807 3.147 1.24.3408-.0957.6952-1.092.4739-1.764-.3025-.5693-.7389-.6142-1.123-.8104-.828-.3041-1.735-.6054-2.292-2.052-.5708-1.512-.3888-4.398.4019-5.941.934-1.91 2.142-2.39 3.221-2.407.9177-.0124 1.811.3598 2.618 1.116l-.287 3.963c-.2511.1158-.3852-.3834-.5842-.5753-.8176-.9981-1.817-1.529-2.827-.8608-.3457.1172-.6598 1.145-.4158 1.763.3367.5909.8085.6352 1.225.8553.7916.3338 1.684.5374 2.212 1.973.2722.747.3562 1.826.2717 2.9zm5.862.9489c.5935-1.376.7072-3.348.7767-5.051.0459-1.405-.1173-3.007-.706-3.405-.5685-.4065-1.356-.2195-1.81 1.174-.4945 1.515-.6139 3.403-.6497 5.107-.0271 1.343.2083 2.741.7723 3.038.5061.2927 1.165.1927 1.616-.8634zm3.055-3.81c-.1506 2.35-.6861 4.797-1.569 6.301-1.073 1.879-2.391 2.194-3.544 1.937-1.023-.2149-2.007-1.339-2.423-3.526-.4127-2.138-.2807-4.874.1378-7.294.4256-2.449 1.395-4.411 2.436-5.158 1.042-.7536 2.122-.7697 3.085-.1925.9955.5922 1.779 2.467 1.912 4.962.0592.9571.0373 1.967-.0354 2.971zm6.939-10.2c-.3648.0108-.678-.4247-1.054-.3488-.3754.0157-.8977.0553-1.122 1.067-.0465.4263-.3907 1.722-.0786 1.64h1.613l-.2466 3.405h-1.669l-.8886 12.27h-2.258l.8886-12.27h-.9658l.2466-3.405h.9658c.0975-1.833.4389-3.902 1.181-5.002.9494-1.392 2.02-1.241 2.986-1.088.19.1933.7296-.2064.6308.5547l-.23 3.176zm4.974 17.89c-.9691.4929-1.961.6316-2.87.1858-.5589-.2814-1.081-1.114-1.172-2.534-.1232-1.586.1004-3.294.1981-4.944l.3501-4.834h-.9286l.2466-3.405h.9286l.3244-4.479h2.258l-.3244 4.479h2.114l-.2466 3.405h-2.114c-.1706 2.429-.3658 4.861-.5132 7.29-.0488.9305.1939 1.763.5855 1.811.4067.1874.8512-.1245 1.266-.421.1947-.144.1334.2383.1073.5482-.0698.9662-.1398 1.932-.2098 2.899z" stroke-width=".4499" style="paint-order:stroke fill markers"/><g stroke-width="1.057"><path d="m689.3 457.6-3.314 17.42h-2.175l-.5448-11.35-2.152 11.35h-2.175l-.7911-17.42h2.052l.3032 11.99 2.27-11.99h1.96l.4675 11.99 2.096-11.99z" style="paint-order:normal"/><path d="m695.6 468.4c-.1362 2.125-.6406 4.373-1.512 5.647-.9191 1.36-2.012 1.521-2.957 1.16-.8651-.3313-1.595-1.655-1.797-3.595-.1926-1.826-.0551-3.915.3179-5.799.416-2.108 1.345-3.713 2.306-4.156.8872-.4071 1.815-.3488 2.56.4908.8146.9124 1.212 3.018 1.135 5.179-.009.3565-.0276.715-.0535 1.073zm-2.498 3.194c.4953-1.19.5794-2.807.6418-4.234.0389-1.182-.0859-2.592-.6264-2.894-.45-.286-1.058-.0821-1.399.9563-.4317 1.298-.5274 2.898-.5618 4.349-.025 1.131.1673 2.366.6845 2.584.403.2.9241.0672 1.26-.7599z" style="paint-order:normal"/><path d="m701.3 465.9c-.2081.0348-.3885-.1587-.5954-.1512-.5707-.1087-1.171.008-1.751.4789l-.637 8.796h-1.842l.9513-13.14h1.842l-.1398 1.93c.6007-1.06 1.309-1.965 2.031-1.976.1704.0555.5253-.1834.4029.4431l-.2619 3.616z" style="paint-order:normal"/><path d="m708 475h-1.842l.0992-1.369c-.6055 1.037-1.328 1.839-2.038 1.729-.7895.0238-1.434-1.123-1.662-2.716-.2872-1.961-.1639-4.29.1976-6.404.3766-2.077 1.19-3.947 2.156-4.506.7584-.5017 1.517-.1708 2.12.6091.0935.005.0631-.6.105-.8496l.34-4.694h1.842l-1.318 18.2zm-1.579-3.625.4668-6.446c-.5735-.544-1.402-.5736-1.944.6901-.5343 1.331-.6485 3.149-.6128 4.704.0138 1.053.3846 1.812.848 1.822.4122.0855.8586-.2251 1.24-.7702z" style="paint-order:normal"/></g></g><path d="m685.6 498.1c-1.593-2.862-2.91-5.281-2.929-5.378-.0203-.1039.8428-.1737 2.145-.1737h2.178l.4515-10.01 3.701.0104c.0206.0267-.0333 2.499-.1145 5.16l-.1478 4.839h2.159c1.296 0 2.14.0698 2.111.1743-.0589.2139-6.511 10.55-6.598 10.56-.0333.007-1.364-2.329-2.956-5.192z" fill="#2196f3" stroke-width=".643" style="paint-order:normal"/><rect transform="matrix(1 0 .01341 .9999 0 0)" x="676.9" y="505" width="10.25" height="3.339" rx=".762" ry=".6891" fill="#2196f3" style="paint-order:fill markers stroke"/><path d="m703 555.9 3.914-.003c-8.978 4.959-5.766 16.77-.716 18.57l-1.924.0604c-3.594.3786-6.166-3.908-6.069-9.73.008-4.031 1.579-8.214 4.795-8.894z" color="#000000" color-rendering="auto" dominant-baseline="auto" fill="#4796cd" image-rendering="auto" shape-rendering="auto" solid-color="#000000" style="font-feature-settings:normal;font-variant-alternates:normal;font-variant-caps:normal;font-variant-ligatures:normal;font-variant-numeric:normal;font-variant-position:normal;isolation:auto;mix-blend-mode:normal;shape-padding:0;text-decoration-color:#000000;text-decoration-line:none;text-decoration-style:solid;text-indent:0;text-orientation:mixed;text-transform:none;white-space:normal"/><path d="m546.1 555.8 2.956-.003c-6.78 4.959-4.354 16.77-.5407 18.57l-1.453.0604c-2.714.3786-4.656-3.908-4.583-9.73.006-4.031 1.193-8.214 3.621-8.894z" color="#000000" color-rendering="auto" dominant-baseline="auto" fill="#4796cd" image-rendering="auto" shape-rendering="auto" solid-color="#000000" style="font-feature-settings:normal;font-variant-alternates:normal;font-variant-caps:normal;font-variant-ligatures:normal;font-variant-numeric:normal;font-variant-position:normal;isolation:auto;mix-blend-mode:normal;shape-padding:0;text-decoration-color:#000000;text-decoration-line:none;text-decoration-style:solid;text-indent:0;text-orientation:mixed;text-transform:none;white-space:normal"/></g></g>
<defs>
<filter id="Adobe_OpacityMaskFilter" x="2826" y="1178" width="290.8" height="99.44" filterUnits="userSpaceOnUse">
<feFlood result="back"/>
<feBlend in="SourceGraphic" in2="back"/>
</filter>
</defs>
<mask x="2826.01" y="1178.44" width="290.75" height="99.44" maskUnits="userSpaceOnUse">
<g filter="url(#Adobe_OpacityMaskFilter)">

<mask id="SVGID_41_" x="2826.01" y="1178.44" width="290.75" height="99.44" maskUnits="userSpaceOnUse">
</mask>
<linearGradient id="SVGID_42_" x1="2826" x2="3117" y1="1228" y2="1228" gradientUnits="userSpaceOnUse">
<stop offset="0"/>
<stop stop-color="#fff" offset="1"/>
</linearGradient>
<path d="m2826 1278s137.1-129.8 290.8-92.82v31.93c0-.01-54.6-72.82-290.8 60.89z" fill="url(#SVGID_42_)" mask="url(#SVGID_41_)"/>
</g>
</mask>
<defs>
<filter id="Adobe_OpacityMaskFilter_2_" x="2819" y="1283" width="250.6" height="62.74" filterUnits="userSpaceOnUse">
<feFlood result="back"/>
<feBlend in="SourceGraphic" in2="back"/>
</filter>
</defs>
<mask x="2819.13" y="1282.93" width="250.63" height="62.74" maskUnits="userSpaceOnUse">
<g filter="url(#Adobe_OpacityMaskFilter_2_)">

<mask id="SVGID_44_" x="2819.13" y="1282.93" width="250.63" height="62.74" maskUnits="userSpaceOnUse">
</mask>
<linearGradient id="SVGID_45_" x1="4775" x2="5015" y1="260.6" y2="260.6" gradientTransform="matrix(.9299 .3679 -.3679 .9299 -1510 -733)" gradientUnits="userSpaceOnUse">
<stop offset="0"/>
<stop stop-color="#fff" offset="1"/>
</linearGradient>
<path d="m2819 1304s144.2-57.8 250.6 17l-9.67 24.44c.01-.01-19.73-72.27-241-41.44z" fill="url(#SVGID_45_)" mask="url(#SVGID_44_)"/>
</g>
</mask>
<defs>
<filter id="Adobe_OpacityMaskFilter_4_" x="2765" y="659.4" width="233.9" height="337.5" filterUnits="userSpaceOnUse">
<feFlood result="back"/>
<feBlend in="SourceGraphic" in2="back"/>
</filter>
</defs>
<mask x="2765.45" y="659.38" width="233.94" height="337.5" maskUnits="userSpaceOnUse">
<g filter="url(#Adobe_OpacityMaskFilter_4_)">

<mask id="SVGID_47_" x="2765.45" y="659.38" width="233.94" height="337.5" maskUnits="userSpaceOnUse">
</mask>
<linearGradient id="SVGID_48_" x1="-1585" x2="-1208" y1="847.6" y2="847.6" gradientTransform="matrix(.7572 -.6532 .6532 .7572 3370 -728.9)" gradientUnits="userSpaceOnUse">
<stop offset="0"/>
<stop stop-color="#fff" offset="1"/>
</linearGradient>
<path d="m2765 996.9s24.68-243.6 206.9-337.5l27.06 31.36s-115.3-25.25-233.9 306.1z" fill="url(#SVGID_48_)" mask="url(#SVGID_47_)"/>
</g>
</mask>
<defs>
<filter id="Adobe_OpacityMaskFilter_6_" x="1906" y="950.1" width="344.7" height="212.2" filterUnits="userSpaceOnUse">
<feFlood result="back"/>
<feBlend in="SourceGraphic" in2="back"/>
</filter>
</defs>
<mask x="1905.83" y="950.1" width="344.71" height="212.18" maskUnits="userSpaceOnUse">
<g filter="url(#Adobe_OpacityMaskFilter_6_)">

<mask id="SVGID_50_" x="1905.83" y="950.1" width="344.71" height="212.18" maskUnits="userSpaceOnUse">
</mask>
<linearGradient id="SVGID_51_" x1="-3322" x2="-2945" y1="-169.4" y2="-169.4" gradientTransform="matrix(-.9672 -.2538 -.2538 .9672 -989.5 420.5)" gradientUnits="userSpaceOnUse">
<stop offset="0"/>
<stop stop-color="#fff" offset="1"/>
</linearGradient>
<path d="m2251 1162s-129.2-207.9-334.2-212.2l-10.51 40.06s92.47-73.37 344.7 172.1z" fill="url(#SVGID_51_)" mask="url(#SVGID_50_)"/>
</g>
</mask>
<defs>
<filter id="Adobe_OpacityMaskFilter_8_" x="1931" y="1240" width="200" height="123.1" filterUnits="userSpaceOnUse">
<feFlood result="back"/>
<feBlend in="SourceGraphic" in2="back"/>
</filter>
</defs>
<mask x="1931.3" y="1239.94" width="199.99" height="123.1" maskUnits="userSpaceOnUse">
<g filter="url(#Adobe_OpacityMaskFilter_8_)">

<mask id="SVGID_53_" x="1931.3" y="1239.94" width="199.99" height="123.1" maskUnits="userSpaceOnUse">
</mask>
<linearGradient id="SVGID_54_" x1="-3258" x2="-3039" y1="82.16" y2="82.16" gradientTransform="matrix(-.9672 -.2538 -.2538 .9672 -989.5 420.5)" gradientUnits="userSpaceOnUse">
<stop offset="0"/>
<stop stop-color="#fff" offset="1"/>
</linearGradient>
<path d="m2131 1363s-74.98-120.6-193.9-123.1l-6.1 23.24s53.65-42.57 200 99.86z" fill="url(#SVGID_54_)" mask="url(#SVGID_53_)"/>
</g>
</mask>
<defs>
<filter id="Adobe_OpacityMaskFilter_10_" x="2154" y="872.9" width="156.1" height="340.7" filterUnits="userSpaceOnUse">
<feFlood result="back"/>
<feBlend in="SourceGraphic" in2="back"/>
</filter>
</defs>
<mask x="2154.19" y="872.94" width="156.13" height="340.7" maskUnits="userSpaceOnUse">
<g filter="url(#Adobe_OpacityMaskFilter_10_)">

<mask id="SVGID_56_" x="2154.19" y="872.94" width="156.13" height="340.7" maskUnits="userSpaceOnUse">
</mask>
<linearGradient id="SVGID_57_" x1="-5889" x2="-5543" y1="-3105" y2="-3105" gradientTransform="matrix(-.6137 -.7896 -.7896 .6137 -3710 -1567)" gradientUnits="userSpaceOnUse">
<stop offset="0"/>
<stop stop-color="#fff" offset="1"/>
</linearGradient>
<path d="m2309 1214s21.8-223.4-125-340.7l-29.98 23.3c.01 0 108.2-1.87 155 317.4z" fill="url(#SVGID_57_)" mask="url(#SVGID_56_)"/>
</g>
</mask>
<defs>
<filter id="Adobe_OpacityMaskFilter_12_" x="1718" y="901.6" width="47.57" height="45.24" filterUnits="userSpaceOnUse">
<feFlood result="back"/>
<feBlend in="SourceGraphic" in2="back"/>
</filter>
</defs>
<mask x="1717.85" y="901.58" width="47.57" height="45.24" maskUnits="userSpaceOnUse">
<g filter="url(#Adobe_OpacityMaskFilter_12_)">

<mask id="SVGID_59_" x="1717.85" y="901.58" width="47.57" height="45.24" maskUnits="userSpaceOnUse">
</mask>
<linearGradient id="SVGID_60_" x1="1718" x2="1765" y1="924.2" y2="924.2" gradientUnits="userSpaceOnUse">
<stop offset="0"/>
<stop stop-color="#fff" offset="1"/>
</linearGradient>
<polygon points="1765 918.9 1754 930.5 1756 946.8 1742 939.1 1727 946.8 1730 930.5 1718 918.9 1734 916.5 1742 901.6 1749 916.5" fill="url(#SVGID_60_)" mask="url(#SVGID_59_)"/>
</g>
</mask>
<defs>
<filter id="Adobe_OpacityMaskFilter_14_" x="2765" y="533.3" width="122.6" height="116.6" filterUnits="userSpaceOnUse">
<feFlood result="back"/>
<feBlend in="SourceGraphic" in2="back"/>
</filter>
</defs>
<mask x="2764.73" y="533.29" width="122.56" height="116.56" maskUnits="userSpaceOnUse">
<g filter="url(#Adobe_OpacityMaskFilter_14_)">

<mask id="SVGID_62_" x="2764.73" y="533.29" width="122.56" height="116.56" maskUnits="userSpaceOnUse">
</mask>
<linearGradient id="SVGID_63_" x1="2765" x2="2887" y1="591.6" y2="591.6" gradientUnits="userSpaceOnUse">
<stop offset="0"/>
<stop stop-color="#fff" offset="1"/>
</linearGradient>
<polygon points="2887 577.8 2857 607.7 2864 649.8 2826 629.9 2788 649.8 2795 607.7 2765 577.8 2807 571.7 2826 533.3 2845 571.7" fill="url(#SVGID_63_)" mask="url(#SVGID_62_)"/>
</g>
</mask>
<defs>
<filter id="Adobe_OpacityMaskFilter_16_" x="3117" y="1225" width="47.47" height="45.14" filterUnits="userSpaceOnUse">
<feFlood result="back"/>
<feBlend in="SourceGraphic" in2="back"/>
</filter>
</defs>
<mask x="3116.76" y="1225.35" width="47.47" height="45.14" maskUnits="userSpaceOnUse">
<g filter="url(#Adobe_OpacityMaskFilter_16_)">

<mask id="SVGID_65_" x="3116.76" y="1225.35" width="47.47" height="45.14" maskUnits="userSpaceOnUse">
</mask>
<linearGradient id="SVGID_66_" x1="3117" x2="3164" y1="1248" y2="1248" gradientUnits="userSpaceOnUse">
<stop offset="0"/>
<stop stop-color="#fff" offset="1"/>
</linearGradient>
<polygon points="3164 1243 3152 1254 3155 1270 3140 1263 3126 1270 3129 1254 3117 1243 3133 1240 3140 1225 3148 1240" fill="url(#SVGID_66_)" mask="url(#SVGID_65_)"/>
</g>
</mask>
<defs>
<filter id="Adobe_OpacityMaskFilter_18_" x="3092" y="1334" width="32.11" height="30.54" filterUnits="userSpaceOnUse">
<feFlood result="back"/>
<feBlend in="SourceGraphic" in2="back"/>
</filter>
</defs>
<mask x="3091.6" y="1333.53" width="32.11" height="30.54" maskUnits="userSpaceOnUse">
<g filter="url(#Adobe_OpacityMaskFilter_18_)">

<mask id="SVGID_68_" x="3091.6" y="1333.53" width="32.11" height="30.54" maskUnits="userSpaceOnUse">
</mask>
<linearGradient id="SVGID_69_" x1="3092" x2="3124" y1="1349" y2="1349" gradientUnits="userSpaceOnUse">
<stop offset="0"/>
<stop stop-color="#fff" offset="1"/>
</linearGradient>
<polygon points="3124 1345 3116 1353 3118 1364 3108 1359 3098 1364 3100 1353 3092 1345 3103 1344 3108 1334 3113 1344" fill="url(#SVGID_69_)" mask="url(#SVGID_68_)"/>
</g>
</mask>
</svg>
