<svg width="139.7" height="156.1" version="1.1" viewBox="0 0 140 156" xmlns="http://www.w3.org/2000/svg">
 <rect x="-.503" y="-.595" width="141" height="158" rx="0" ry="0" fill="#fff" style="paint-order:stroke fill markers"/>
 <rect x="22.32" y="16.17" width="94.57" height="101" rx="5.26" ry="5.545" clip-rule="evenodd" fill="#e3e3e3" fill-rule="evenodd" image-rendering="optimizeQuality" shape-rendering="geometricPrecision" style="paint-order:stroke fill markers"/>
 <g transform="matrix(.3092 0 0 .3082 55.24 60.58)" fill="#f98e04" stroke-linejoin="round" stroke-width="9.826" style="paint-order:stroke fill markers">
  <path d="m45.82-97.2c-65.31 1e-6 -118.5 51.72-118.5 115.6 0 63.83 53.18 115.6 118.5 115.6 65.31 0 118.5-51.72 118.5-115.6 0-63.83-53.18-115.6-118.5-115.6z" color="#000000" fill="#fff" style="-inkscape-stroke:none"/>
  <path d="m159.3 18.36a113.5 110.6 0 0 1-113.5 110.6 113.5 110.6 0 0 1-113.5-110.6 113.5 110.6 0 0 1 113.5-110.6 113.5 110.6 0 0 1 113.5 110.6z" color="#000000" fill="#d74314" style="-inkscape-stroke:none"/>
  <g>
   <g transform="matrix(1.023 -.009288 0 1.097 -7.321 -12.99)" fill="#fff">
    <path d="m-46.05-67.48c-5.913-0.06992-10.85 4.815-10.85 10.73l0.05469 64.36c2.58e-4 0.423 0.02406 0.8438 0.07422 1.264 0.5644 4.723 2.412 9.656 6.195 13.53 3.766 3.859 8.794 6.028 14.14 6.928h2e-3c0.5458 0.09182 1.097 0.1399 1.65 0.1465 17.91 0.2418 31.38-0.01035 41.86-1.645 10.49-1.634 18.34-4.8 23.65-10.75s7.54-13.94 8.574-23.96 0.917-22.4 0.8945-38.18c-6e-6 -0.4545-0.02833-0.9087-0.08594-1.359v-0.0078c-0.7403-5.722-3.27-10.97-7.467-14.58-4.065-3.498-8.852-4.961-13.13-5.594h-2e-3c-0.4757-0.07053-0.9547-0.1091-1.436-0.1152h-2e-3z" color="#000000" fill="#d74314" style="-inkscape-stroke:none"/>
    <path d="m-46.18-56.76 0.05513 64.36c0.7023 5.877 4.066 9.914 11.47 11.16l56.21 0.6731-15.9-18.17-33.33-0.2733s-1.751-0.8703-2.086-1.922l-0.1754-39.06 40.86 0.6254c0.9997 0.2986 1.612 0.7589 1.832 1.651l0.03899 29.92 16.77 17.61-0.07796-54.86c-0.9295-7.185-5.429-10.04-11.53-10.94z" color="#000000" style="-inkscape-stroke:none"/>
   </g>
   <g transform="matrix(1.023 .0135 0 1.097 -7.321 -14.4)">
    <path d="m148-69.76-64.13 0.7754c-0.4779 0.0053-0.9553 0.04212-1.43 0.1113h-0.0059l-0.0039 2e-3c-4.279 0.6329-9.067 2.095-13.13 5.594-4.197 3.612-6.727 8.856-7.467 14.58v0.0078c-0.0576 0.4507-0.08594 0.9048-0.08594 1.359l-0.08008 55.18 0.04297 0.3184c0.4288 3.288 0.5006 5.957 0.6152 8.338s0.06556 4.563 1.371 7.152c1.306 2.589 4.55 4.411 7.379 4.746 2.731 0.3235 5.682 0.02679 9.686-0.5273l55.97-0.6719c0.5526-0.0066 1.104-0.05461 1.65-0.1465h2e-3c5.343-0.9002 10.37-3.069 14.14-6.928 3.783-3.876 5.631-8.809 6.195-13.53v-0.00195c0.05-0.4189 0.074-0.8414 0.0742-1.264v-0.00195l0.0547-64.36c5e-3 -5.557-4.404-10.05-9.836-10.53-0.3489-0.03101-0.6548-0.2015-1.012-0.1973z" color="#000000" fill="#d74314" style="-inkscape-stroke:none"/>
    <path d="m148.1-59.04-0.0551 64.36c-0.7023 5.877-4.066 9.914-11.47 11.16l-56.21 0.6731 15.9-18.17 33.33-0.2733s1.751-0.8703 2.086-1.922l0.1754-39.06-40.86 0.6254c-0.9997 0.2986-1.612 0.7589-1.832 1.651l-0.03899 29.92-16.77 17.61 0.07797-54.86c0.9295-7.185 5.429-10.04 11.53-10.94z" color="#000000" fill="#fff" style="-inkscape-stroke:none"/>
   </g>
   <g transform="matrix(1.023 .009288 0 -1.097 -7.321 50.58)" fill="#fff" stroke-linejoin="round" stroke-width="9.826" style="paint-order:stroke fill markers">
    <path d="m-46.05-67.48c-5.913-0.06992-10.85 4.815-10.85 10.73l0.05469 64.36c2.58e-4 0.423 0.02406 0.8438 0.07422 1.264 0.5644 4.723 2.412 9.656 6.195 13.53 3.766 3.859 8.794 6.028 14.14 6.928h2e-3c0.5458 0.09182 1.097 0.1399 1.65 0.1465 17.91 0.2418 31.38-0.01035 41.86-1.645 10.49-1.634 18.34-4.8 23.65-10.75s7.54-13.94 8.574-23.96 0.917-22.4 0.8945-38.18c-6e-6 -0.4545-0.02833-0.9087-0.08594-1.359v-0.0078c-0.7403-5.722-3.27-10.97-7.467-14.58-4.065-3.498-8.852-4.961-13.13-5.594h-2e-3c-0.4757-0.07053-0.9547-0.1091-1.436-0.1152h-2e-3z" color="#000000" fill="#d74314" style="-inkscape-stroke:none"/>
    <path d="m-46.18-56.76 0.05513 64.36c0.7023 5.877 4.066 9.914 11.47 11.16l56.21 0.6731-15.9-18.17-33.33-0.2733s-1.751-0.8703-2.086-1.922l-0.1754-39.06 40.86 0.6254c0.9997 0.2986 1.612 0.7589 1.832 1.651l0.03899 29.92 16.77 17.61-0.07796-54.86c-0.9295-7.185-5.429-10.04-11.53-10.94z" color="#000000" style="-inkscape-stroke:none"/>
   </g>
   <g transform="matrix(1.023 -.0135 0 -1.097 -7.321 51.99)" stroke-linejoin="round" stroke-width="9.826" style="paint-order:stroke fill markers">
    <path d="m148-69.76-64.13 0.7754c-0.4779 0.0053-0.9553 0.04212-1.43 0.1113h-0.0059l-0.0039 2e-3c-4.279 0.6329-9.067 2.095-13.13 5.594-4.197 3.612-6.727 8.856-7.467 14.58v0.0078c-0.0576 0.4507-0.08594 0.9048-0.08594 1.359l-0.08008 55.18 0.04297 0.3184c0.4288 3.288 0.5006 5.957 0.6152 8.338s0.06556 4.563 1.371 7.152c1.306 2.589 4.55 4.411 7.379 4.746 2.731 0.3235 5.682 0.02679 9.686-0.5273l55.97-0.6719c0.5526-0.0066 1.104-0.05461 1.65-0.1465h2e-3c5.343-0.9002 10.37-3.069 14.14-6.928 3.783-3.876 5.631-8.809 6.195-13.53v-0.00195c0.05-0.4189 0.074-0.8414 0.0742-1.264v-0.00195l0.0547-64.36c5e-3 -5.557-4.404-10.05-9.836-10.53-0.3489-0.03101-0.6548-0.2015-1.012-0.1973z" color="#000000" fill="#d74314" style="-inkscape-stroke:none"/>
    <path d="m148.1-59.04-0.0551 64.36c-0.7023 5.877-4.066 9.914-11.47 11.16l-56.21 0.6731 15.9-18.17 33.33-0.2733s1.751-0.8703 2.086-1.922l0.1754-39.06-40.86 0.6254c-0.9997 0.2986-1.612 0.7589-1.832 1.651l-0.03899 29.92-16.77 17.61 0.07797-54.86c0.9295-7.185 5.429-10.04 11.53-10.94z" color="#000000" fill="#fff" style="-inkscape-stroke:none"/>
   </g>
  </g>
  <rect x="35.31" y="-64.29" width="18.57" height="149.3" ry="7.077" fill="#fff" style="paint-order:stroke fill markers"/>
 </g>
 <g transform="matrix(.2978 0 0 .3156 67.13 63.28)" clip-rule="evenodd" fill="#fff" fill-rule="evenodd" image-rendering="optimizeQuality" shape-rendering="geometricPrecision" stroke-linejoin="round" stroke-width="14.97" style="paint-order:stroke fill markers">
  <path d="m62.87 72.08-13.71 13.56-33.47-12.16 0.2962 35.58 46.8 17.64 47.4-17.03v-40.44l14.81-6.081-15.4-16.12-18.37-6.385 0.2962 5.816 11.26 3.914-39.7 15.06-39.1-14.45 11.26-4.257v-6.385l-19.25 7.906-15.11 15.2 47.4 17.64 14.81-15.2 14.81 15.2 27.25-10.03 0.2962 34.36-42.06 15.51z" fill="#d74314" stroke="#fff" stroke-linejoin="round" stroke-width="14.97" style="paint-order:stroke fill markers"/>
  <g clip-rule="nonzero" fill-rule="nonzero" shape-rendering="auto">
   <path d="m65.98-2.006c-1.721-0.6463-3.62-0.6366-5.334 0.02734l-24.55 9.506c-2.847 1.102-4.739 3.824-4.781 6.877l-0.4199 31.07c-0.04189 3.119 1.856 5.938 4.762 7.072l24.51 9.568c1.725 0.6734 3.639 0.6831 5.371 0.02734l25.16-9.525c2.907-1.101 4.831-3.884 4.834-6.992l0.02539-31.33c-0.0045-0.02281-9e-3 -0.0456-0.01367-0.06836-0.01033-0.06003-0.0214-0.1199-0.0332-0.1797-0.07541-1.274-0.4755-2.508-1.162-3.584-0.1371-0.2433-0.2877-0.4787-0.4512-0.7051-0.7878-1.03-1.83-1.838-3.023-2.344-0.05601-0.04443-0.1127-0.08805-0.1699-0.1309z" color="#000000" fill="#fff" style="-inkscape-stroke:none"/>
   <path d="m84.01 15.66 4.07-1.372-0.0244 31.33-25.16 9.524-24.51-9.568 0.4189-31.07 24.55-9.506 24.73 9.284-24.86 10.13-0.1594 25.81 20.95-7.963z" color="#000000" fill="#d74314" style="-inkscape-stroke:none"/>
  </g>
  <path d="m67.03 115.9 35.2-12.78-0.6017-26.97-23.47 8.801-9.778-8.375z" fill="#fff"/>
 </g>
 <text x="14.749603" y="139.07411" fill="#000000" font-family="sans-serif" font-size="12.03px" stroke-width="1.002" style="line-height:1.25" xml:space="preserve"><tspan x="14.749603" y="139.07411" font-size="12.03px" stroke-width="1.002">Microsoft-Office.exe</tspan></text>
</svg>
