<svg version="1.1" viewBox="0 0 304.3 89.04" xmlns="http://www.w3.org/2000/svg">
 <path d="m82.49 14.39-14.59 0.2221c-3.423 0.05279-6.331 1.961-6.972 4.576l-1.372 5.593-1.195-5.305c-0.6228-2.767-3.774-4.755-7.386-4.658l-11 0.03552c-3.517 0.09441-6.54 2.401-7.026 5.11l-1.3 7.256-2.562-7.896c-0.7889-2.43-3.549-4.38-6.772-4.467l-12.1-0.1122c-4.724-0.13-8.34 3.235-7.333 6.826l14.21 50.66c0.7308 2.606 3.713 4.456 7.143 4.431l13.85-0.09254c3.469-0.02447 6.428-1.957 7.057-4.609l0.9429-3.976 1.072 4.02c0.6821 2.567 3.553 4.429 6.924 4.491l14.78 0.2666c3.498 0.06328 6.555-1.826 7.263-4.491l13.6-51.11c0.9419-3.538-2.586-6.841-7.234-6.771z" color="#000000" fill="#2296f3" stroke-linecap="round" stroke-linejoin="round" stroke-width="2.15" style="-inkscape-stroke:none;paint-order:stroke fill markers"/>
 <path d="m69.03 71.13-14.78-0.2678-7.76-29.17c-0.4469-1.385-0.7269-2.796-0.8374-4.213l-0.122 0.0023c-0.09666 1.714-0.2929 3.124-0.5769 4.242l-6.933 29.21-13.85 0.09333-14.21-50.66 11.95-0.01688 10.81 33.18c0.2794 1.086 0.5302 2.522 0.7228 4.313l0.1602-0.0028c0.0083-1.344 0.2625-2.829 0.6762-4.433l6.097-32.88 10.85-0.0781 7.376 32.81c0.277 0.93 0.5508 2.258 0.8152 4.038l0.4506 2.294c0.02219-1.377-0.1745-5.069 0.1126-6.502l8.062-32.84 14.59-0.2229z" color="#000000" fill="#fff" stroke-linecap="round" stroke-linejoin="round" stroke-width="12.03" style="-inkscape-stroke:none;paint-order:stroke fill markers"/>
 <g transform="translate(-98.07 -126.9)">
  <g transform="matrix(.8741 0 0 .8595 129.4 98.87)">
   <g transform="matrix(.8512 0 0 1 15.33 .9502)" stroke-width="1.107">
    <path d="m90.84 51.99c-0.3254 1.206-1.564 2.099-2.127 0.5066-2.427-4.498-4.682-8.519-7.121-13.01-1.163-1.047-3.163-0.1532-4.656-0.3867-1.443 0.2603-3.349-0.3961-4.502 0.4544 0.2528 5.084 0.3963 9.636 0.3796 14.74-0.08763 4.066-0.5059 8.126-0.4494 12.19 0.4152 0.5646 1.345 0.2032 1.994 0.3062 2.237-0.02813 4.483 0.057 6.714-0.04392 0.8012-1.224 0.1624-3.033 0.3064-4.503-0.04472-2.768-0.2255-5.541-0.1319-8.306 0.7542-5.13e-4 1.289 2.123 1.908 3.002 1.673 3.282 3.198 6.641 5.009 9.852 1.249 0.8862 3.28 0.4962 3.458-1.268 1.877-4.244 2.753-8.834 3.696-13.35 0.822-4.499 1.128-8.544 1.293-13.11-1.981 1.528-2.591 4.136-3.379 6.388-0.7743 2.355-1.298 4.305-2.393 6.542zm21.17-12.99c1.415-0.2913 3.24 0.3429 4.828 0.0953 1.344 0.01098 4.198-0.9522 3.515 1.455-0.1518 6.342-0.6293 12.69-0.2015 19.03 0.0875 2.45 0.286 4.908 0.1926 7.356-0.4738 0.6076-1.381 0.2552-2.065 0.3501h-6.805c-0.2903-1.395 0.2687-3.175 0.1004-4.735 0.0236-4.761 0.0986-9.522 0.2689-14.28 0.0553-3.091 0.1106-6.181 0.1658-9.272zm-13.95 0.04543c1.415-0.2913 3.24 0.3429 4.828 0.0953 1.344 0.011 4.198-0.9522 3.515 1.455-0.1518 6.342-0.6991 12.16-0.2713 18.5 0.0875 2.45 0.2162 5.383 0.1228 7.831-0.4738 0.6076-1.381 0.2552-2.065 0.3501l-6.665 0.1782c-0.2903-1.395 0.2687-3.175 0.1004-4.735 0.0236-4.761 0.02883-10.18 0.1991-14.93 0.0553-3.091 0.1803-5.647 0.2356-8.738z" fill="#fff"/>
    <g fill="#fdfdfd">
     <path d="m183.8 67.09c-1.085 0.4901-2.464 0.217-3.669 0.317-1.987-0.02891-3.998 0.1027-5.965-0.2166-0.8309-1.078-1.131-2.507-1.796-3.7-0.8221-1.72-1.617-3.458-2.515-5.138-1.204-1.047-2.194-0.5217-3.659-0.6387-1.602-0.07517-0.6363 2.268-0.7869 3.256 0.1187 2.062 0.5612 4.127 0.4203 6.19-1.184 0.3872-2.619 0.144-3.891 0.2472-1.829-0.0447-3.693 0.1296-5.497-0.2007-0.8222-1.015-0.1475-2.678-0.2975-3.953 0.2343-4.802 0.5346-9.606 0.3716-14.42-0.0534-3.02-0.1522-6.041-0.4304-9.05 0.8873-0.9571 2.633-0.3773 3.863-0.6123 4.15-0.07552 8.304-0.2475 12.45-0.1202 3.571 0.2283 7.506 1.364 9.639 4.451 1.578 2.431 1.458 5.622 0.5549 8.273-0.7776 2.008-2.653 3.226-4.34 4.401-0.0201 1.213 1.285 2.405 1.74 3.612 1.283 2.349 2.704 4.635 3.759 7.098l0.0444 0.2014zm-9.773-18.01c0.1248-1.689-0.9997-3.355-2.685-3.709-1.748-0.427-3.604-0.5387-5.384-0.261-1.364 0.5677-0.5382 2.586-0.7957 3.784 0.309 1.044-0.6123 3.129 0.6154 3.473 2.257 0.2217 4.728 0.5401 6.811-0.5618 0.9691-0.5429 1.472-1.639 1.438-2.726z"/>
     <path d="m218.7 53.24c0.094 4.169-1.851 8.267-5.079 10.89-4.492 3.855-10.95 4.657-16.56 3.293-5.657-1.418-10.68-6.17-11.4-12.11-0.6276-4.278 0.7066-8.847 3.818-11.9 3.332-3.542 8.282-5.203 13.08-5.029 4.954-0.0017 9.936 2.129 13.06 6.03 2.049 2.455 3.121 5.632 3.088 8.822zm-8.819-0.0401c0.1358-3.793-3.198-7.126-6.93-7.293-3.099-0.3864-6.249 1.283-7.75 4.004-1.878 3.239-0.6107 7.82 2.704 9.582 3.244 1.785 7.754 1.249 10.18-1.666 1.141-1.257 1.819-2.921 1.796-4.626z"/>
     <path d="m234.1 65.04c-3.043 1.625-9.857 2.064-13.36 1.268l-0.7331-6.087c0-0.1472 0.1163-0.2409 0.349-0.2811 2.249 1.07 4.824 1.031 5.553 0.7234 2.081-0.475 3.614-1.771 3.614-3.136 0-0.87-0.5274-1.84-1.582-2.911-1.83-1.82-2.823-2.831-2.978-3.032-1.07-1.392-2.8-2.887-2.8-4.573 0-2.449 1.311-4.484 3.932-6.103 3.954-2.445 9.439-2.085 13.53-1.658l-2.737 5.718c-2.432-0.519-5.183 0.02222-5.232 2.304 0 0.8164 0.5585 1.82 1.675 3.011 1.97 2.141 3.002 3.266 3.095 3.373 4.446 4.46 1.951 8.959-2.327 11.38z"/>
     <path d="m274.3 53.24c0.094 4.169-1.851 8.267-5.079 10.89-4.492 3.855-10.95 4.657-16.56 3.293-5.657-1.418-10.68-6.17-11.4-12.11-0.6276-4.278 0.7066-8.847 3.818-11.9 3.332-3.542 8.282-5.203 13.08-5.029 4.954-0.0017 9.936 2.129 13.06 6.03 2.049 2.455 3.121 5.632 3.088 8.822zm-8.819-0.0401c0.1358-3.793-3.198-7.126-6.93-7.293-3.099-0.3864-6.249 1.283-7.75 4.004-1.878 3.239-0.6107 7.82 2.704 9.582 3.244 1.785 7.754 1.249 10.18-1.666 1.141-1.257 1.819-2.921 1.796-4.626z"/>
     <path d="m301.8 45.67c-0.9664 0.5259-2.394 0.046-3.538 0.1084-3.374-0.1612-6.774-0.6524-10.14-0.269-1.174 0.7258-1.048 2.597-0.4246 3.668 1.219 0.9595 2.965 0.3599 4.407 0.4832 2.435-0.06918 4.867-0.2479 7.303-0.2567 1.034 0.822 0.6407 2.512 0.7676 3.723-0.1161 1.201 0.2374 2.642-0.4942 3.655-1.192 0.1415-2.442-0.1806-3.662-0.1561-2.614-0.06585-5.242-0.1813-7.85-0.02616-1.492 0.2485-0.7248 2.051-0.8693 3.074 0.0681 2.476 0.3118 4.957 0.4497 7.42-1.041 0.8644-2.509 0.2904-3.783 0.4583-1.875-0.05906-3.797 0.07833-5.634-0.3523-0.8019-0.9532-0.1672-2.533-0.328-3.743 0.1574-5.365 0.5202-10.74 0.0682-16.1-0.1752-2.549-0.3373-5.099-0.5153-7.647 0.7011-1.057 2.53-0.2673 3.71-0.476 4.562 0.08471 9.131 0.1989 13.68-0.1895 1.81-0.07706 3.631-0.2713 5.44-0.1464 1.383 0.451 0.5758 2.278 0.8784 3.362 0.129 1.145 0.5054 2.256 0.5352 3.413z"/>
     <path d="m329.5 45.27c-0.857 0.9065-2.698 0.08491-3.927 0.2718-1.132 0.06929-2.709-0.3456-3.593-0.01347-0.2003 5.161-0.1578 10.33 0.1412 15.48 0.0495 2 0.2403 4.017 0.1133 6.01-1.188 0.5839-2.758 0.2993-4.092 0.4278-1.768-0.02734-3.565 0.08889-5.308-0.2332-0.774-0.965-0.1576-2.524-0.3008-3.731 0.2038-5.179 0.5708-10.36 0.295-15.55-0.2108-1.008 0.5234-3.081-1.215-2.375-2.183 0.1331-4.384 0.3843-6.568 0.2572-0.1627-1.09 0.52-2.276 0.6515-3.403 0.265-1.05-0.1911-2.793 0.826-3.388 4.765 0.4387 9.565 0.5328 14.35 0.3413 2.723-0.1069 5.441-0.3908 8.162-0.4718 0.6192 1.009-0.0243 2.632 0.1885 3.882 0.0497 0.8342 0.2674 1.651 0.2827 2.487z"/>
    </g>
    <g transform="matrix(1.215,0,0,1.027,-23.45,-2.793)" fill="#fff" aria-label="C">
     <path d="m144.6 63.76q0 0.3125-0.4102 0.8203-3.594 4.277-9.551 4.277-6.094 0-9.883-4.16-3.691-4.023-3.691-10.16 0-5.938 3.613-10.08 3.77-4.336 9.59-4.336 6.328 0 9.922 3.887 0.3906 0.4297 0.3906 0.7617 0 0.3711-1.367 2.754-1.348 2.383-1.699 2.676-0.1562 0.1562-0.3906 0.1562-0.0977 0-0.9766-0.7812-1.055-0.9375-2.07-1.465-1.543-0.7812-3.203-0.7812-2.871 0-4.59 2.148-1.582 1.992-1.582 4.922 0 2.969 1.582 4.98 1.719 2.188 4.59 2.188 1.699 0 3.223-0.7422 0.9961-0.4883 2.031-1.367 0.8594-0.7422 0.957-0.7422 0.1953 0 0.3906 0.2148 0.3125 0.3516 1.699 2.441 1.426 2.168 1.426 2.383z"/>
    </g>
   </g>
  </g>
 </g>
 <g transform="matrix(.9223 0 0 .8369 58.61 -2.3)" fill="#fff" stroke-linecap="round" stroke-linejoin="round" stroke-width=".9933" style="paint-order:stroke fill markers" aria-label="Word">
  <path transform="scale(.9857 1.015)" d="m101.2 49.34a0.5039 0.4896 0 0 0-0.4883 0.6113l6.643 25.31a0.5039 0.4896 0 0 0 0.4863 0.3672h6.277a0.5039 0.4896 0 0 0 0.4883-0.3672l3.504-13.26a0.5039 0.4896 0 0 0 0-2e-3c0.0746-0.2898 0.1728-0.6949 0.2949-1.217a0.5039 0.4896 0 0 0 0-2e-3 0.5039 0.4896 0 0 0 0-2e-3c0.1223-0.5465 0.247-1.116 0.3691-1.709a0.5039 0.4896 0 0 0 0-2e-3 0.5039 0.4896 0 0 0 0-2e-3c0.0185-0.0932 0.031-0.1721 0.0488-0.2637 0.0185 0.09177 0.0362 0.1702 0.0547 0.2637a0.5039 0.4896 0 0 0 4e-3 0.01562c0.1445 0.6083 0.2657 1.171 0.3613 1.682a0.5039 0.4896 0 0 0 4e-3 0.01953c0.1216 0.52 0.2184 0.9105 0.2949 1.184v0.0039c2.6e-4 9.39e-4 2e-3 3e-3 2e-3 0.0039l3.537 13.29a0.5039 0.4896 0 0 0 0.4883 0.3672h6.277a0.5039 0.4896 0 0 0 0.4863-0.3672l6.643-25.31a0.5039 0.4896 0 0 0-0.4863-0.6113h-5.438a0.5039 0.4896 0 0 0-0.4922 0.3789l-3.32 13.83a0.5039 0.4896 0 0 0-2e-3 0.01172c-0.1207 0.5627-0.2785 1.259-0.4726 2.084a0.5039 0.4896 0 0 0-4e-3 0.0098c-0.1118 0.5275-0.2092 1.068-0.3106 1.605-0.1002-0.5199-0.1961-1.05-0.3066-1.541l2e-3 0.01758c-0.1469-0.7848-0.2797-1.393-0.4082-1.844l-2e-3 -0.0059-3.795-14.18a0.5039 0.4896 0 0 0-0.4883-0.3672h-5.217a0.5039 0.4896 0 0 0-0.4883 0.3672l-3.795 14.18 4e-3 -0.0078c-0.1267 0.443-0.2758 1.052-0.4473 1.838a0.5039 0.4896 0 0 0-2e-3 0.0098c-0.0915 0.474-0.184 0.9868-0.2754 1.488-0.0997-0.5332-0.1949-1.066-0.3047-1.6-0.1716-0.8334-0.3308-1.527-0.4805-2.084l-3.318-13.81a0.5039 0.4896 0 0 0-0.4902-0.3789h-5.438z" color="#000000" style="-inkscape-stroke:none"/>
  <g transform="translate(.3311)">
   <path transform="scale(.9857 1.015)" d="m147.1 54.94c-3.116 0-5.647 0.9108-7.477 2.738-1.836 1.834-2.732 4.45-2.732 7.75 0 2.212 0.4253 4.129 1.299 5.727a0.5039 0.4896 0 0 0 2e-3 2e-3c0.8675 1.562 2.071 2.772 3.59 3.598a0.5039 0.4896 0 0 0 2e-3 2e-3c1.538 0.822 3.287 1.23 5.209 1.23 3.092 0 5.612-0.9238 7.439-2.773l2e-3 -2e-3c1.858-1.856 2.77-4.483 2.77-7.783 0-2.189-0.428-4.083-1.303-5.658-0.8675-1.562-2.071-2.772-3.59-3.598-1.517-0.8243-3.266-1.232-5.211-1.232zm-0.0723 5.234c1.345 0 2.174 0.4013 2.713 1.227a0.5039 0.4896 0 0 0 8e-3 0.01172c0.5686 0.8184 0.8984 2.156 0.8984 4.016s-0.3271 3.223-0.9043 4.096a0.5039 0.4896 0 0 0-2e-3 0.0039c-0.5402 0.8276-1.359 1.227-2.678 1.227-1.344 0-2.187-0.4041-2.75-1.232-0.5532-0.8733-0.8672-2.237-0.8672-4.094 0-1.861 0.3179-3.203 0.8652-4.021 0.5641-0.8323 1.398-1.232 2.717-1.232z" color="#000000" style="-inkscape-stroke:none"/>
   <path transform="scale(.9857 1.015)" d="m172.3 54.94c-1.43 0-2.726 0.3884-3.832 1.156-0.8619 0.5981-1.473 1.374-2.045 2.172l-0.6387-2.598a0.5039 0.4896 0 0 0-0.4902-0.375h-4.123a0.5039 0.4896 0 0 0-0.5039 0.4902v19.36a0.5039 0.4896 0 0 0 0.5039 0.4883h5.438a0.5039 0.4896 0 0 0 0.5039-0.4883v-9.857c0-1.161 0.2407-2.021 0.6719-2.621 0.4798-0.634 1.082-1.076 1.846-1.352a0.5039 0.4896 0 0 0 0.0117-0.0039c0.7931-0.3082 1.614-0.4609 2.477-0.4609 0.2097 0 0.4666 0.02005 0.7637 0.06445a0.5039 0.4896 0 0 0 0.0371 0.0059c0.2985 0.02231 0.5321 0.055 0.6836 0.0918a0.5039 0.4896 0 0 0 0.623-0.4375l0.4023-4.963a0.5039 0.4896 0 0 0-0.3945-0.5156c-0.2595-0.05602-0.5707-0.09255-0.9512-0.1172-0.3731-0.02417-0.6996-0.03711-0.9824-0.03711z" color="#000000" style="-inkscape-stroke:none"/>
  </g>
  <path d="m188.2 48.4a0.4967 0.4967 0 0 0-0.4967 0.4974v6.293c0 0.788 0.0495 1.565 0.1482 2.33a0.4967 0.4967 0 0 0 0 2e-3c0.0259 0.1942 0.0432 0.2814 0.0674 0.4518-0.4437-0.4651-0.8168-0.9825-1.403-1.338-1.009-0.6105-2.267-0.8996-3.746-0.8996-2.381 0-4.381 0.9475-5.854 2.776-1.489 1.849-2.197 4.512-2.197 7.938 0 3.401 0.6947 6.048 2.158 7.896a0.4967 0.4967 0 0 0 4e-3 0.0059c1.471 1.801 3.433 2.736 5.745 2.736 1.479 0 2.728-0.2896 3.716-0.9036a0.4967 0.4967 0 0 0 8e-3 -4e-3c0.754-0.4891 1.305-1.129 1.821-1.791l0.8317 2.031a0.4967 0.4967 0 0 0 0.4582 0.3071h4.101a0.4967 0.4967 0 0 0 0.4967-0.4954v-27.34a0.4967 0.4967 0 0 0-0.4967-0.4974zm-3.777 12.68h2e-3c1.474 3.95e-4 2.32 0.4324 2.801 1.294a0.4967 0.4967 0 0 0 8e-3 0.01189c0.5295 0.8895 0.8297 2.254 0.8297 4.096v0.5627c-0.0464 1.694-0.3668 2.921-0.8836 3.688-0.4917 0.7063-1.32 1.08-2.684 1.08-1.091 0-1.842-0.383-2.431-1.223-0.5866-0.8589-0.9222-2.212-0.9222-4.072s0.3334-3.226 0.9241-4.112a0.4967 0.4967 0 0 0 4e-3 -0.0059c0.5987-0.9195 1.324-1.319 2.353-1.32z" color="#000000" style="-inkscape-stroke:none"/>
 </g>
 <path d="m95.03 66.41h198.2v19.48h-198.2z" fill="#2296f3" stroke-width=".9715" style="paint-order:markers stroke fill"/>
 <text x="100.41124" y="81.845848" fill="#ffffff" font-family="sans-serif" font-size="13px" font-weight="bold" style="line-height:1.25" xml:space="preserve"><tspan x="100.41124" y="81.845848" fill="#ffffff" font-family="Arial" font-size="13px" font-weight="900">НЕОФИЦИАЛЬНЫЙ САЙТ</tspan></text>
 <g stroke-width=".6537">
  <path d="m138.4 54.09-43.09 0.0173-0.07222 9.011 43.13 0.06569z" fill="#df2020"/>
  <path d="m138.3 45.08-43.01 0.0206-0.07222 9.011 43.12-0.0183z" fill="#0b5af9"/>
  <path d="m138.4 36.07-42.99-4e-3 -0.02003 9.033 42.99-0.0183z" fill="#fcfcfc"/>
  <path d="m293.2 54.13-43.09 0.0173-0.0722 9.011 43.13 0.06569z" fill="#df2020"/>
  <path d="m293.1 45.12-43.01 0.0206-0.0722 9.011 43.12-0.0183z" fill="#0b5af9"/>
  <path d="m293.2 36.11-42.99-4e-3 -0.02 9.033 42.99-0.0183z" fill="#fcfcfc"/>
 </g>
</svg>
