<svg version="1.1" viewBox="0 0 166.6 54.23" xmlns="http://www.w3.org/2000/svg">
<style type="text/css">.custom-controls {
height: 64px;
fill: #fff;
}
.control-icon {
opacity: 0;
animation: icon-fade-in-out 4s ease-in-out infinite;
animation-fill-mode: forwards;
}
.stop {
animation-delay: .3s;
}
.play {
animation-delay: .5s;
}
.gamepad {
animation-delay: .7s;
padding: 0 0 0 20px;
}
@keyframes icon-fade-in-out {
0% {
opacity: 0;
}
10% {
opacity: 1;
}
80% {
opacity: 1;
}
90% {
opacity: 0;
}
100% {
opacity: 0;
}
}</style>
<g transform="matrix(.633 0 0 .6169 49.05 -2.983)">
<path d="m94.79 55.17c.3419-.6686.6451-1.372.9072-2.109 3.001-8.433-1.537-18.54-11.1-20.97-1.033-12.36-10.15-20.83-20.46-22.28-11.78-1.655-22.59 5.475-26.18 16.81-4.33-1.461-8.549-1.283-12.52.9302-1.804.7945-3.455 1.967-4.935 3.509-2.173 2.264-3.587 5.122-4.163 8.135-.8526.1281-1.691.2562-2.48.5253-4.605 1.573-7.51 4.809-8.306 9.685-.4957 3.036.5049 6.064 1.063 7.287 2.205 4.835 7.319 7.576 12.51 6.851.2587-.03583.6348.07489.8571.2529.2746 7.728 4.215 14.56 10.13 18.47 9.483 6.265 21.69 4.335 29.38-4.256 3.299 3.213 7.223 4.774 11.84 4.207 4.586-.5633 8.146-2.973 10.74-6.891 1.2.3072 2.338.75 3.513.8726 4.607.4797 8.347-1.264 11.1-5.21 1.05-1.51 2.044-3.467 2.044-6.897.0022-3.533-1.473-6.753-3.954-8.913z" fill="#819cbc" stroke-width="1.112"/>
<g fill="#fff">
<g stroke-width="4.059">
<path d="m-24.99 71.87h-41.72c-1.148 0-2.08-.8873-2.08-1.981 0-1.093.9318-1.981 2.08-1.981h41.72c1.148 0 2.08.8873 2.08 1.981 0 1.093-.9318 1.981-2.08 1.981z"/>
<path d="m-13 71.87h-6.015c-1.148 0-2.08-.8873-2.08-1.981 0-1.093.9318-1.981 2.08-1.981h6.015c1.148 0 2.08.8873 2.08 1.981 0 1.093-.9318 1.981-2.08 1.981z"/>
<path d="m3.866 71.87h-10.59c-1.148 0-2.08-.8873-2.08-1.981 0-1.093.9318-1.981 2.08-1.981h10.59c1.148 0 2.08.8873 2.08 1.981 0 1.093-.9318 1.981-2.08 1.981z"/>
<path d="m3.866 79.25h-40c-1.148 0-2.08-.8873-2.08-1.981 0-1.093.9318-1.981 2.08-1.981h40c1.148 0 2.08.8873 2.08 1.981 0 1.093-.9318 1.981-2.08 1.981z"/>
<path d="m-43.34 79.25h-2.413c-1.148 0-2.08-.8873-2.08-1.981 0-1.093.9318-1.981 2.08-1.981h2.413c1.148 0 2.08.8873 2.08 1.981 0 1.093-.9318 1.981-2.08 1.981z"/>
<path d="m-53.23 79.25h-6.057c-1.148 0-2.08-.8873-2.08-1.981 0-1.093.9318-1.981 2.08-1.981h6.057c1.148 0 2.08.8873 2.08 1.981 0 1.093-.9318 1.981-2.08 1.981z"/>
<path d="m-15.22 64.48h-20.91c-1.148 0-2.08-.8873-2.08-1.981 0-1.093.9318-1.981 2.08-1.981h20.91c1.148 0 2.08.8873 2.08 1.981 0 1.093-.9318 1.981-2.08 1.981z"/>
<path d="m-15.22 57.09h-5.229c-1.148 0-2.08-.8873-2.08-1.981 0-1.093.9318-1.981 2.08-1.981h5.229c1.148 0 2.08.8873 2.08 1.981 0 1.093-.9318 1.981-2.08 1.981z"/>
<path d="m-28.82 86.64h-7.317c-1.148 0-2.08-.8873-2.08-1.981 0-1.093.9318-1.981 2.08-1.981h7.317c1.148 0 2.08.8873 2.08 1.981 0 1.093-.9276 1.981-2.08 1.981z"/>
</g>
<g stroke-width="4.164">
<path d="m146.5 34.39h-39.24c-1.08 0-1.956-.9929-1.956-2.216 0-1.223.8763-2.216 1.956-2.216h39.24c1.08 0 1.956.9929 1.956 2.216 0 1.223-.8763 2.216-1.956 2.216z"/>
<path d="m157.7 34.39h-5.657c-1.08 0-1.956-.9929-1.956-2.216 0-1.223.8763-2.216 1.956-2.216h5.657c1.08 0 1.956.9929 1.956 2.216 0 1.223-.8763 2.216-1.956 2.216z"/>
<path d="m173.6 34.39h-9.96c-1.08 0-1.956-.9929-1.956-2.216 0-1.223.8763-2.216 1.956-2.216h9.96c1.08 0 1.956.9929 1.956 2.216 0 1.223-.8724 2.216-1.956 2.216z"/>
<path d="m165.7 17.86h-37.62c-1.08 0-1.956-.9929-1.956-2.216 0-1.223.8763-2.216 1.956-2.216h37.62c1.08 0 1.956.9929 1.956 2.216 0 1.223-.8763 2.216-1.956 2.216z"/>
<path d="m121.3 17.86h-2.269c-1.08 0-1.956-.9929-1.956-2.216 0-1.223.8763-2.216 1.956-2.216h2.269c1.08 0 1.956.9929 1.956 2.216 0 1.223-.8724 2.216-1.956 2.216z"/>
<path d="m112 17.86h-5.696c-1.08 0-1.956-.9929-1.956-2.216 0-1.223.8763-2.216 1.956-2.216h5.696c1.08 0 1.956.9929 1.956 2.216 0 1.223-.8724 2.216-1.956 2.216z"/>
<path d="m155.6 26.12h-19.67c-1.08 0-1.956-.9929-1.956-2.216 0-1.223.8763-2.216 1.956-2.216h19.67c1.08 0 1.956.9929 1.956 2.216 0 1.223-.8724 2.216-1.956 2.216z"/>
<path d="m155.6 17.86h-4.921c-1.08 0-1.956-.9929-1.956-2.216 0-1.223.8763-2.216 1.956-2.216h4.921c1.08 0 1.956.9929 1.956 2.216 0 1.223-.8724 2.216-1.956 2.216zm-25.36 8.262h-6.881c-1.08 0-1.956-.9929-1.956-2.216 0-1.223.8763-2.216 1.956-2.216h6.881c1.08 0 1.956.9929 1.956 2.216 0 1.223-.8763 2.216-1.956 2.216z"/>
</g>
</g>
<g transform="matrix(1.619 0 0 1.591 -83.56 -70.35)">
<path d="m34.56 68.79h11.76c2.7 0 4.888-2.189 4.888-4.889 0-2.355-1.666-4.321-3.884-4.784.026-.206.043-.415.043-.628 0-2.796-2.267-5.063-5.063-5.063-1.651 0-3.113.794-4.037 2.017-.236-3.113-3.017-5.514-6.27-5.116-2.379.291-4.346 2.13-4.784 4.486-.14.756-.126 1.489.014 2.177-.638-.687-1.546-1.119-2.557-1.119-1.85 0-3.361 1.441-3.48 3.261-.84-.186-1.754-.174-2.717.188-1.84.691-3.15 2.423-3.227 4.387-.109 2.789 2.12 5.085 4.885 5.085h11.27" fill="#fff" style="paint-order:fill markers stroke"/>
<path d="m21.01 64.92h-.017c-.138-.009-.242-.128-.232-.266.106-1.586 1.574-2.786 3.308-2.674.135.009.271.027.408.053.273-.968 1.254-1.641 2.365-1.568.426.028.824.161 1.163.382.001-.019.002-.037.004-.055.12-1.794 1.798-3.144 3.742-3.022.138.009.242.128.232.266-.008.132-.118.233-.249.233h-.017c-1.647-.111-3.107 1.037-3.211 2.557-.012.181-.004.367.023.552.017.109-.041.216-.142.263-.102.046-.22.022-.293-.061-.317-.358-.786-.583-1.287-.616-.955-.058-1.774.555-1.893 1.405-.011.071-.051.134-.11.174-.06.04-.135.051-.203.033-.189-.051-.38-.084-.567-.096-1.448-.104-2.688.896-2.776 2.208-.007.131-.117.232-.248.232z" fill="#486589"/>
<g fill="#486589">
<path d="m43.32 61.33c-.02161 0-.04208-.002-.06483-.0061-.1524-.03136-.248-.1669-.2127-.3034.05687-.2185.1399-.4319.2491-.6322.8906-1.641 3.332-2.35 5.404-1.48.1422.05968.169.2908.1019.4172-.06824.1274-.2377.18-.3788.1214-1.793-.7505-3.859-.2296-4.614 1.162-.09099.1669-.1615.3439-.2093.527-.02843.1153-.1444.1942-.2752.1942z" fill="#486589" stroke-width="1.073"/>
</g>
</g>
<g transform="matrix(2.002 0 0 1.908 2.786 7.79)" style="paint-order:fill markers stroke">
<path d="m77.18 41.65h3.537c2.108 0 3.818-1.747 3.818-3.902 0-1.88-1.301-3.449-3.033-3.819.01998-.1649.03397-.3308.03397-.5009 0-2.232-1.771-4.042-3.954-4.042-1.289 0-2.431.6334-3.153 1.61-.1849-2.485-2.356-4.402-4.896-4.083-1.858.2327-3.395 1.7-3.736 3.58-.1099.6032-.09793 1.189.01099 1.737-.4976-.5478-1.207-.8932-1.997-.8932-1.445 0-2.625 1.15-2.718 2.603-.6565-.1482-1.37-.1388-2.121.1492-1.437.551-2.46 1.934-2.52 3.502-.08494 2.226 1.656 4.058 3.815 4.058h8.801m1.638 0h.3597" fill="#fff" style="paint-order:fill markers stroke"/>
<path d="m78.7 35.95c-.02113 0-.04114-.0024-.06338-.0073-.149-.03764-.2424-.2003-.2079-.3643.04225-.2052.1067-.4007.189-.5816.6716-1.487 2.53-2.033 4.137-1.221.1401.07042.2013.2513.1357.4031-.06449.1518-.2324.2186-.368.1481-1.342-.6787-2.868-.2538-3.406.9398-.06449.1384-.1134.289-.1468.448-.02891.1408-.1434.2356-.2702.2356z" fill="#486589" style="paint-order:fill markers stroke"/>
<path d="m62.88 31.19c-.01173-.01966-.02101-.03945-.02949-.06257-.05279-.1572.02625-.3246.1776-.3736.1889-.06218.3825-.09887.5742-.1118 1.577-.1372 3.268 1.08 3.292 3.245.02147.1651-.0903.3115-.2492.3255-.1583.01497-.3058-.1081-.3247-.2691-.1341-2.209-1.542-2.79-3.1-2.618-.1296.04277-.2699-.01692-.3406-.1348z" fill="#486589" style="paint-order:fill markers stroke"/>
</g>
<g fill="#fff" stroke-width="4.164">
<path d="m153.7 49.99h-5.657c-1.08 0-1.956-.9929-1.956-2.216 0-1.223.8763-2.216 1.956-2.216h5.657c1.08 0 1.956.9929 1.956 2.216 0 1.223-.8763 2.216-1.956 2.216z"/>
<path d="m128.9 42.6h-9.96c-1.08 0-1.956-.9929-1.956-2.216 0-1.223.8763-2.216 1.956-2.216h9.96c1.08 0 1.956.9929 1.956 2.216 0 1.223-.8724 2.216-1.956 2.216z"/>
<path d="m155.5 42.6h-19.67c-1.08 0-1.956-.9929-1.956-2.216 0-1.223.8763-2.216 1.956-2.216h19.67c1.08 0 1.956.9929 1.956 2.216 0 1.223-.8724 2.216-1.956 2.216z"/>
</g>
<g transform="matrix(.7338 0 0 .7465 52.69 41.82)">
<g transform="matrix(2.025 0 0 2.034 -25.38 -18.6)" fill="#fff">
<path d="m22.4 31v-4.514c0-.938.758-1.699 1.697-1.699l3.498-.1z"/>
<path d="m25.9 0h-20.79c-.941 0-1.699.76-1.699 1.695v27.61c0 .938.759 1.697 1.699 1.697h15.6v-6.02c0-.936.762-1.697 1.699-1.697h5.185v-21.59c-.001-.935-.758-1.695-1.697-1.695zm-1.141 14.51c0 .266-.293.484-.656.484h-17.54c-.363 0-.658-.219-.658-.484v-.807c0-.268.295-.484.658-.484h17.54c.363 0 .656.217.656.484zm0 3.478c0 .27-.293.484-.656.484h-17.54c-.363 0-.658-.215-.658-.484v-.805c0-.268.295-.486.658-.486h17.54c.363 0 .656.219.656.486zm0 3.551c0 .268-.293.484-.656.484h-17.54c-.363 0-.658-.217-.658-.484v-.807c0-.268.295-.486.658-.486h17.54c.363 0 .656.219.656.486zm-8.917 3.516c0 .266-.155.48-.347.48h-9.238c-.192 0-.348-.215-.348-.48v-.809c0-.266.155-.484.348-.484h9.238c.191 0 .347.219.347.484zm-3.476-13.66-1.684-5.975-1.906 5.975h-.687s-2.551-7.621-2.759-7.902c-.134-.194-.338-.331-.609-.413v-.334h3.783v.334c-.257 0-.434.041-.529.125s-.144.18-.144.287c0 .102 1.354 4.193 1.354 4.193l1.058-3.279s-.379-.947-.499-1.072c-.121-.121-.308-.207-.56-.254v-.334h3.84v.334c-.301.018-.489.065-.569.137-.08.076-.12.182-.12.32 0 .131 1.291 4.148 1.291 4.148s1.171-3.74 1.171-3.896c0-.234-.051-.404-.153-.514-.101-.107-.299-.172-.592-.195v-.334h2.22v.334c-.245.035-.442.133-.585.291-.146.158-2.662 8.023-2.662 8.023h-.66v.001zm12.57-6.721c0 .266-.131.482-.293.482h-7.79c-.162 0-.293-.217-.293-.482v-.809c0-.266.131-.482.293-.482h7.79c.162 0 .293.217.293.482zm.064 5.992c0 .268-.131.48-.292.48h-7.791c-.164 0-.293-.213-.293-.48v-.808c0-.266.129-.484.293-.484h7.791c.161 0 .292.219.292.484zm-.032-2.986c0 .268-.129.482-.293.482h-7.79c-.162 0-.293-.215-.293-.482v-.807c0-.268.131-.484.293-.484h7.79c.164 0 .293.217.293.484z"/>
</g>
<path d="m-11.14-2.128c-3.083-9.105-3.316-9.683-4.02-10-.3306-.1499-.9928-.5052-.9928-.6211 0-.1158 2.078-.06603 4.139-.05808 3.622-.01634 4.708-.1732 3.134.4477-.3372.2383-.6131.6322-.6131.8754 0 .8101 2.546 8.616 2.739 8.399.1047-.1174.648-1.62 1.207-3.339 1.008-3.097 1.013-3.137.5719-4.306-.2756-.731-.7278-1.328-1.187-1.567-1.102-.6008-.7723-.4607 1.233-.4672 1.087-.04461 2.865-.04416 3.951.0015 1.991.02473 2.578-.1387 1.197.4307-.6904.3086-.7595.4496-.6082 1.241.318 1.663 2.532 8.288 2.686 8.036.2879-.4718 2.38-7.598 2.38-8.107 0-.2797-.3372-.7633-.7494-1.075l-1.073-.4973 2.436-.07786c1.232-.0053 2.453-.01457 2.453.1465 0 .1518-.5203.3968-.7398.3968-.6085 0-.8679.6494-3.583 8.971-2.115 6.483-2.508 7.933-2.967 8.005-.6169.09708-.6586.07658-2.775-7.66-.6956-2.543-1.337-4.623-1.425-4.622-.08808.0007724-1.06 2.719-2.061 6.073-2.536 8.501-2.324 8.591-5.333-.6225z" fill="#2196f3" stroke="#2196f3" stroke-linecap="round" stroke-linejoin="round" stroke-width=".61" style="paint-order:fill markers stroke"/>
</g>
</g>
</svg>
