<?xml version="1.0" standalone="no"?>
<!DOCTYPE svg PUBLIC "-//W3C//DTD SVG 20010904//EN"
 "http://www.w3.org/TR/2001/REC-SVG-20010904/DTD/svg10.dtd">
<svg version="1.0" xmlns="http://www.w3.org/2000/svg"
 width="120.000000pt" height="120.000000pt" viewBox="0 0 120.000000 120.000000"
 preserveAspectRatio="xMidYMid meet">

<g transform="translate(0.000000,120.000000) scale(0.100000,-0.100000)"
fill="#000000" stroke="none">
<path d="M1195 600 c0 -333 1 -469 2 -303 2 167 2 439 0 605 -1 167 -2 31 -2
-302z"/>
<path d="M440 1072 c-425 -119 -555 -614 -236 -899 223 -198 581 -189 790 21
237 237 199 609 -80 795 -98 66 -182 92 -309 97 -76 3 -116 0 -165 -14z m436
-325 l57 -53 -222 -209 c-122 -116 -228 -211 -234 -212 -7 -2 -68 51 -137 117
l-125 120 60 54 60 55 67 -66 c80 -79 55 -90 258 106 80 77 148 140 152 141 4
0 33 -24 64 -53z"/>
</g>
</svg>
